<?xml version="1.0" encoding="UTF-8" standalone="no"?>
<!-- Created with Inkscape (http://www.inkscape.org/) -->

<svg
   xmlns:dc="http://purl.org/dc/elements/1.1/"
   xmlns:cc="http://creativecommons.org/ns#"
   xmlns:rdf="http://www.w3.org/1999/02/22-rdf-syntax-ns#"
   xmlns:svg="http://www.w3.org/2000/svg"
   xmlns="http://www.w3.org/2000/svg"
   xmlns:sodipodi="http://sodipodi.sourceforge.net/DTD/sodipodi-0.dtd"
   xmlns:inkscape="http://www.inkscape.org/namespaces/inkscape"
   width="79.698334mm"
   height="79.467789mm"
   viewBox="0 0 79.698331 79.467788"
   version="1.1"
   id="svg8"
   inkscape:version="0.92.1 r15371"
   sodipodi:docname="F.svg">
  <defs
     id="defs2" />
  <sodipodi:namedview
     id="base"
     pagecolor="#ffffff"
     bordercolor="#666666"
     borderopacity="1.0"
     inkscape:pageopacity="0.0"
     inkscape:pageshadow="2"
     inkscape:zoom="0.35355339"
     inkscape:cx="-563.82137"
     inkscape:cy="-55.960363"
     inkscape:document-units="mm"
     inkscape:current-layer="layer1"
     showgrid="false"
     inkscape:window-width="1916"
     inkscape:window-height="1039"
     inkscape:window-x="0"
     inkscape:window-y="39"
     inkscape:window-maximized="0"
     inkscape:snap-global="true"
     showguides="true"
     inkscape:guide-bbox="true"
     fit-margin-top="0"
     fit-margin-left="0"
     fit-margin-right="0"
     fit-margin-bottom="0"
     inkscape:snap-bbox="true" />
  <metadata
     id="metadata5">
    <rdf:RDF>
      <cc:Work
         rdf:about="">
        <dc:format>image/svg+xml</dc:format>
        <dc:type
           rdf:resource="http://purl.org/dc/dcmitype/StillImage" />
        <dc:title></dc:title>
      </cc:Work>
    </rdf:RDF>
  </metadata>
  <g
     inkscape:label="Calque 1"
     inkscape:groupmode="layer"
     id="layer1"
     transform="translate(-619.89431,128.89508)">
    <path
       inkscape:connector-curvature="0"
       id="rect5040-75-7"
       d="m 620.25735,-128.66829 h 79.10849 v 79.108498 h -79.10849 z"
       style="opacity:1;vector-effect:none;fill:none;fill-opacity:1;stroke:#000000;stroke-width:0.26499999;stroke-linecap:butt;stroke-linejoin:miter;stroke-miterlimit:4;stroke-dasharray:none;stroke-dashoffset:0;stroke-opacity:1"
       inkscape:export-xdpi="127.79936"
       inkscape:export-ydpi="127.79936" />
    <path
       style="opacity:1;vector-effect:none;fill:none;fill-opacity:1;stroke:#000000;stroke-width:0.26458332;stroke-linecap:butt;stroke-linejoin:miter;stroke-miterlimit:4;stroke-dasharray:none;stroke-dashoffset:0;stroke-opacity:1"
       id="path5039-6-0"
       sodipodi:type="arc"
       sodipodi:cx="633.56061"
       sodipodi:cy="-55.439278"
       sodipodi:rx="5.879487"
       sodipodi:ry="5.879487"
       sodipodi:start="4.7083922"
       sodipodi:end="4.7071112"
       sodipodi:open="true"
       d="m 633.53711,-61.318718 a 5.879487,5.879487 0 0 1 5.90293,5.854059 5.879487,5.879487 0 0 1 -5.85217,5.904805 5.879487,5.879487 0 0 1 -5.90668,-5.850276 5.879487,5.879487 0 0 1 5.84839,-5.908553"
       inkscape:export-xdpi="127.79936"
       inkscape:export-ydpi="127.79936" />
    <path
       d="m 654.08594,-61.318718 a 5.879487,5.879487 0 0 1 5.90293,5.854059 5.879487,5.879487 0 0 1 -5.85217,5.904805 5.879487,5.879487 0 0 1 -5.90668,-5.850276 5.879487,5.879487 0 0 1 5.84839,-5.908553"
       sodipodi:open="true"
       sodipodi:end="4.7071112"
       sodipodi:start="4.7083922"
       sodipodi:ry="5.879487"
       sodipodi:rx="5.879487"
       sodipodi:cy="-55.439278"
       sodipodi:cx="654.10944"
       sodipodi:type="arc"
       id="path5041-2-8"
       style="opacity:1;vector-effect:none;fill:none;fill-opacity:1;stroke:#000000;stroke-width:0.26458332;stroke-linecap:butt;stroke-linejoin:miter;stroke-miterlimit:4;stroke-dasharray:none;stroke-dashoffset:0;stroke-opacity:1"
       inkscape:export-xdpi="127.79936"
       inkscape:export-ydpi="127.79936" />
    <path
       style="opacity:1;vector-effect:none;fill:none;fill-opacity:1;stroke:#000000;stroke-width:0.26458332;stroke-linecap:butt;stroke-linejoin:miter;stroke-miterlimit:4;stroke-dasharray:none;stroke-dashoffset:0;stroke-opacity:1"
       d="m 677.962,-108.93619 c 3.24639,0.013 5.88893,-2.60766 5.90294,-5.85405 0.014,-3.24639 -2.60579,-5.88976 -5.85217,-5.90481 -3.24638,-0.0151 -5.89059,2.6039 -5.90668,5.85028 -0.0161,3.24637 2.60201,5.89141 5.84838,5.90855"
       id="path5047-1-6"
       inkscape:connector-curvature="0"
       sodipodi:nodetypes="csssc"
       inkscape:export-xdpi="127.79936"
       inkscape:export-ydpi="127.79936" />
    <path
       style="fill:none;fill-rule:evenodd;stroke:#000000;stroke-width:0.26458332px;stroke-linecap:butt;stroke-linejoin:miter;stroke-opacity:1"
       d="M 699.36584,-49.559792 620.12409,-128.80154"
       id="path5057-2-2"
       inkscape:connector-curvature="0"
       inkscape:export-xdpi="127.79936"
       inkscape:export-ydpi="127.79936" />
    <path
       style="fill:none;fill-rule:evenodd;stroke:#000000;stroke-width:0.26458332px;stroke-linecap:butt;stroke-linejoin:miter;stroke-opacity:1"
       d="m 699.4991,-128.80154 -79.24175,79.241748"
       id="path5059-7-4"
       inkscape:connector-curvature="0"
       inkscape:export-xdpi="127.79936"
       inkscape:export-ydpi="127.79936" />
    <path
       style="opacity:1;vector-effect:none;fill:none;fill-opacity:1;stroke:#000000;stroke-width:0.26511249;stroke-linecap:butt;stroke-linejoin:miter;stroke-miterlimit:4;stroke-dasharray:none;stroke-dashoffset:0;stroke-opacity:1"
       id="path4750-7"
       sodipodi:type="arc"
       sodipodi:cx="668.08405"
       sodipodi:cy="-82.296761"
       sodipodi:rx="4.2217593"
       sodipodi:ry="4.2217593"
       sodipodi:start="4.7083922"
       sodipodi:end="4.7071112"
       sodipodi:open="true"
       d="m 668.06717,-86.518486 a 4.2217593,4.2217593 0 0 1 4.2386,4.2035 4.2217593,4.2217593 0 0 1 -4.20215,4.239939 4.2217593,4.2217593 0 0 1 -4.24128,-4.200784 4.2217593,4.2217593 0 0 1 4.19942,-4.24263"
       inkscape:export-xdpi="127.79936"
       inkscape:export-ydpi="127.79936" />
    <path
       d="m 668.06717,-98.76799 a 4.2217593,4.2217593 0 0 1 4.2386,4.2035 4.2217593,4.2217593 0 0 1 -4.20215,4.239939 4.2217593,4.2217593 0 0 1 -4.24128,-4.200784 4.2217593,4.2217593 0 0 1 4.19942,-4.24263"
       sodipodi:open="true"
       sodipodi:end="4.7071112"
       sodipodi:start="4.7083922"
       sodipodi:ry="4.2217593"
       sodipodi:rx="4.2217593"
       sodipodi:cy="-94.546265"
       sodipodi:cx="668.08405"
       sodipodi:type="arc"
       id="path4752-9"
       style="opacity:1;vector-effect:none;fill:none;fill-opacity:1;stroke:#000000;stroke-width:0.26511249;stroke-linecap:butt;stroke-linejoin:miter;stroke-miterlimit:4;stroke-dasharray:none;stroke-dashoffset:0;stroke-opacity:1"
       inkscape:export-xdpi="127.79936"
       inkscape:export-ydpi="127.79936" />
    <path
       sodipodi:nodetypes="ccccccccc"
       inkscape:connector-curvature="0"
       id="path4774-3"
       d="m 648.23008,-120.50313 0.006,-0.19172 h 29.77906 5.85029 v -6.48023 -1.49345 h -29.72841 -5.90661 z"
       style="opacity:1;vector-effect:none;fill:#af2e1e;fill-opacity:1;stroke:none;stroke-width:0.26458332;stroke-linecap:butt;stroke-linejoin:miter;stroke-miterlimit:4;stroke-dasharray:none;stroke-dashoffset:0;stroke-opacity:1"
       inkscape:export-xdpi="127.79936"
       inkscape:export-ydpi="127.79936" />
    <path
       inkscape:connector-curvature="0"
       style="opacity:1;vector-effect:none;fill:none;fill-opacity:1;stroke:#000000;stroke-width:0.26458332;stroke-linecap:butt;stroke-linejoin:miter;stroke-miterlimit:4;stroke-dasharray:none;stroke-dashoffset:0;stroke-opacity:1"
       d="m 696.38631,-49.559662 c 1.7412,-5.28355 2.77064,-10.89544 2.97966,-16.72404 v -4.42661 c -1.15742,-32.271718 -27.51013,-57.905508 -60.07436,-57.905508 -6.65888,0 -13.05709,1.07445 -19.0345,3.05563"
       id="rect4877-9"
       sodipodi:nodetypes="cccsc"
       inkscape:export-xdpi="127.79936"
       inkscape:export-ydpi="127.79936" />
    <path
       inkscape:connector-curvature="0"
       style="opacity:1;vector-effect:none;fill:none;fill-opacity:1;stroke:#000000;stroke-width:0.26458332;stroke-linecap:butt;stroke-linejoin:miter;stroke-miterlimit:4;stroke-dasharray:none;stroke-dashoffset:0;stroke-opacity:1"
       d="m 663.83687,-49.559662 c 9.232,-7.25439 15.14224,-18.52805 15.14224,-31.232718 0,-21.98688 -17.70063,-39.6875 -39.6875,-39.6875 -6.90655,0 -13.3896,1.74769 -19.0345,4.82503"
       id="rect4858-2"
       sodipodi:nodetypes="cssc"
       inkscape:export-xdpi="127.79936"
       inkscape:export-ydpi="127.79936" />
    <path
       style="opacity:1;vector-effect:none;fill:#af2e1e;fill-opacity:1;stroke:none;stroke-width:0.26458332;stroke-linecap:butt;stroke-linejoin:miter;stroke-miterlimit:4;stroke-dasharray:none;stroke-dashoffset:0;stroke-opacity:1"
       d="m 639.42218,-128.66853 0.0177,8.26825 v 64.935548 c 0.014,3.24617 -2.6057,5.88933 -5.85184,5.90455 h 5.85184 8.79015 5.90661 c -3.24636,0.015 -5.89053,-2.60392 -5.90661,-5.85028 v -31.108184 h 19.87372 c 2.33098,0.01098 4.21172,1.909067 4.20182,4.240051 v -4.240051 -3.805968 -4.240053 c 0.01,2.330984 -1.87084,4.229068 -4.20182,4.240053 h -19.87373 v -30.178516 c 0,-0.0643 0.003,-0.1279 0.006,-0.19172 h 29.77907 c 3.24636,0.0161 5.86528,2.66025 5.85028,5.90661 v -5.90661 -6.48023 -1.49345 h -29.7284 -5.90661 z"
       id="path5076-0-8"
       inkscape:connector-curvature="0"
       sodipodi:nodetypes="cccccccccccccccccccccccccc"
       inkscape:export-xdpi="127.79936"
       inkscape:export-ydpi="127.79936" />
    <path
       style="opacity:1;vector-effect:none;fill:#af2e1e;fill-opacity:1;stroke:none;stroke-width:0.33596921;stroke-linecap:butt;stroke-linejoin:miter;stroke-miterlimit:4;stroke-dasharray:none;stroke-dashoffset:0;stroke-opacity:1"
       d="m 639.29161,-128.61582 c -6.65888,0 -13.05711,1.07444 -19.0345,3.05563 l 6.08038,2.75438 -6.08038,7.15096 c 5.6449,-3.07734 12.12795,-4.82503 19.0345,-4.82503 0.0496,0 0.0988,0.002 0.14832,0.002 l -0.0175,-8.13645 c -0.0437,-1e-4 -0.087,-0.002 -0.13073,-0.002 z"
       id="rect4881-3"
       inkscape:connector-curvature="0"
       sodipodi:nodetypes="ccccsccsc"
       inkscape:export-xdpi="127.79936"
       inkscape:export-ydpi="127.79936" />
    <path
       inkscape:connector-curvature="0"
       style="opacity:1;vector-effect:none;fill:#af2e1e;fill-opacity:1;stroke:#000000;stroke-width:0.26458332;stroke-linecap:butt;stroke-linejoin:miter;stroke-miterlimit:4;stroke-dasharray:none;stroke-dashoffset:0;stroke-opacity:1"
       d="m 639.42234,-128.66853 v 0.0543 c -0.0437,-9e-5 -0.087,-0.002 -0.13073,-0.002 -6.65888,0 -13.05711,1.07444 -19.0345,3.05563 l 6.08025,2.75439 -6.08025,7.15099 c 5.6449,-3.07735 12.12795,-4.82503 19.0345,-4.82503 0.0496,0 0.0988,0.002 0.14832,0.002 v 0.0775 64.935558 c 0.014,3.24618 -2.60569,5.88933 -5.85184,5.90455 h 5.85184 8.79015 5.90661 c -3.24636,0.015 -5.89052,-2.60392 -5.90661,-5.85028 v -31.108194 h 19.87373 c 2.33098,0.01098 4.21169,1.909067 4.20182,4.240051 v -4.240051 -3.805968 -4.240053 c 0.01,2.330984 -1.87084,4.229068 -4.20182,4.240053 H 648.23008 V -120.5036 c 0,-0.0643 0.003,-0.1279 0.006,-0.19172 h 29.77906 c 3.24636,0.0161 5.86529,2.66025 5.85029,5.90661 v -5.90661 -6.48023 -1.49345 h -29.72841 -5.90661 z"
       id="path4890-0"
       inkscape:export-xdpi="127.79936"
       inkscape:export-ydpi="127.79936" />
  </g>
</svg>
