<?xml version="1.0" encoding="UTF-8" standalone="no"?>
<!-- Created with Inkscape (http://www.inkscape.org/) -->

<svg
   xmlns:dc="http://purl.org/dc/elements/1.1/"
   xmlns:cc="http://creativecommons.org/ns#"
   xmlns:rdf="http://www.w3.org/1999/02/22-rdf-syntax-ns#"
   xmlns:svg="http://www.w3.org/2000/svg"
   xmlns="http://www.w3.org/2000/svg"
   xmlns:sodipodi="http://sodipodi.sourceforge.net/DTD/sodipodi-0.dtd"
   xmlns:inkscape="http://www.inkscape.org/namespaces/inkscape"
   width="51.555859mm"
   height="20.526546mm"
   viewBox="0 0 51.555859 20.526546"
   version="1.1"
   id="svg8"
   inkscape:version="0.92.4 (5da689c313, 2019-01-14)"
   sodipodi:docname="cigarette.svg">
  <defs
     id="defs2" />
  <sodipodi:namedview
     id="base"
     pagecolor="#ffffff"
     bordercolor="#666666"
     borderopacity="1.0"
     inkscape:pageopacity="0.0"
     inkscape:pageshadow="2"
     inkscape:zoom="0.76699219"
     inkscape:cx="-123.17766"
     inkscape:cy="-121.55599"
     inkscape:document-units="mm"
     inkscape:current-layer="layer1"
     showgrid="false"
     fit-margin-top="0"
     fit-margin-left="0"
     fit-margin-right="0"
     fit-margin-bottom="0"
     inkscape:window-width="1362"
     inkscape:window-height="725"
     inkscape:window-x="0"
     inkscape:window-y="41"
     inkscape:window-maximized="0" />
  <metadata
     id="metadata5">
    <rdf:RDF>
      <cc:Work
         rdf:about="">
        <dc:format>image/svg+xml</dc:format>
        <dc:type
           rdf:resource="http://purl.org/dc/dcmitype/StillImage" />
        <dc:title></dc:title>
      </cc:Work>
    </rdf:RDF>
  </metadata>
  <g
     inkscape:label="Layer 1"
     inkscape:groupmode="layer"
     id="layer1"
     transform="translate(-32.520684,-96.145096)">
    <g
       id="g6656"
       transform="matrix(0.68379253,0,0,0.78070728,173.98103,83.646269)">
      <path
         inkscape:connector-curvature="0"
         id="path4765"
         d="m -167.65435,32.824756 v 9.476938 h 1.72288 v -1.874819 -0.57826 c 0.4738,0.2906 1.00545,0.473761 1.55702,0.53743 l 1.0635,1.915649 h 1.33843 l -1.10539,-1.990579 c 0.17124,-0.0402 0.34187,-0.0892 0.50954,-0.154509 1.69209,-0.659151 2.68298,-2.438361 2.35283,-4.224031 -0.33014,-1.785689 -1.89187,-3.093139 -3.70779,-3.103689 l -2.00814,-0.004 v -5.03e-4 h -0.14263 z m 1.72288,1.505329 1.99935,0.004 c 1.10303,0.007 2.03653,0.78759 2.23709,1.87224 0.20053,1.08466 -0.39174,2.14778 -1.41954,2.54816 -1.02783,0.40037 -2.18335,0.0182 -2.76935,-0.91622 l -0.0476,-0.076 v -3.41685 z"
         style="color:#000000;font-style:normal;font-variant:normal;font-weight:normal;font-stretch:normal;font-size:medium;line-height:normal;font-family:sans-serif;font-variant-ligatures:normal;font-variant-position:normal;font-variant-caps:normal;font-variant-numeric:normal;font-variant-alternates:normal;font-feature-settings:normal;text-indent:0;text-align:start;text-decoration:none;text-decoration-line:none;text-decoration-style:solid;text-decoration-color:#000000;letter-spacing:normal;word-spacing:normal;text-transform:none;writing-mode:lr-tb;direction:ltr;text-orientation:mixed;dominant-baseline:auto;baseline-shift:baseline;text-anchor:start;white-space:normal;shape-padding:0;clip-rule:nonzero;display:inline;overflow:visible;visibility:visible;opacity:1;isolation:auto;mix-blend-mode:normal;color-interpolation:sRGB;color-interpolation-filters:linearRGB;solid-color:#000000;solid-opacity:1;vector-effect:none;fill:#000000;fill-opacity:1;fill-rule:nonzero;stroke:none;stroke-width:1.50509489;stroke-linecap:square;stroke-linejoin:miter;stroke-miterlimit:4;stroke-dasharray:none;stroke-dashoffset:0;stroke-opacity:1;color-rendering:auto;image-rendering:auto;shape-rendering:auto;text-rendering:auto;enable-background:accumulate" />
      <path
         inkscape:connector-curvature="0"
         id="rect4600"
         d="m -185.45876,32.824754 v 9.47694 h 5.37175 3.52227 v -3.568773 -1.169438 h -1.09863 -2.42364 v 1.169438 h 2.11564 a 3.0407504,3.0407504 0 0 1 -0.76999,0.982884 3.0407504,3.0407504 0 0 1 -4.27054,-0.360185 3.0407504,3.0407504 0 0 1 0.33126,-4.273124 l 0.063,-0.05219 a 3.0407504,3.0407504 0 0 1 2.53061,-0.622186 v -1.583364 z"
         style="opacity:1;vector-effect:none;fill:#000000;fill-opacity:1;stroke:none;stroke-width:0.30678803;stroke-linecap:round;stroke-linejoin:miter;stroke-miterlimit:4;stroke-dasharray:none;stroke-dashoffset:0;stroke-opacity:1" />
      <path
         inkscape:connector-curvature="0"
         id="rect4485"
         d="m -199.85286,42.301694 h 9.47694 v -5.37175 h -1.93683 a 3.0407504,3.0407504 0 0 1 -1.00924,2.92436 3.0407504,3.0407504 0 0 1 -4.27313,-0.33123 l -0.0522,-0.0626 a 3.0407504,3.0407504 0 0 1 -0.62218,-2.53058 h -1.58337 z"
         style="opacity:1;vector-effect:none;fill:#000000;fill-opacity:1;stroke:none;stroke-width:0.53581387;stroke-linecap:round;stroke-linejoin:miter;stroke-miterlimit:4;stroke-dasharray:none;stroke-dashoffset:0;stroke-opacity:1" />
      <path
         inkscape:connector-curvature="0"
         id="rect4703"
         d="m -175.30694,32.824754 c -0.023,0 -0.0413,0.01844 -0.0413,0.04134 v 9.394258 c -3e-5,0.02291 0.0185,0.04134 0.0413,0.04134 h 0.56946 0.51782 0.0413 v -0.04134 -3.527432 h 4.25349 v 3.527432 0.04134 h 0.0413 0.51782 0.56946 c 0.023,0 0.0413,-0.01844 0.0413,-0.04134 v -9.394258 c 0,-0.02291 -0.0185,-0.04134 -0.0413,-0.04134 h -0.56946 -0.51782 -4.33615 -0.51782 z m 3.28816,1.013891 a 2.1269432,2.1269432 0 0 1 1.6061,0.771012 2.1269432,2.1269432 0 0 1 0.48731,1.355473 v 0 1.598353 h -4.25349 v -1.598353 0 a 2.1269432,2.1269432 0 0 1 0.73742,-1.610754 l 0.0439,-0.03669 a 2.1269432,2.1269432 0 0 1 1.37768,-0.479041 z"
         style="opacity:1;vector-effect:none;fill:#000000;fill-opacity:1;stroke:none;stroke-width:0.53581387;stroke-linecap:round;stroke-linejoin:miter;stroke-miterlimit:4;stroke-dasharray:none;stroke-dashoffset:0;stroke-opacity:1" />
      <path
         inkscape:connector-curvature="0"
         id="rect4724"
         d="m -159.23608,32.824756 v 4.738729 h -0.27853 v 1.16943 h 0.27853 v 3.568779 h 5.37179 v -1.874819 h -3.64888 v -1.69396 h 3.64888 v -1.16943 h -3.64888 v -3.21841 h 3.64888 v -1.520319 z"
         style="opacity:1;vector-effect:none;fill:#000000;fill-opacity:1;stroke:none;stroke-width:0.53581387;stroke-linecap:round;stroke-linejoin:miter;stroke-miterlimit:4;stroke-dasharray:none;stroke-dashoffset:0;stroke-opacity:1" />
      <path
         sodipodi:nodetypes="ccccccccccccc"
         inkscape:connector-curvature="0"
         id="path4743"
         d="m -152.69456,32.824866 v 1.520279 h 2.64548 v 6.081529 1.875192 h 1.72312 v -1.875192 -6.081529 h 2.64548 v -1.520279 h -2.64548 -1.72312 z"
         style="opacity:1;vector-effect:none;fill:#000000;fill-opacity:1;stroke:none;stroke-width:0.53581387;stroke-linecap:round;stroke-linejoin:miter;stroke-miterlimit:4;stroke-dasharray:none;stroke-dashoffset:0;stroke-opacity:1" />
      <path
         style="opacity:1;vector-effect:none;fill:#000000;fill-opacity:1;stroke:none;stroke-width:0.53581387;stroke-linecap:round;stroke-linejoin:miter;stroke-miterlimit:4;stroke-dasharray:none;stroke-dashoffset:0;stroke-opacity:1"
         d="m -144.80497,32.824866 v 1.520279 h 2.64549 v 6.081529 1.875192 h 1.72312 v -1.875192 -6.081529 h 2.64548 v -1.520279 h -2.64548 -1.72312 z"
         id="path4750"
         inkscape:connector-curvature="0"
         sodipodi:nodetypes="ccccccccccccc" />
      <g
         transform="matrix(-0.77994573,-1.2592369,-1.2592369,0.77994573,183.65022,337.5523)"
         id="g5003">
        <rect
           ry="0.20811638"
           y="109.28284"
           x="313.02158"
           height="4.1390109"
           width="4.6675858"
           id="rect4961"
           style="opacity:1;vector-effect:none;fill:#ffffff;fill-opacity:1;stroke:#000000;stroke-width:0.05016984;stroke-linecap:round;stroke-linejoin:miter;stroke-miterlimit:4;stroke-dasharray:none;stroke-dashoffset:0;stroke-opacity:1" />
        <g
           id="g4975"
           transform="matrix(0.18961826,0,0,0.18961826,335.32926,89.115376)">
          <path
             style="opacity:1;vector-effect:none;fill:#ffffff;fill-opacity:1;stroke:#000000;stroke-width:0.99999994;stroke-linecap:round;stroke-linejoin:miter;stroke-miterlimit:4;stroke-dasharray:none;stroke-dashoffset:0;stroke-opacity:1"
             d="m -361.19336,396.09375 v 5.89063 h 5.4375 c 0.1493,0 0.29041,0.0277 0.43555,0.043 v -5.93359 z"
             transform="scale(0.26458333)"
             id="path4963"
             inkscape:connector-curvature="0" />
          <path
             style="opacity:1;vector-effect:none;fill:#ffffff;fill-opacity:1;stroke:#000000;stroke-width:0.26458332;stroke-linecap:round;stroke-linejoin:miter;stroke-miterlimit:4;stroke-dasharray:none;stroke-dashoffset:0;stroke-opacity:1"
             id="path4965"
             sodipodi:type="arc"
             sodipodi:cx="-114.81026"
             sodipodi:cy="103.85416"
             sodipodi:rx="2.0552454"
             sodipodi:ry="2.0552454"
             sodipodi:start="4.0279058"
             sodipodi:end="4.0010277"
             sodipodi:open="true"
             d="m -116.10973,102.26186 a 2.0552454,2.0552454 0 0 1 2.883,0.28215 2.0552454,2.0552454 0 0 1 -0.26277,2.88483 2.0552454,2.0552454 0 0 1 -2.88653,-0.24338 2.0552454,2.0552454 0 0 1 0.22397,-2.8881" />
          <path
             style="opacity:1;vector-effect:none;fill:#ffffff;fill-opacity:1;stroke:#000000;stroke-width:0.99999994;stroke-linecap:round;stroke-linejoin:miter;stroke-miterlimit:4;stroke-dasharray:none;stroke-dashoffset:0;stroke-opacity:1"
             d="m -422.72656,380.37695 c -2.29813,0 -4.14844,1.85032 -4.14844,4.14844 v 16.79297 c 0,0.22833 0.0313,0.44791 0.0664,0.66602 h 24.33203 c 0.0351,-0.21811 0.0664,-0.43769 0.0664,-0.66602 v -16.79297 c 0,-2.29812 -1.85031,-4.14844 -4.14843,-4.14844 z m -0.01,1.2793 c 0.58356,0.009 1.19339,0.3008 1.60547,0.79883 0.77405,0.93596 0.64751,2.3212 -0.2832,3.10156 -0.93056,0.78059 -2.3167,0.66362 -3.10352,-0.26172 -0.78705,-0.92526 -0.67985,-2.31233 0.24024,-3.10547 l 0.0469,-0.0371 c 0.40358,-0.32965 0.91058,-0.50365 1.49414,-0.49609 z m 8.19141,0 c 0.58356,0.009 1.19338,0.3008 1.60547,0.79883 0.77404,0.93596 0.6475,2.3212 -0.28321,3.10156 -0.93055,0.78059 -2.31669,0.66362 -3.10351,-0.26172 -0.7866,-0.92576 -0.67847,-2.3129 0.24219,-3.10547 l 0.0449,-0.0371 c 0.40358,-0.32965 0.91058,-0.50365 1.49414,-0.49609 z m 8.1914,0 c 0.58356,0.009 1.19339,0.3008 1.60547,0.79883 0.7745,0.93547 0.64889,2.32063 -0.28125,3.10156 -0.93055,0.78059 -2.31669,0.66362 -3.10351,-0.26172 -0.78705,-0.92526 -0.67986,-2.31233 0.24023,-3.10547 l 0.0449,-0.0371 c 0.40358,-0.32965 0.91059,-0.50365 1.49414,-0.49609 z m -12.00781,6.91992 c 0.58356,0.009 1.19339,0.30076 1.60547,0.79883 0.77409,0.93596 0.64754,2.3212 -0.2832,3.10156 -0.93056,0.78059 -2.3167,0.66363 -3.10352,-0.26172 -0.78705,-0.92526 -0.67985,-2.31233 0.24024,-3.10546 l 0.0469,-0.0371 c 0.40358,-0.32969 0.91058,-0.50366 1.49414,-0.4961 z m 8.19141,0 c 0.58356,0.009 1.19338,0.30076 1.60547,0.79883 0.77408,0.93596 0.64754,2.3212 -0.28321,3.10156 -0.93055,0.78059 -2.31669,0.66363 -3.10351,-0.26172 -0.7866,-0.92575 -0.67847,-2.3129 0.24219,-3.10546 l 0.0449,-0.0371 c 0.40358,-0.32969 0.91058,-0.50366 1.49414,-0.4961 z m -12.56641,7.1875 c 0.58356,0.009 1.19339,0.30076 1.60547,0.79883 0.77405,0.93596 0.64751,2.3212 -0.2832,3.10156 -0.93056,0.78059 -2.3167,0.66363 -3.10352,-0.26172 -0.78705,-0.92526 -0.67985,-2.31233 0.24024,-3.10546 l 0.0469,-0.0371 c 0.40358,-0.32969 0.91058,-0.50366 1.49414,-0.4961 z m 8.19141,0 c 0.58356,0.009 1.19338,0.30076 1.60547,0.79883 0.77404,0.93596 0.6475,2.3212 -0.28321,3.10156 -0.93055,0.78059 -2.31669,0.66363 -3.10351,-0.26172 -0.7866,-0.92575 -0.67847,-2.3129 0.24219,-3.10546 l 0.0449,-0.0371 c 0.40358,-0.32969 0.91058,-0.50366 1.49414,-0.4961 z m 8.1914,0 c 0.58356,0.009 1.19339,0.30076 1.60547,0.79883 0.7745,0.93547 0.64889,2.32064 -0.28125,3.10156 -0.93055,0.78059 -2.31669,0.66363 -3.10351,-0.26172 -0.78705,-0.92526 -0.67986,-2.31233 0.24023,-3.10546 l 0.0449,-0.0371 c 0.40358,-0.32969 0.91059,-0.50366 1.49414,-0.4961 z"
             transform="scale(0.26458333)"
             id="path4967"
             inkscape:connector-curvature="0" />
          <path
             style="color:#000000;font-style:normal;font-variant:normal;font-weight:normal;font-stretch:normal;font-size:medium;line-height:normal;font-family:sans-serif;font-variant-ligatures:normal;font-variant-position:normal;font-variant-caps:normal;font-variant-numeric:normal;font-variant-alternates:normal;font-feature-settings:normal;text-indent:0;text-align:start;text-decoration:none;text-decoration-line:none;text-decoration-style:solid;text-decoration-color:#000000;letter-spacing:normal;word-spacing:normal;text-transform:none;writing-mode:lr-tb;direction:ltr;text-orientation:mixed;dominant-baseline:auto;baseline-shift:baseline;text-anchor:start;white-space:normal;shape-padding:0;clip-rule:nonzero;display:inline;overflow:visible;visibility:visible;opacity:1;isolation:auto;mix-blend-mode:normal;color-interpolation:sRGB;color-interpolation-filters:linearRGB;solid-color:#000000;solid-opacity:1;vector-effect:none;fill:#000000;fill-opacity:1;fill-rule:nonzero;stroke:#000100;stroke-width:0.99999994;stroke-linecap:round;stroke-linejoin:round;stroke-miterlimit:4;stroke-dasharray:none;stroke-dashoffset:0;stroke-opacity:1;color-rendering:auto;image-rendering:auto;shape-rendering:auto;text-rendering:auto;enable-background:accumulate"
             d="m -426.78711,383.28711 c -0.63934,0 -1.27873,0.24223 -1.64453,0.72656 l -5.49805,7.29102 c -0.72805,0.96937 0.18439,2.18028 1.64453,2.18164 h 5.41016 v -8.96094 c 0,-0.43047 0.0825,-0.83675 0.20312,-1.22656 -0.0387,-0.002 -0.0764,-0.0117 -0.11523,-0.0117 z"
             transform="scale(0.26458333)"
             id="path4969"
             inkscape:connector-curvature="0" />
          <path
             style="opacity:1;vector-effect:none;fill:#ffffff;fill-opacity:1;stroke:#000100;stroke-width:0.99999994;stroke-linecap:round;stroke-linejoin:round;stroke-miterlimit:4;stroke-dasharray:none;stroke-dashoffset:0;stroke-opacity:1"
             d="m -399.89062,384.85547 c -1.39663,0 -2.51954,1.12486 -2.51954,2.52148 v 14.60743 h 5.04102 v -14.60743 c 0,-1.39662 -1.12486,-2.52148 -2.52148,-2.52148 z"
             transform="scale(0.26458333)"
             id="path4971"
             inkscape:connector-curvature="0" />
          <path
             d="m -105.99426,102.37858 a 0.30067819,0.30067819 0 0 1 0.42177,0.0413 0.30067819,0.30067819 0 0 1 -0.0384,0.42205 0.30067819,0.30067819 0 0 1 -0.42229,-0.0356 0.30067819,0.30067819 0 0 1 0.0328,-0.42252"
             sodipodi:open="true"
             sodipodi:end="4.0010277"
             sodipodi:start="4.0279058"
             sodipodi:ry="0.30067819"
             sodipodi:rx="0.30067819"
             sodipodi:cy="102.61153"
             sodipodi:cx="-105.80415"
             sodipodi:type="arc"
             id="path4973"
             style="opacity:1;vector-effect:none;fill:none;fill-opacity:1;stroke:#000000;stroke-width:0.26458332;stroke-linecap:round;stroke-linejoin:miter;stroke-miterlimit:4;stroke-dasharray:none;stroke-dashoffset:0;stroke-opacity:1" />
        </g>
        <rect
           inkscape:transform-center-y="0.01407045"
           inkscape:transform-center-x="-2.0198097"
           style="opacity:1;vector-effect:none;fill:#ffffff;fill-opacity:1;stroke:#000000;stroke-width:0.05016984;stroke-linecap:round;stroke-linejoin:miter;stroke-miterlimit:4;stroke-dasharray:none;stroke-dashoffset:0;stroke-opacity:1"
           id="rect4977"
           width="4.6675858"
           height="2.0991743"
           x="-268.02051"
           y="-210.70021"
           ry="0.20811638"
           transform="rotate(160.60022)" />
        <path
           style="opacity:1;vector-effect:none;fill:#ffffff;fill-opacity:1;stroke:#000000;stroke-width:0.05016984;stroke-linecap:round;stroke-linejoin:miter;stroke-miterlimit:4;stroke-dasharray:none;stroke-dashoffset:0;stroke-opacity:1"
           d="m 317.8418,108.91467 0.10071,0.27784 0.25644,-0.0931 c 0.007,-0.003 0.0142,-0.004 0.0213,-0.006 l -0.10155,-0.27986 z"
           id="path4979"
           inkscape:connector-curvature="0" />
        <rect
           transform="rotate(-11.408113)"
           ry="0.13933471"
           y="169.39377"
           x="289.39902"
           height="0.29534721"
           width="0.91516399"
           id="rect4981"
           style="opacity:1;vector-effect:none;fill:#ffffff;fill-opacity:1;stroke:#000000;stroke-width:0.05016984;stroke-linecap:square;stroke-linejoin:miter;stroke-miterlimit:4;stroke-dasharray:none;stroke-dashoffset:0;stroke-opacity:1" />
        <path
           sodipodi:nodetypes="ccccccc"
           inkscape:connector-curvature="0"
           id="path4983"
           d="m 314.45243,107.9413 c 1.5386,-0.26315 1.6554,-1.69269 2.03985,-2.35685 -0.702,0.30999 -1.88048,0.78328 -2.23353,2.37485 l -0.15866,0.0243 c 0.52597,-2.65479 2.97598,-3.29964 4.17178,-3.79158 -1.57508,1.29337 -1.12333,3.3474 -3.63796,3.76732 z"
           style="fill:#000000;fill-opacity:1;fill-rule:evenodd;stroke:#000000;stroke-width:0.05016984px;stroke-linecap:butt;stroke-linejoin:miter;stroke-opacity:1" />
      </g>
      <path
         inkscape:connector-curvature="0"
         style="opacity:1;vector-effect:none;fill:#000000;fill-opacity:1;stroke:none;stroke-width:0.53581387;stroke-linecap:round;stroke-linejoin:miter;stroke-miterlimit:4;stroke-dasharray:none;stroke-dashoffset:0;stroke-opacity:1"
         d="m -136.85099,32.824756 v 4.738729 h -0.27851 v 1.16943 h 0.27851 v 3.568779 h 5.3718 v -1.874819 h -3.64888 v -1.69396 h 3.64888 v -1.16943 h -3.64888 v -3.21841 h 3.64888 v -1.520319 z"
         id="path5037" />
      <path
         sodipodi:nodetypes="ssccsssccccc"
         inkscape:connector-curvature="0"
         id="rect4691"
         d="m -186.98583,29.223891 c -0.0142,-0.01812 -0.04,-0.02118 -0.058,-0.0071 l -1.16348,0.909722 0.72066,0.921666 1.16347,-0.909721 c 0.018,-0.01411 0.0212,-0.04004 0.007,-0.058 z m -1.48447,1.108277 -5.57353,4.357941 0.72065,0.921666 5.57353,-4.357941 z"
         style="opacity:1;vector-effect:none;fill:#000000;fill-opacity:1;stroke:none;stroke-width:0.08831526;stroke-linecap:round;stroke-linejoin:round;stroke-miterlimit:4;stroke-dasharray:none;stroke-dashoffset:0;stroke-opacity:1" />
      <path
         inkscape:connector-curvature="0"
         id="rect5039"
         d="m -194.90994,39.051318 0.0574,0.174006 1.11095,-0.366875 -0.0574,-0.174006 z"
         style="opacity:1;vector-effect:none;fill:#000000;fill-opacity:1;stroke:none;stroke-width:0.01554253;stroke-linecap:round;stroke-linejoin:round;stroke-miterlimit:4;stroke-dasharray:none;stroke-dashoffset:0;stroke-opacity:1" />
      <path
         inkscape:transform-center-y="-0.20744081"
         inkscape:transform-center-x="0.3621823"
         style="opacity:1;vector-effect:none;fill:#000000;fill-opacity:1;stroke:none;stroke-width:0.01554253;stroke-linecap:round;stroke-linejoin:round;stroke-miterlimit:4;stroke-dasharray:none;stroke-dashoffset:0;stroke-opacity:1"
         d="m -194.83502,37.032401 -0.0734,0.167892 1.07204,0.468548 0.0734,-0.167892 z"
         id="path5046"
         inkscape:connector-curvature="0" />
      <path
         inkscape:connector-curvature="0"
         id="path5048"
         d="m -194.49422,35.577938 -0.12316,0.135668 0.86627,0.786373 0.12316,-0.135668 z"
         style="opacity:1;vector-effect:none;fill:#000000;fill-opacity:1;stroke:none;stroke-width:0.01554253;stroke-linecap:round;stroke-linejoin:round;stroke-miterlimit:4;stroke-dasharray:none;stroke-dashoffset:0;stroke-opacity:1" />
      <path
         style="opacity:1;vector-effect:none;fill:#ffffff;fill-opacity:1;stroke:none;stroke-width:0.08831526;stroke-linecap:round;stroke-linejoin:round;stroke-miterlimit:4;stroke-dasharray:none;stroke-dashoffset:0;stroke-opacity:1"
         d="m -187.7182,29.930875 0.72065,0.921666 -0.26298,0.205627 -0.72065,-0.921667 z"
         id="path5053"
         inkscape:connector-curvature="0"
         sodipodi:nodetypes="ccccc" />
    </g>
  </g>
</svg>
