<?xml version="1.0" encoding="UTF-8" standalone="no"?>
<!-- Created with Inkscape (http://www.inkscape.org/) -->

<svg
   xmlns:dc="http://purl.org/dc/elements/1.1/"
   xmlns:cc="http://creativecommons.org/ns#"
   xmlns:rdf="http://www.w3.org/1999/02/22-rdf-syntax-ns#"
   xmlns:svg="http://www.w3.org/2000/svg"
   xmlns="http://www.w3.org/2000/svg"
   xmlns:xlink="http://www.w3.org/1999/xlink"
   xmlns:sodipodi="http://sodipodi.sourceforge.net/DTD/sodipodi-0.dtd"
   xmlns:inkscape="http://www.inkscape.org/namespaces/inkscape"
   width="63.87851mm"
   height="63.878513mm"
   id="svg2"
   version="1.1"
   inkscape:version="0.92.1 r15371"
   sodipodi:docname="farir.svg"
   inkscape:export-filename="/home/fauve/art/animated-ideotext/chellah.png"
   inkscape:export-xdpi="176.77838"
   inkscape:export-ydpi="176.77838">
  <sodipodi:namedview
     id="base"
     pagecolor="#ffffff"
     bordercolor="#666666"
     borderopacity="1.0"
     inkscape:pageopacity="0.0"
     inkscape:pageshadow="2"
     inkscape:zoom="1.114808"
     inkscape:cx="264.56933"
     inkscape:cy="-25.450582"
     inkscape:document-units="px"
     inkscape:current-layer="layer1"
     showgrid="false"
     showguides="true"
     inkscape:guide-bbox="true"
     inkscape:snap-global="true"
     inkscape:window-width="1916"
     inkscape:window-height="1039"
     inkscape:window-x="0"
     inkscape:window-y="39"
     inkscape:window-maximized="0"
     fit-margin-top="0"
     fit-margin-left="0"
     fit-margin-right="0"
     fit-margin-bottom="0" />
  <defs
     id="defs4">
    <linearGradient
       id="linearGradient5946">
      <stop
         id="stop5942"
         offset="0"
         style="stop-color:#6b2105;stop-opacity:1" />
      <stop
         id="stop5944"
         offset="1"
         style="stop-color:#c65902;stop-opacity:1" />
    </linearGradient>
    <linearGradient
       id="linearGradient4156">
      <stop
         id="stop5935"
         offset="0"
         style="stop-color:#f1c617;stop-opacity:1" />
      <stop
         id="stop5937"
         offset="1"
         style="stop-color:#b97001;stop-opacity:1" />
    </linearGradient>
    <linearGradient
       id="linearGradient5892">
      <stop
         id="stop5888"
         offset="0"
         style="stop-color:#786107;stop-opacity:1" />
      <stop
         id="stop5890"
         offset="1"
         style="stop-color:#4e2f00;stop-opacity:1" />
    </linearGradient>
    <linearGradient
       id="linearGradient4189">
      <stop
         style="stop-color:#1c1c1c;stop-opacity:1;"
         offset="0"
         id="stop4191" />
      <stop
         style="stop-color:#212121;stop-opacity:1;"
         offset="1"
         id="stop4193" />
    </linearGradient>
    <linearGradient
       id="linearGradient4156-3">
      <stop
         style="stop-color:#f1c617;stop-opacity:1"
         offset="0"
         id="stop4158" />
      <stop
         style="stop-color:#b97001;stop-opacity:1"
         offset="1"
         id="stop4160" />
    </linearGradient>
    <clipPath
       clipPathUnits="userSpaceOnUse"
       id="clipPath4207">
      <path
         id="path4209"
         d="m 279.42551,2274.6205 -12.66666,-33.1777 0.24468,-15.9289 h 29.84304 l 0.31228,15.9289 -12.64444,33.1777 h -5.0889"
         inkscape:connector-curvature="0"
         sodipodi:nodetypes="ccccccc"
         style="fill:none;stroke-width:1.13777781" />
    </clipPath>
    <clipPath
       clipPathUnits="userSpaceOnUse"
       id="clipPath4663">
      <rect
         style="opacity:1;vector-effect:none;fill:#000000;fill-opacity:1;stroke:#000000;stroke-width:0.5;stroke-linecap:butt;stroke-linejoin:round;stroke-miterlimit:4;stroke-dasharray:none;stroke-dashoffset:0;stroke-opacity:1;paint-order:normal"
         id="rect4665"
         width="102.88403"
         height="131.52185"
         x="3034.9138"
         y="922.72839" />
    </clipPath>
    <linearGradient
       inkscape:collect="always"
       xlink:href="#linearGradient5892"
       id="linearGradient5905"
       x1="194.87662"
       y1="282.50073"
       x2="194.87662"
       y2="261.41074"
       gradientUnits="userSpaceOnUse" />
    <linearGradient
       inkscape:collect="always"
       xlink:href="#linearGradient5892"
       id="linearGradient6001"
       x1="194.87662"
       y1="265.80893"
       x2="194.87662"
       y2="239.12273"
       gradientUnits="userSpaceOnUse" />
    <linearGradient
       inkscape:collect="always"
       xlink:href="#linearGradient5892"
       id="linearGradient6075"
       x1="194.87662"
       y1="244.48969"
       x2="194.87662"
       y2="286.93954"
       gradientUnits="userSpaceOnUse" />
    <clipPath
       clipPathUnits="userSpaceOnUse"
       id="clipPath6426">
      <path
         style="opacity:1;vector-effect:none;fill:#327f7f;fill-opacity:1;stroke:none;stroke-width:1;stroke-linecap:butt;stroke-linejoin:miter;stroke-miterlimit:4;stroke-dasharray:none;stroke-dashoffset:0;stroke-opacity:1"
         d="m 2964.0525,541.87744 v 15.30859 l 8.7578,7.92188 v 13.58984 l 10.0274,-4.51758 10.0273,9.07032 10.0273,9.07031 10.0274,9.07226 10.0254,9.07032 10.0273,9.07031 10.0274,9.07031 v 13.58985 l 10.0273,-4.51758 10.0254,9.07031 11.2969,-5.08984 -10.0274,-9.07032 -10.0273,-9.07226 -10.0274,-9.07031 -10.0254,-9.07032 -10.0273,-9.07031 -10.0273,-9.07031 -10.0274,-9.07227 -10.0273,-9.07031 -10.0274,-9.07227 -10.0273,-9.07031 z"
         id="path6428"
         inkscape:connector-curvature="0" />
    </clipPath>
  </defs>
  <metadata
     id="metadata7">
    <rdf:RDF>
      <cc:Work
         rdf:about="">
        <dc:format>image/svg+xml</dc:format>
        <dc:type
           rdf:resource="http://purl.org/dc/dcmitype/StillImage" />
        <dc:title></dc:title>
      </cc:Work>
    </rdf:RDF>
  </metadata>
  <g
     inkscape:label="Calque 1"
     inkscape:groupmode="layer"
     id="layer1"
     transform="translate(-2837.477,-454.53956)">
    <g
       id="g6853"
       transform="matrix(0.34934308,0,0,0.34934308,1252.5463,257.29755)"
       style="stroke:#000000;stroke-width:2.86251545;stroke-miterlimit:4;stroke-dasharray:none;stroke-opacity:1">
      <path
         style="opacity:1;vector-effect:none;fill:#100f0f;fill-opacity:1;stroke:#000000;stroke-width:2.86251545;stroke-linecap:round;stroke-linejoin:miter;stroke-miterlimit:4;stroke-dasharray:none;stroke-dashoffset:0;stroke-opacity:1;paint-order:normal"
         d="m 1826.4336,870.9375 h 20.8555 20.8554 20.8555 20.8555 v 20.85742 H 1889 h -20.8555 -20.8554 -20.8555 v 0 h -20.8535 v 0 h -20.8555 -20.8555 V 870.9375 850.08203 829.22656 808.37109 787.51562 766.66016 h -20.8554 v 20.85546 20.85547 20.85547 20.85547 20.85547 20.85742 20.85547 h 20.8554 20.8555 20.8555 v 0 h 20.8535 v 0 h 20.8555 20.8554 20.8555 20.8555 20.8554 20.8555 20.8555 20.8554 20.8555 20.8555 20.8555 20.8554 20.8555 20.8574 20.8555 20.8554 20.8555 20.8555 20.8555 20.8554 20.8555 20.8555 20.8554 20.8555 20.8555 20.8554 20.8575 20.8554 20.8555 V 891.79492 870.9375 850.08203 829.22656 808.37109 787.51562 766.66016 745.80469 724.94922 704.09375 683.23828 662.38281 641.52734 620.67188 599.81641 578.95898 558.10352 537.24805 516.39258 495.53711 474.68164 453.82617 432.9707 412.11523 391.25977 370.4043 349.54883 328.69336 307.83789 286.98047 266.125 245.26953 224.41406 h -20.8555 -20.8554 -20.8575 -20.8554 -20.8555 -20.8555 -20.8554 -20.8555 -20.8555 -20.8554 -20.8555 -20.8555 -20.8555 -20.8554 -20.8555 -20.8574 -20.8555 -20.8554 -20.8555 -20.8555 -20.8555 -20.8554 -20.8555 -20.8555 -20.8554 -20.8555 -20.8555 -20.8554 -20.8555 -20.8555 -20.8574 -20.8555 -20.8554 v 20.85547 20.85547 20.85547 20.85547 20.85742 20.85547 20.85547 20.85547 20.85546 20.85547 20.85547 20.85547 20.85547 20.85547 20.85547 20.85547 20.85546 20.85743 20.85547 20.85546 20.85547 20.85547 20.85547 20.85547 20.85547 h 20.8554 20.8555 20.8555 20.8554 v -20.85547 h -20.8554 -20.8555 -20.8555 V 704.09375 683.23828 662.38281 641.52734 620.67188 599.81641 578.95898 558.10352 537.24805 516.39258 495.53711 474.68164 453.82617 432.9707 412.11523 391.25977 370.4043 349.54883 328.69336 307.83594 286.98047 266.125 245.26953 h 20.8555 20.8574 20.8555 20.8555 20.8554 20.8555 20.8555 20.8554 20.8555 20.8555 20.8554 20.8555 20.8555 20.8555 20.8554 20.8555 20.8574 20.8555 20.8554 20.8555 20.8555 20.8555 20.8554 20.8555 20.8555 20.8554 20.8555 20.8555 20.8554 20.8575 20.8554 v 20.85547 20.85547 20.85742 20.85547 20.85547 20.85547 20.85547 20.85546 20.85547 20.85547 20.85547 20.85547 20.85547 20.85547 20.85547 20.85546 20.85743 20.85547 20.85546 20.85547 20.85547 20.85547 20.85547 20.85547 20.85547 20.85546 20.85547 20.85547 20.85547 20.85547 20.85742 h -20.8554 -20.8575 -20.8554 -20.8555 -20.8555 -20.8554 -20.8555 -20.8555 -20.8554 -20.8555 -20.8555 -20.8555 -20.8554 -20.8555 -20.8574 -20.8555 -20.8554 -20.8555 -20.8555 -20.8555 -20.8554 -20.8555 -20.8555 V 870.9375 850.08203 H 1909.8555 1889 h -20.8555 -20.8554 -20.8555 -20.8574 -20.8555 v 20.85547 h 20.8555 z m 83.4219,-41.71094 h 20.8554 v -20.85547 h -20.8554 z M 1889,808.37109 h -20.8555 -20.8554 v -20.85547 h 20.8554 20.8555 20.8555 20.8554 V 766.66016 745.80469 724.94922 H 1909.8555 1889 h -20.8555 -20.8554 -20.8555 v 20.85547 h 20.8555 20.8554 20.8555 20.8555 v 20.85547 H 1889 h -20.8555 -20.8554 -20.8555 v 20.85546 20.85547 20.85547 h 20.8555 20.8554 H 1889 Z m -104.2793,-41.71093 v 20.85546 h 20.8555 v -20.85546 z m 0,41.71093 v 20.85547 h 20.8555 v -20.85547 z"
         transform="translate(2795.3103,341.62552)"
         id="rect6969"
         inkscape:connector-curvature="0"
         sodipodi:nodetypes="ccccccccccccccccccccccccccccccccccccccccccccccccccccccccccccccccccccccccccccccccccccccccccccccccccccccccccccccccccccccccccccccccccccccccccccccccccccccccccccccccccccccccccccccccccccccccccccccccccccccccccccccccccccccccccccccccccccccccccccccccccccccccccccccccccccccccccccccccccccccccccccccccccccccccccccccccccccccccccccccccccccccccccc" />
    </g>
  </g>
</svg>
