<?xml version="1.0" encoding="UTF-8" standalone="no"?>
<!-- Created with Inkscape (http://www.inkscape.org/) -->

<svg
   xmlns:dc="http://purl.org/dc/elements/1.1/"
   xmlns:cc="http://creativecommons.org/ns#"
   xmlns:rdf="http://www.w3.org/1999/02/22-rdf-syntax-ns#"
   xmlns:svg="http://www.w3.org/2000/svg"
   xmlns="http://www.w3.org/2000/svg"
   xmlns:sodipodi="http://sodipodi.sourceforge.net/DTD/sodipodi-0.dtd"
   xmlns:inkscape="http://www.inkscape.org/namespaces/inkscape"
   width="49.982605mm"
   height="27.047461mm"
   viewBox="0 0 49.982605 27.047461"
   version="1.1"
   id="svg8"
   inkscape:version="0.92.1 r15371"
   sodipodi:docname="feu.svg">
  <defs
     id="defs2" />
  <sodipodi:namedview
     id="base"
     pagecolor="#ffffff"
     bordercolor="#666666"
     borderopacity="1.0"
     inkscape:pageopacity="0.0"
     inkscape:pageshadow="2"
     inkscape:zoom="1.4"
     inkscape:cx="37.821177"
     inkscape:cy="117.44281"
     inkscape:document-units="mm"
     inkscape:current-layer="layer1"
     showgrid="false"
     inkscape:window-width="1916"
     inkscape:window-height="1039"
     inkscape:window-x="0"
     inkscape:window-y="39"
     inkscape:window-maximized="0"
     fit-margin-top="0"
     fit-margin-left="0"
     fit-margin-right="0"
     fit-margin-bottom="0"
     showguides="true"
     inkscape:guide-bbox="true"
     inkscape:snap-global="false" />
  <metadata
     id="metadata5">
    <rdf:RDF>
      <cc:Work
         rdf:about="">
        <dc:format>image/svg+xml</dc:format>
        <dc:type
           rdf:resource="http://purl.org/dc/dcmitype/StillImage" />
        <dc:title></dc:title>
      </cc:Work>
    </rdf:RDF>
  </metadata>
  <g
     inkscape:label="Calque 1"
     inkscape:groupmode="layer"
     id="layer1"
     transform="translate(-54.461717,-308.97739)">
    <path
       inkscape:connector-curvature="0"
       id="path5683"
       style="font-style:normal;font-variant:normal;font-weight:normal;font-stretch:normal;font-size:medium;line-height:125%;font-family:Didot;-inkscape-font-specification:Didot;letter-spacing:0px;word-spacing:0px;fill:#000000;fill-opacity:1;stroke:none;stroke-width:1.71363688px;stroke-linecap:butt;stroke-linejoin:miter;stroke-opacity:1"
       d="m 78.454796,329.30734 h 0.032 2.28314 c 0.0549,0 0.0823,-0.0274 0.0823,-0.0822 0,-0.45697 -0.10054,-0.99619 -0.3016,-1.61767 -0.1828,-0.62148 -0.47524,-1.20642 -0.87739,-1.75477 -0.40214,-0.56666 -0.91395,-1.0419 -1.53543,-1.42573 -0.62147,-0.38386 -1.36175,-0.57579 -2.22085,-0.57579 -0.80426,0 -1.55369,0.16452 -2.2483,0.49353 -0.69461,0.31075 -1.29781,0.7403 -1.80959,1.28865 -0.51181,0.54835 -0.91395,1.19727 -1.20642,1.9467 -0.27419,0.73115 -0.41127,1.51715 -0.41127,2.35797 0,0.84082 0.13708,1.63594 0.41127,2.38538 0.29247,0.73115 0.69461,1.37091 1.20642,1.91926 0.51178,0.54837 1.11498,0.98708 1.80959,1.31609 0.69461,0.31072 1.44404,0.46609 2.2483,0.46609 0.98705,0 1.88272,-0.24675 2.68697,-0.74028 0.82256,-0.49353 1.49887,-1.13329 2.02896,-1.91929 0.0183,-0.0365 -0.0274,-0.10051 -0.13711,-0.19193 -0.10967,-0.10967 -0.17364,-0.15536 -0.19193,-0.13708 -0.47524,0.69461 -1.07844,1.26124 -1.80959,1.69992 -0.73115,0.42043 -1.59025,0.63064 -2.5773,0.63064 -0.36558,0 -0.72202,-0.0366 -1.06932,-0.1097 -0.32901,-0.0914 -0.6306,-0.2559 -0.90479,-0.49352 -0.21937,-0.18278 -0.40214,-0.39299 -0.54838,-0.63061 -0.12795,-0.25591 -0.23762,-0.56663 -0.32901,-0.93221 -0.0731,-0.38386 -0.12795,-0.83169 -0.16452,-1.3435 -0.0365,-0.53009 -0.0548,-1.16983 -0.0548,-1.91926 v -0.32904 c 0,-0.10967 -0.009,-0.21018 -0.0274,-0.3016 v -0.6306 c 0.0183,-0.54838 0.0549,-1.0145 0.10967,-1.39833 0.0549,-0.38385 0.12796,-0.71286 0.21937,-0.98705 0.0914,-0.27419 0.20106,-0.50268 0.32901,-0.68546 0.12795,-0.1828 0.28332,-0.35644 0.46612,-0.52096 0.27418,-0.21934 0.57578,-0.36558 0.90479,-0.43868 0.34729,-0.0914 0.70374,-0.13711 1.06932,-0.13711 0.29244,0 0.56663,0.0457 0.82253,0.13711 0.27419,0.0731 0.52094,0.21934 0.74031,0.43868 0.16449,0.16452 0.30159,0.33816 0.41126,0.52096 0.12796,0.18278 0.2285,0.41127 0.3016,0.68546 0.0731,0.27419 0.12795,0.6032 0.16452,0.98705 0.0365,0.38383 0.0548,0.84995 0.0548,1.39833 z"
       sodipodi:nodetypes="ccsscccscccscccscccccscccccsscccccccsccccccc" />
    <path
       inkscape:connector-curvature="0"
       id="path5685"
       style="font-style:normal;font-variant:normal;font-weight:normal;font-stretch:normal;font-size:medium;line-height:125%;font-family:Didot;-inkscape-font-specification:Didot;letter-spacing:0px;word-spacing:0px;fill:#000000;fill-opacity:1;stroke:none;stroke-width:1.71363688px;stroke-linecap:butt;stroke-linejoin:miter;stroke-opacity:1"
       d="m 96.00889,335.77805 c 0.01826,0 0.02741,-0.0274 0.02741,-0.0823 v 0.0262 -0.24678 c 0,-0.0731 -0.009,-0.10966 -0.02741,-0.10966 h -1.507992 c -0.127953,0 -0.191929,-0.0366 -0.191929,-0.10967 v -11.07575 c 0,-0.0548 -0.02741,-0.0823 -0.08226,-0.0823 h -4.057893 c -0.0366,0 -0.064,0.0366 -0.0823,0.10967 v 0.0111 0.21934 c 0.0183,0.0548 0.0457,0.0823 0.0823,0.0823 h 1.480587 c 0.146235,0 0.219339,0.0366 0.219339,0.10967 v 7.91279 c -0.329009,1.0419 -0.740277,1.77305 -1.233806,2.19344 -0.47527,0.42043 -1.12416,0.63064 -1.9467,0.63064 -0.21934,0 -0.45696,-0.0549 -0.71286,-0.16452 -0.23763,-0.10967 -0.46612,-0.27419 -0.68546,-0.49353 -0.20106,-0.23762 -0.36558,-0.53009 -0.49353,-0.87738 -0.12795,-0.34729 -0.19193,-0.76772 -0.19193,-1.26124 v -8.38997 c 0,-0.0548 -0.0183,-0.0823 -0.0549,-0.0823 h -4.11273 l -0.0274,0.10967 v 0.0111 0.21934 l 0.0274,0.0822 h 1.53543 c 0.12795,0 0.19193,0.0366 0.19193,0.10967 v 7.00794 c 0,1.4623 0.40214,2.55903 1.20639,3.29018 0.82256,0.73115 1.92842,1.09672 3.31761,1.09672 0.31075,0 0.62148,-0.0457 0.93221,-0.13708 0.32901,-0.0731 0.63976,-0.19193 0.93223,-0.35645 0.29244,-0.16449 0.548349,-0.38383 0.767715,-0.65802 0.237623,-0.27418 0.420397,-0.60322 0.548349,-0.98705 v 1.80959 c 0,0.0549 0.02741,0.0823 0.08226,0.0823 z"
       sodipodi:nodetypes="sscssssssscccsssccsccsssscccccssscsccccsss" />
    <g
       transform="matrix(0.16473908,0.20703955,0.20703955,-0.16473908,-729.82949,491.02346)"
       id="g5702">
      <g
         id="g5697">
        <path
           d="m 1356.8858,2736.0022 c 2.4302,-2.8305 5.343,-4.7913 8.7384,-5.8825 3.4404,-1.1436 6.9402,-1.5077 10.4991,-1.0926 0.1498,0.038 0.2207,0.3261 0.2128,0.8657 0.044,0.5845 0.018,0.8805 -0.08,0.8879 -3.1619,-0.3474 -6.2718,-0.013 -9.3299,1.0037 -3.0058,1.0615 -5.7238,3.0074 -8.154,5.8379 z"
           style="font-style:normal;font-variant:normal;font-weight:normal;font-stretch:normal;font-size:medium;line-height:125%;font-family:Didot;-inkscape-font-specification:Didot;letter-spacing:0px;word-spacing:0px;fill:#000000;fill-opacity:1;stroke:none;stroke-width:6.47673798px;stroke-linecap:butt;stroke-linejoin:miter;stroke-opacity:1"
           id="path5697"
           inkscape:connector-curvature="0"
           sodipodi:nodetypes="cccccccc"
           inkscape:transform-center-y="2.1697701"
           inkscape:transform-center-x="-1.0105896" />
        <path
           inkscape:connector-curvature="0"
           id="path5681"
           style="font-style:normal;font-variant:normal;font-weight:normal;font-stretch:normal;font-size:medium;line-height:125%;font-family:Didot;-inkscape-font-specification:Didot;letter-spacing:0px;word-spacing:0px;fill:#000000;fill-opacity:1;stroke:none;stroke-width:6.47673798px;stroke-linecap:butt;stroke-linejoin:miter;stroke-opacity:1"
           d="m 1383.1522,2709.17 c 0,-1.1745 -0.2418,-2.3144 -0.7254,-3.4197 -0.4836,-1.1745 -1.1744,-2.2108 -2.0725,-3.1089 -0.8291,-0.9671 -1.8308,-1.7271 -3.0052,-2.2798 -1.1054,-0.6217 -2.2799,-0.9326 -3.5234,-0.9326 -2.6252,0 -5.0086,0.5181 -7.1503,1.5544 -2.0725,1.0363 -3.8688,2.7634 -5.3887,5.1814 -1.5199,2.418 -2.6943,5.5959 -3.5233,9.5338 -0.829,3.8687 -1.2435,8.6356 -1.2435,14.3006 v 1.9689 3.3161 39.6902 c 0,0.2764 -0.2073,0.4145 -0.6218,0.4145 h -5.6995 c -0.069,0 -0.1382,0.1382 -0.2073,0.4145 v -0.4152 0.829 c 0.069,0.2073 0.1382,0.3109 0.2073,0.3109 h 15.6478 v -1.1392 -0.4145 -39.6902 -3.3161 -17.6167 c 0,-4.6978 0.5872,-7.9103 1.7616,-9.6374 1.2435,-1.7271 2.6598,-2.5907 4.2488,-2.5907 2.2107,0 3.3161,1.1399 3.3161,3.4197 0,0.6909 -0.069,1.2436 -0.2073,1.6581 -0.1381,0.3454 -0.3108,0.6908 -0.5181,1.0363 -0.2073,0.2763 -0.38,0.5872 -0.5182,0.9326 -0.1381,0.2763 -0.2072,0.7254 -0.2072,1.3472 0,0.9672 0.38,1.8308 1.1399,2.5907 0.829,0.6908 2.038,1.0362 3.627,1.0362 1.3817,0 2.487,-0.4836 3.3161,-1.4508 0.8981,-1.0363 1.3471,-2.2107 1.3471,-3.5233 z"
           sodipodi:nodetypes="scccscccsccssscccscccccscsscccscscs" />
      </g>
    </g>
    <g
       id="g5714"
       transform="matrix(0.07408518,-0.05403765,0.05403765,0.07408518,-201.71761,193.63193)">
      <path
         d="m 1623.7023,2754.4554 q 0,-4.7669 -1.7616,-8.912 -1.6581,-4.2488 -4.6633,-7.3576 -3.0052,-3.1088 -7.0467,-4.8705 -3.9378,-1.8653 -8.4975,-1.8653 -4.456,0 -8.3938,1.8653 -3.9379,1.7617 -6.9431,4.8705 -2.9016,3.1088 -4.6632,7.3576 -1.6581,4.1451 -1.6581,8.912 0,4.7668 1.6581,9.0156 1.7616,4.1451 4.6632,7.2539 3.0052,3.1089 6.9431,4.9742 3.9378,1.7616 8.3938,1.7616 4.5597,0 8.4975,-1.7616 4.0415,-1.8653 7.0467,-4.9742 3.0052,-3.1088 4.6633,-7.2539 1.7616,-4.2488 1.7616,-9.0156 z m -9.6374,0 q 0,4.2487 -0.3108,7.2539 -0.2073,3.0052 -0.8291,5.0778 -0.6217,2.0725 -1.5544,3.5233 -0.9326,1.3472 -2.1762,2.3834 -1.4508,1.3472 -3.3161,1.8653 -1.7616,0.4146 -4.1451,0.4146 -2.0725,0 -4.0415,-0.4146 -1.8653,-0.5181 -3.316,-1.8653 -1.2436,-1.0362 -2.1762,-2.3834 -0.829,-1.4508 -1.4508,-3.5233 -0.5182,-2.0726 -0.829,-5.0778 -0.3109,-3.0052 -0.3109,-7.2539 0,-7.4612 1.1399,-11.8136 1.2435,-4.456 3.627,-6.5286 1.4507,-1.2435 3.316,-1.658 1.969,-0.5182 4.0415,-0.5182 2.3835,0 4.1451,0.5182 1.8653,0.4145 3.3161,1.658 2.5907,2.0726 3.7306,6.5286 1.1399,4.3524 1.1399,11.8136 z"
         style="font-style:normal;font-variant:normal;font-weight:normal;font-stretch:normal;font-size:medium;line-height:125%;font-family:Didot;-inkscape-font-specification:Didot;letter-spacing:0px;word-spacing:0px;fill:#000000;fill-opacity:1;stroke:none;stroke-width:6.47673798px;stroke-linecap:butt;stroke-linejoin:miter;stroke-opacity:1"
         id="path5687"
         inkscape:connector-curvature="0" />
      <path
         inkscape:connector-curvature="0"
         id="path5707"
         d="m 1630,2755.5723 v -2.3828 h -56.625 v 2.3828 z"
         style="font-style:normal;font-variant:normal;font-weight:normal;font-stretch:normal;font-size:medium;line-height:125%;font-family:Didot;-inkscape-font-specification:Didot;letter-spacing:0px;word-spacing:0px;fill:#000000;fill-opacity:1;stroke:none;stroke-width:11.3696413px;stroke-linecap:butt;stroke-linejoin:miter;stroke-opacity:1" />
      <path
         style="font-style:normal;font-variant:normal;font-weight:normal;font-stretch:normal;font-size:medium;line-height:125%;font-family:Didot;-inkscape-font-specification:Didot;letter-spacing:0px;word-spacing:0px;fill:#000000;fill-opacity:1;stroke:none;stroke-width:11.3696413px;stroke-linecap:butt;stroke-linejoin:miter;stroke-opacity:1"
         d="m 1600.4961,2782.6934 h 2.3828 v -56.625 h -2.3828 z"
         id="path5709"
         inkscape:connector-curvature="0" />
    </g>
    <text
       xml:space="preserve"
       style="font-style:normal;font-variant:normal;font-weight:normal;font-stretch:normal;font-size:28.04461861px;line-height:125%;font-family:Didot;-inkscape-font-specification:Didot;letter-spacing:0px;word-spacing:0px;fill:#000000;fill-opacity:1;stroke:none;stroke-width:1.75278866px;stroke-linecap:butt;stroke-linejoin:miter;stroke-opacity:1"
       x="99.732826"
       y="335.74435"
       id="text5718"><tspan
         sodipodi:role="line"
         id="tspan5716"
         x="99.732826"
         y="335.74435"
         style="font-style:normal;font-variant:normal;font-weight:normal;font-stretch:normal;font-family:Didot;-inkscape-font-specification:Didot;stroke-width:1.75278866px">!</tspan></text>
    <path
       d="m 71.918896,330.88439 c 0.81812,-0.89244 1.79872,-1.51069 2.94177,-1.85475 1.15819,-0.36058 2.3364,-0.47538 3.53449,-0.34449 0.0504,0.0119 0.0743,0.17103 0.0717,0.34115 0.0148,0.18431 0.006,0.27763 -0.0269,0.27996 -1.06445,-0.10954 -2.1114,-0.004 -3.1409,0.31647 -1.01189,0.3347 -1.9269,0.94824 -2.74502,1.8407 z"
       style="font-style:normal;font-variant:normal;font-weight:normal;font-stretch:normal;font-size:medium;line-height:125%;font-family:Didot;-inkscape-font-specification:Didot;letter-spacing:0px;word-spacing:0px;fill:#000000;fill-opacity:1;stroke:none;stroke-width:2.11011696px;stroke-linecap:butt;stroke-linejoin:miter;stroke-opacity:1"
       id="path5697-0"
       inkscape:connector-curvature="0"
       sodipodi:nodetypes="cccccccc"
       inkscape:transform-center-y="2.5856935"
       inkscape:transform-center-x="-1.2858735" />
  </g>
</svg>
