<?xml version="1.0" encoding="UTF-8" standalone="no"?>
<!-- Created with Inkscape (http://www.inkscape.org/) -->

<svg
   xmlns:dc="http://purl.org/dc/elements/1.1/"
   xmlns:cc="http://creativecommons.org/ns#"
   xmlns:rdf="http://www.w3.org/1999/02/22-rdf-syntax-ns#"
   xmlns:svg="http://www.w3.org/2000/svg"
   xmlns="http://www.w3.org/2000/svg"
   xmlns:xlink="http://www.w3.org/1999/xlink"
   xmlns:sodipodi="http://sodipodi.sourceforge.net/DTD/sodipodi-0.dtd"
   xmlns:inkscape="http://www.inkscape.org/namespaces/inkscape"
   width="253.70854mm"
   height="157.33598mm"
   viewBox="0 0 253.70854 157.33599"
   version="1.1"
   id="svg8"
   inkscape:version="0.92.1 r15371"
   sodipodi:docname="haiku.svg">
  <defs
     id="defs2" />
  <sodipodi:namedview
     id="base"
     pagecolor="#ffffff"
     bordercolor="#666666"
     borderopacity="1.0"
     inkscape:pageopacity="0.0"
     inkscape:pageshadow="2"
     inkscape:zoom="0.49497475"
     inkscape:cx="430.04932"
     inkscape:cy="-80.612757"
     inkscape:document-units="mm"
     inkscape:current-layer="g5738"
     showgrid="false"
     inkscape:window-width="1916"
     inkscape:window-height="1039"
     inkscape:window-x="0"
     inkscape:window-y="39"
     inkscape:window-maximized="0"
     inkscape:snap-global="true"
     fit-margin-top="0"
     fit-margin-left="0"
     fit-margin-right="0"
     fit-margin-bottom="0" />
  <metadata
     id="metadata5">
    <rdf:RDF>
      <cc:Work
         rdf:about="">
        <dc:format>image/svg+xml</dc:format>
        <dc:type
           rdf:resource="http://purl.org/dc/dcmitype/StillImage" />
        <dc:title></dc:title>
      </cc:Work>
    </rdf:RDF>
  </metadata>
  <g
     inkscape:label="Calque 1"
     inkscape:groupmode="layer"
     id="layer1"
     transform="translate(-936.44976,-533.37534)">
    <g
       id="g5740"
       transform="translate(353.17253)"
       inkscape:export-filename="/tmp/haiku-monchrome.png"
       inkscape:export-xdpi="64"
       inkscape:export-ydpi="64">
      <path
         style="fill:none;fill-rule:evenodd;stroke:none;stroke-width:0.26458332px;stroke-linecap:butt;stroke-linejoin:miter;stroke-opacity:1"
         d="m 703.60267,634.20062 c 2.63319,0.53437 2.54466,3.46059 3.40668,6.096 l 8.68857,26.56326 c 2.66165,8.13737 12.30281,10.58333 16.44196,10.58333 h 42.90029 17.95388"
         id="path5602"
         inkscape:connector-curvature="0"
         sodipodi:nodetypes="cssscc" />
      <g
         id="g5642"
         transform="matrix(0.7202632,0,0,0.7202632,829.1315,525.45847)">
        <g
           transform="translate(0,65.481034)"
           id="g5614">
          <path
             sodipodi:nodetypes="sssssssss"
             inkscape:connector-curvature="0"
             id="path5606"
             d="m -227.14722,93.741524 c 7.12449,-2.11623 13.65369,-1.656125 19.31329,0 0.65643,0.192087 1.25814,0.551032 1.23459,1.23459 -0.76582,22.233216 -0.24364,43.822426 0,65.550916 0.008,0.68392 -0.59254,0.99886 -1.23459,1.23459 -6.79412,2.49451 -13.23189,2.49452 -19.31329,0 -0.63279,-0.25956 -1.25018,-0.55081 -1.23459,-1.23459 0.49545,-21.72644 0.90381,-43.47466 0,-65.550916 -0.028,-0.683391 0.57894,-1.039838 1.23459,-1.23459 z"
             style="opacity:1;vector-effect:none;fill:#ffffff;fill-opacity:1;stroke:#000000;stroke-width:0.26458332;stroke-linecap:round;stroke-linejoin:miter;stroke-miterlimit:4;stroke-dasharray:none;stroke-dashoffset:0;stroke-opacity:1;paint-order:normal" />
          <path
             d="m -215.59874,97.400313 a 10.175464,2.2177496 0 0 1 -11.94269,-1.748129 10.175464,2.2177496 0 0 1 8.01385,-2.603928 10.175464,2.2177496 0 0 1 11.95196,1.745121 10.175464,2.2177496 0 0 1 -8.00005,2.605944"
             sodipodi:open="true"
             sodipodi:end="1.3747889"
             sodipodi:start="1.3770997"
             sodipodi:ry="2.2177496"
             sodipodi:rx="10.175464"
             sodipodi:cy="95.224037"
             sodipodi:cx="-217.55739"
             sodipodi:type="arc"
             id="path5608"
             style="opacity:1;vector-effect:none;fill:#4d3214;fill-opacity:1;stroke:none;stroke-width:0.2627041;stroke-linecap:round;stroke-linejoin:miter;stroke-miterlimit:4;stroke-dasharray:none;stroke-dashoffset:0;stroke-opacity:1;paint-order:normal" />
          <path
             style="opacity:1;vector-effect:none;fill:none;fill-opacity:1;stroke:#4d3214;stroke-width:0.31591249;stroke-linecap:round;stroke-linejoin:miter;stroke-miterlimit:4;stroke-dasharray:none;stroke-dashoffset:0;stroke-opacity:1;paint-order:normal"
             id="path5610"
             sodipodi:type="arc"
             sodipodi:cx="-217.55739"
             sodipodi:cy="95.224037"
             sodipodi:rx="11.915612"
             sodipodi:ry="2.9119058"
             sodipodi:start="1.1998603"
             sodipodi:end="2.6214337"
             sodipodi:open="true"
             d="m -213.23812,97.9379 a 11.915612,2.9119058 0 0 1 -14.65892,-1.266593" />
          <path
             sodipodi:nodetypes="cccc"
             inkscape:connector-curvature="0"
             id="path5612"
             d="m -226.21875,101.20833 c 0.58992,14.54211 0.14659,25.44896 -0.072,35.4391 l -0.0789,4.4424 c -0.0588,4.67729 -0.0229,9.23809 0.24539,13.98011"
             style="fill:none;fill-rule:evenodd;stroke:#000000;stroke-width:0.26458332px;stroke-linecap:round;stroke-linejoin:miter;stroke-opacity:1" />
        </g>
        <g
           id="g5626">
          <path
             sodipodi:nodetypes="sssssssss"
             inkscape:connector-curvature="0"
             id="path5616"
             d="m -227.14722,93.741524 c 7.12449,-2.11623 13.65369,-1.656125 19.31329,0 0.65643,0.192087 1.27319,0.551717 1.23459,1.23459 -1.33778,23.663846 -0.67544,44.902466 0,65.550916 0.0224,0.6836 -0.59254,0.99886 -1.23459,1.23459 -6.79412,2.49451 -13.23189,2.49452 -19.31329,0 -0.63279,-0.25956 -1.25816,-0.55104 -1.23459,-1.23459 0.73669,-21.36458 1.16635,-43.08085 0,-65.550916 -0.0354,-0.683045 0.57894,-1.039838 1.23459,-1.23459 z"
             style="opacity:1;vector-effect:none;fill:#ffffff;fill-opacity:1;stroke:#000000;stroke-width:0.26458332;stroke-linecap:round;stroke-linejoin:miter;stroke-miterlimit:4;stroke-dasharray:none;stroke-dashoffset:0;stroke-opacity:1;paint-order:normal" />
          <path
             d="m -215.59874,97.400313 a 10.175464,2.2177496 0 0 1 -11.94269,-1.748129 10.175464,2.2177496 0 0 1 8.01385,-2.603928 10.175464,2.2177496 0 0 1 11.95196,1.745121 10.175464,2.2177496 0 0 1 -8.00005,2.605944"
             sodipodi:open="true"
             sodipodi:end="1.3747889"
             sodipodi:start="1.3770997"
             sodipodi:ry="2.2177496"
             sodipodi:rx="10.175464"
             sodipodi:cy="95.224037"
             sodipodi:cx="-217.55739"
             sodipodi:type="arc"
             id="path5618"
             style="opacity:1;vector-effect:none;fill:#4d3214;fill-opacity:1;stroke:none;stroke-width:0.2627041;stroke-linecap:round;stroke-linejoin:miter;stroke-miterlimit:4;stroke-dasharray:none;stroke-dashoffset:0;stroke-opacity:1;paint-order:normal" />
          <path
             style="opacity:1;vector-effect:none;fill:none;fill-opacity:1;stroke:#000000;stroke-width:0.31591249;stroke-linecap:round;stroke-linejoin:miter;stroke-miterlimit:4;stroke-dasharray:none;stroke-dashoffset:0;stroke-opacity:1;paint-order:normal"
             d="m -211.89472,98.151479 c -5.60469,1.322414 -12.74296,0.05136 -16.00232,-1.480172"
             id="path5620"
             inkscape:connector-curvature="0"
             sodipodi:nodetypes="cc" />
          <path
             sodipodi:nodetypes="cccccc"
             inkscape:connector-curvature="0"
             id="path5622"
             d="m -226.21875,101.20833 c -0.23375,6.18859 -0.24171,11.80688 -0.15918,17.1059 m 1.11222,5.2928 c 0.11087,4.41504 0.0858,8.65541 -0.0234,12.8829 m -0.39212,10.1065 c -0.13457,2.76286 -0.28681,5.57315 -0.44305,8.47351"
             style="fill:none;fill-rule:evenodd;stroke:#000000;stroke-width:0.26458332px;stroke-linecap:round;stroke-linejoin:miter;stroke-opacity:1" />
          <path
             sodipodi:nodetypes="cc"
             inkscape:connector-curvature="0"
             id="path5624"
             d="m -224.04955,98.958745 c -1.53532,-0.350078 -2.86694,-0.787253 -3.84749,-1.248003"
             style="opacity:1;vector-effect:none;fill:none;fill-opacity:1;stroke:#000000;stroke-width:0.31591249;stroke-linecap:round;stroke-linejoin:miter;stroke-miterlimit:4;stroke-dasharray:none;stroke-dashoffset:0;stroke-opacity:1;paint-order:normal" />
        </g>
        <g
           id="g5640"
           transform="translate(0,-66.015573)">
          <path
             style="opacity:1;vector-effect:none;fill:#ffffff;fill-opacity:1;stroke:#000000;stroke-width:0.26458332;stroke-linecap:round;stroke-linejoin:miter;stroke-miterlimit:4;stroke-dasharray:none;stroke-dashoffset:0;stroke-opacity:1;paint-order:normal"
             d="m -227.14722,93.741524 c 7.12449,-2.11623 13.65369,-1.656125 19.31329,0 0.65643,0.192087 1.30693,0.554462 1.23459,1.23459 -2.67918,25.190226 -0.98796,44.972736 0,65.550916 0.0328,0.68318 -0.59254,0.99886 -1.23459,1.23459 -6.79412,2.49451 -13.23189,2.49452 -19.31329,0 -0.63279,-0.25956 -1.25018,-0.55081 -1.23459,-1.23459 0.49545,-21.72644 0.90381,-43.47466 0,-65.550916 -0.028,-0.683391 0.57894,-1.039838 1.23459,-1.23459 z"
             id="path5628"
             inkscape:connector-curvature="0"
             sodipodi:nodetypes="sssssssss" />
          <path
             style="opacity:1;vector-effect:none;fill:#000000;fill-opacity:1;stroke:none;stroke-width:0.2627041;stroke-linecap:round;stroke-linejoin:miter;stroke-miterlimit:4;stroke-dasharray:none;stroke-dashoffset:0;stroke-opacity:1;paint-order:normal"
             id="path5630"
             sodipodi:type="arc"
             sodipodi:cx="-217.55739"
             sodipodi:cy="95.224037"
             sodipodi:rx="10.175464"
             sodipodi:ry="2.2177496"
             sodipodi:start="1.3770997"
             sodipodi:end="1.3747889"
             sodipodi:open="true"
             d="m -215.59874,97.400313 a 10.175464,2.2177496 0 0 1 -11.94269,-1.748129 10.175464,2.2177496 0 0 1 8.01385,-2.603928 10.175464,2.2177496 0 0 1 11.95196,1.745121 10.175464,2.2177496 0 0 1 -8.00005,2.605944" />
          <path
             style="opacity:1;vector-effect:none;fill:none;fill-opacity:1;stroke:#000000;stroke-width:0.31591249;stroke-linecap:round;stroke-linejoin:miter;stroke-miterlimit:4;stroke-dasharray:none;stroke-dashoffset:0;stroke-opacity:1;paint-order:normal"
             d="m -213.20471,98.271987 c -5.49564,0.52235 -11.76157,-0.350253 -14.69233,-1.60068"
             id="path5632"
             inkscape:connector-curvature="0"
             sodipodi:nodetypes="cc" />
          <path
             style="fill:none;fill-rule:evenodd;stroke:#000000;stroke-width:0.26458332px;stroke-linecap:round;stroke-linejoin:miter;stroke-opacity:1"
             d="m -226.21875,101.20833 c -0.0506,1.33889 -0.0906,2.65108 -0.12138,3.93912 l -0.0638,3.58691 c -0.0772,6.5568 0.065,12.51002 0.22619,18.23126 l 0.21178,7.64929 c 0.16486,6.69705 0.22705,13.30211 -0.15827,20.45503"
             id="path5634"
             inkscape:connector-curvature="0"
             sodipodi:nodetypes="cccccc" />
          <path
             sodipodi:nodetypes="csccc"
             inkscape:connector-curvature="0"
             id="path5636"
             d="m -223.86487,101.55281 c -0.0453,3.8437 -0.0151,7.47999 0.05,10.98371 0.046,2.47312 0.10944,4.88019 0.17614,7.24755 m 0.21178,7.64929 c 0.16486,6.69705 0.22705,13.30211 -0.15827,20.45503"
             style="fill:none;fill-rule:evenodd;stroke:#000000;stroke-width:0.26458332px;stroke-linecap:round;stroke-linejoin:miter;stroke-opacity:1" />
          <path
             sodipodi:nodetypes="cccc"
             inkscape:connector-curvature="0"
             id="path5638"
             d="m -213.20471,99.341065 c -1.9901,0.189155 -4.08121,0.195385 -6.07838,0.06699 m -4.85099,-0.605152 c -1.51167,-0.291331 -2.81265,-0.657063 -3.76296,-1.062519"
             style="opacity:1;vector-effect:none;fill:none;fill-opacity:1;stroke:#000000;stroke-width:0.31591249;stroke-linecap:round;stroke-linejoin:miter;stroke-miterlimit:4;stroke-dasharray:none;stroke-dashoffset:0;stroke-opacity:1;paint-order:normal" />
        </g>
      </g>
      <g
         id="g5738"
         transform="translate(0,-12.85119)">
        <g
           id="g5718"
           transform="matrix(-0.45701147,0.55670423,-0.55670423,-0.45701147,628.51946,761.95139)">
          <g
             transform="translate(0,65.481034)"
             id="g5690">
            <path
               sodipodi:nodetypes="sssssssss"
               inkscape:connector-curvature="0"
               id="path5682"
               d="m -227.14722,93.741524 c 7.12449,-2.11623 13.65369,-1.656125 19.31329,0 0.65643,0.192087 1.25814,0.551032 1.23459,1.23459 -0.76582,22.233216 -0.24364,11.081906 0,32.810396 0.008,0.68392 -0.59254,0.99886 -1.23459,1.23459 -6.79412,2.49451 -13.23189,2.49452 -19.31329,0 -0.63279,-0.25956 -1.25018,-0.55081 -1.23459,-1.23459 0.49545,-21.72644 0.90381,-10.73414 0,-32.810396 -0.028,-0.683391 0.57894,-1.039838 1.23459,-1.23459 z"
               style="opacity:1;vector-effect:none;fill:#ffffff;fill-opacity:1;stroke:#000000;stroke-width:0.26458332;stroke-linecap:round;stroke-linejoin:miter;stroke-miterlimit:4;stroke-dasharray:none;stroke-dashoffset:0;stroke-opacity:1;paint-order:normal" />
            <path
               d="m -215.59874,97.400313 a 10.175464,2.2177496 0 0 1 -11.94269,-1.748129 10.175464,2.2177496 0 0 1 8.01385,-2.603928 10.175464,2.2177496 0 0 1 11.95196,1.745121 10.175464,2.2177496 0 0 1 -8.00005,2.605944"
               sodipodi:open="true"
               sodipodi:end="1.3747889"
               sodipodi:start="1.3770997"
               sodipodi:ry="2.2177496"
               sodipodi:rx="10.175464"
               sodipodi:cy="95.224037"
               sodipodi:cx="-217.55739"
               sodipodi:type="arc"
               id="path5684"
               style="opacity:1;vector-effect:none;fill:#4d3214;fill-opacity:1;stroke:none;stroke-width:0.2627041;stroke-linecap:round;stroke-linejoin:miter;stroke-miterlimit:4;stroke-dasharray:none;stroke-dashoffset:0;stroke-opacity:1;paint-order:normal" />
            <path
               style="opacity:1;vector-effect:none;fill:none;fill-opacity:1;stroke:#4d3214;stroke-width:0.31591249;stroke-linecap:round;stroke-linejoin:miter;stroke-miterlimit:4;stroke-dasharray:none;stroke-dashoffset:0;stroke-opacity:1;paint-order:normal"
               id="path5686"
               sodipodi:type="arc"
               sodipodi:cx="-217.55739"
               sodipodi:cy="95.224037"
               sodipodi:rx="11.915612"
               sodipodi:ry="2.9119058"
               sodipodi:start="1.1998603"
               sodipodi:end="2.6214337"
               sodipodi:open="true"
               d="m -213.23812,97.9379 a 11.915612,2.9119058 0 0 1 -14.65892,-1.266593" />
            <path
               sodipodi:nodetypes="cc"
               inkscape:connector-curvature="0"
               id="path5688"
               d="m -226.21875,101.20833 c 0.0426,7.04031 -0.41623,14.09921 0.0945,21.12109"
               style="fill:none;fill-rule:evenodd;stroke:#000000;stroke-width:0.26458332px;stroke-linecap:round;stroke-linejoin:miter;stroke-opacity:1" />
          </g>
          <g
             id="g5702">
            <path
               sodipodi:nodetypes="sssssssss"
               inkscape:connector-curvature="0"
               id="path5692"
               d="m -227.14722,93.741524 c 7.12449,-2.11623 13.65369,-1.656125 19.31329,0 0.65643,0.192087 1.27319,0.551717 1.23459,1.23459 -1.33778,23.663846 -0.67544,44.902466 0,65.550916 0.0224,0.6836 -0.59254,0.99886 -1.23459,1.23459 -6.79412,2.49451 -13.23189,2.49452 -19.31329,0 -0.63279,-0.25956 -1.25816,-0.55104 -1.23459,-1.23459 0.73669,-21.36458 1.16635,-43.08085 0,-65.550916 -0.0354,-0.683045 0.57894,-1.039838 1.23459,-1.23459 z"
               style="opacity:1;vector-effect:none;fill:#ffffff;fill-opacity:1;stroke:#000000;stroke-width:0.26458332;stroke-linecap:round;stroke-linejoin:miter;stroke-miterlimit:4;stroke-dasharray:none;stroke-dashoffset:0;stroke-opacity:1;paint-order:normal" />
            <path
               d="m -215.59874,97.400313 a 10.175464,2.2177496 0 0 1 -11.94269,-1.748129 10.175464,2.2177496 0 0 1 8.01385,-2.603928 10.175464,2.2177496 0 0 1 11.95196,1.745121 10.175464,2.2177496 0 0 1 -8.00005,2.605944"
               sodipodi:open="true"
               sodipodi:end="1.3747889"
               sodipodi:start="1.3770997"
               sodipodi:ry="2.2177496"
               sodipodi:rx="10.175464"
               sodipodi:cy="95.224037"
               sodipodi:cx="-217.55739"
               sodipodi:type="arc"
               id="path5694"
               style="opacity:1;vector-effect:none;fill:#4d3214;fill-opacity:1;stroke:none;stroke-width:0.2627041;stroke-linecap:round;stroke-linejoin:miter;stroke-miterlimit:4;stroke-dasharray:none;stroke-dashoffset:0;stroke-opacity:1;paint-order:normal" />
            <path
               style="opacity:1;vector-effect:none;fill:none;fill-opacity:1;stroke:#000000;stroke-width:0.31591249;stroke-linecap:round;stroke-linejoin:miter;stroke-miterlimit:4;stroke-dasharray:none;stroke-dashoffset:0;stroke-opacity:1;paint-order:normal"
               d="m -211.89472,98.151479 c -5.60469,1.322414 -12.74296,0.05136 -16.00232,-1.480172"
               id="path5696"
               inkscape:connector-curvature="0"
               sodipodi:nodetypes="cc" />
            <path
               sodipodi:nodetypes="cccc"
               inkscape:connector-curvature="0"
               id="path5698"
               d="m -226.21875,101.20833 c -0.23375,6.18859 -0.24171,11.80688 -0.15918,17.1059 m 0.6967,28.2822 c -0.13457,2.76286 -0.28681,5.57315 -0.44305,8.47351"
               style="fill:none;fill-rule:evenodd;stroke:#000000;stroke-width:0.26458332px;stroke-linecap:round;stroke-linejoin:miter;stroke-opacity:1" />
            <path
               sodipodi:nodetypes="cc"
               inkscape:connector-curvature="0"
               id="path5700"
               d="m -224.04955,98.958745 c -1.53532,-0.350078 -2.86694,-0.787253 -3.84749,-1.248003"
               style="opacity:1;vector-effect:none;fill:none;fill-opacity:1;stroke:#000000;stroke-width:0.31591249;stroke-linecap:round;stroke-linejoin:miter;stroke-miterlimit:4;stroke-dasharray:none;stroke-dashoffset:0;stroke-opacity:1;paint-order:normal" />
          </g>
          <g
             id="g5716"
             transform="translate(0,-66.015573)">
            <path
               style="opacity:1;vector-effect:none;fill:#ffffff;fill-opacity:1;stroke:#000000;stroke-width:0.99999994;stroke-linecap:round;stroke-linejoin:miter;stroke-miterlimit:4;stroke-dasharray:none;stroke-dashoffset:0;stroke-opacity:1;paint-order:normal"
               d="m -441.56641,128.83008 c -7.95754,-18.40811 -84.1522,43.94688 -78.40625,79.34961 0.11621,49.63453 -0.88106,98.99017 -2.00586,148.31445 -0.0589,2.58437 2.27437,3.685 4.66602,4.66602 22.98482,9.4281 47.31753,9.42807 72.99609,0 2.42665,-0.89095 4.78999,-2.08392 4.66602,-4.66602 -3.37426,-70.28237 -8.91138,-138.11888 -2.47594,-220.79142 0.17744,-2.27948 3.26817,-6.96935 0.55992,-6.87264 z"
               transform="matrix(0.26458333,0,0,0.26458333,-90.275114,66.204561)"
               id="path5704"
               inkscape:connector-curvature="0"
               sodipodi:nodetypes="ccccccsc" />
            <path
               style="opacity:1;vector-effect:none;fill:#000000;fill-opacity:1;stroke:none;stroke-width:0.33635753;stroke-linecap:round;stroke-linejoin:miter;stroke-miterlimit:4;stroke-dasharray:none;stroke-dashoffset:0;stroke-opacity:1;paint-order:normal"
               id="path5706"
               sodipodi:type="arc"
               sodipodi:cx="-230.42171"
               sodipodi:cy="-78.765541"
               sodipodi:rx="13.028323"
               sodipodi:ry="3.4976881"
               sodipodi:start="1.3770997"
               sodipodi:end="1.3747889"
               sodipodi:open="true"
               d="m -227.91392,-75.333262 a 13.028323,3.4976881 0 0 1 -15.29102,-2.757034 13.028323,3.4976881 0 0 1 10.26067,-4.106744 13.028323,3.4976881 0 0 1 15.30288,2.75229 13.028323,3.4976881 0 0 1 -10.24299,4.109923"
               transform="rotate(-45.633444)" />
            <path
               style="fill:none;fill-rule:evenodd;stroke:#4d3214;stroke-width:0.26458332px;stroke-linecap:round;stroke-linejoin:miter;stroke-opacity:1"
               d="m -226.17774,126.96562 0.21178,7.64929 c 0.16486,6.69705 0.22705,13.30211 -0.15827,20.45503"
               id="path5708"
               inkscape:connector-curvature="0"
               sodipodi:nodetypes="ccc" />
            <path
               sodipodi:nodetypes="cc"
               inkscape:connector-curvature="0"
               id="path5710"
               d="m -223.86376,124.32874 c 0.22309,7.08673 0.60647,17.47203 0.27854,23.55965"
               style="fill:none;fill-rule:evenodd;stroke:#4d3214;stroke-width:0.26458332px;stroke-linecap:round;stroke-linejoin:miter;stroke-opacity:1" />
            <path
               transform="rotate(-45.633444)"
               style="opacity:1;vector-effect:none;fill:none;fill-opacity:1;stroke:#4d3214;stroke-width:0.26458332;stroke-linecap:round;stroke-linejoin:miter;stroke-miterlimit:4;stroke-dasharray:none;stroke-dashoffset:0;stroke-opacity:1;paint-order:normal"
               d="m -220.44109,-75.777932 c -1.93086,0.465793 -4.33905,0.802524 -7.06981,0.94809"
               id="path5712"
               inkscape:connector-curvature="0"
               sodipodi:nodetypes="cc" />
            <path
               transform="matrix(0.69699126,-0.71707963,0.71267489,0.70149448,0,0)"
               style="opacity:1;vector-effect:none;fill:none;fill-opacity:1;stroke:#4d3214;stroke-width:0.26458597;stroke-linecap:round;stroke-linejoin:miter;stroke-miterlimit:4;stroke-dasharray:none;stroke-dashoffset:0;stroke-opacity:1;paint-order:normal"
               d="m -226.91184,-74.995724 c -2.50742,0.132026 -4.91022,0.155355 -7.1566,0.04456 m -5.58933,-0.632395 c -2.07853,-0.398731 -4.12326,-1.095343 -5.35916,-1.715444"
               id="path5714"
               inkscape:connector-curvature="0"
               sodipodi:nodetypes="cccc" />
          </g>
        </g>
        <text
           id="text5728"
           y="664.22266"
           x="713.82935"
           style="font-style:normal;font-variant:normal;font-weight:normal;font-stretch:normal;font-size:11.24557495px;line-height:125%;font-family:'CMU Serif';-inkscape-font-specification:'CMU Serif';text-align:start;letter-spacing:0px;word-spacing:0px;text-anchor:start;fill:#000000;fill-opacity:1;stroke:none;stroke-width:0.13178407px;stroke-linecap:butt;stroke-linejoin:miter;stroke-opacity:1"
           xml:space="preserve"><tspan
             style="font-style:normal;font-variant:normal;font-weight:normal;font-stretch:normal;font-family:'CMU Serif';-inkscape-font-specification:'CMU Serif';fill:#000000;fill-opacity:1;stroke-width:0.13178407px"
             y="674.62482"
             x="713.82935"
             id="tspan5720"
             sodipodi:role="line" /><tspan
             id="tspan5722"
             style="font-style:normal;font-variant:normal;font-weight:normal;font-stretch:normal;font-family:'CMU Serif';-inkscape-font-specification:'CMU Serif';fill:#000000;fill-opacity:1;stroke-width:0.13178407px"
             y="688.68176"
             x="713.82935"
             sodipodi:role="line">Un rocher et des cailloux</tspan><tspan
             id="tspan5724"
             style="font-style:normal;font-variant:normal;font-weight:normal;font-stretch:normal;font-family:'CMU Serif';-inkscape-font-specification:'CMU Serif';fill:#000000;fill-opacity:1;stroke-width:0.13178407px"
             y="702.73877"
             x="713.82935"
             sodipodi:role="line">Au bel haïku.</tspan><tspan
             id="tspan5726"
             style="font-style:normal;font-variant:normal;font-weight:normal;font-stretch:normal;font-family:'CMU Serif';-inkscape-font-specification:'CMU Serif';fill:#000000;fill-opacity:1;stroke-width:0.13178407px"
             y="716.79572"
             x="713.82935"
             sodipodi:role="line" /></text>
        <text
           xml:space="preserve"
           style="font-style:normal;font-variant:normal;font-weight:normal;font-stretch:normal;font-size:11.24557495px;line-height:125%;font-family:'CMU Serif';-inkscape-font-specification:'CMU Serif';text-align:start;letter-spacing:0px;word-spacing:0px;text-anchor:start;fill:#000000;fill-opacity:1;stroke:none;stroke-width:0.13178407px;stroke-linecap:butt;stroke-linejoin:miter;stroke-opacity:1"
           id="text4580"><textPath
             xlink:href="#path5602"
             id="textPath4591"><tspan
   id="tspan4578"
   style="font-style:normal;font-variant:normal;font-weight:normal;font-stretch:normal;font-family:'CMU Serif';-inkscape-font-specification:'CMU Serif';fill:#000000;fill-opacity:1;stroke-width:0.13178407px"
   dx="0 0 0 0 0 0 0 0 0 0 0 1">Il suffit d’un sōzu,</tspan></textPath></text>
      </g>
      <g
         id="g5782">
        <path
           sodipodi:nodetypes="ccscccccccccccsc"
           inkscape:connector-curvature="0"
           id="path5644"
           d="m 640.42136,656.75054 c -1.27491,-3.06857 -4.62111,-6.00768 -7.89268,-8.95146 -3.52925,-0.61543 -6.88428,0.51624 -10.58775,3.27258 -11.22208,8.35213 -22.76978,5.84683 -35.42081,9.24021 8.86473,-4.46714 24.29899,-14.45067 44.56476,-13.86032 -8.12214,-7.62935 -17.98705,-11.73205 -27.72061,-19.44294 -4.64908,-3.77807 -8.5736,-8.71543 -12.60905,-13.47531 -1.7793,-2.53465 -4.81537,-5.06929 -7.41142,-7.60393 5.71272,2.24414 10.67181,5.24189 15.49661,8.37394 13.0183,7.6181 17.45939,15.69569 23.67805,23.67805 2.89597,3.1148 6.16005,4.94122 9.2402,7.41142 l -2.37328,-6.39252 c -7.92235,-13.01675 -8.89802,-33.4644 -9.27324,-49.04875 3.62983,17.94887 11.60583,27.16203 10.39524,49.13675 1.65436,3.27987 1.84322,6.02521 4.33752,9.11906 1.27722,1.58422 3.00051,2.64033 4.7102,4.50062"
           style="fill:#ffffff;fill-opacity:1;fill-rule:evenodd;stroke:#000000;stroke-width:0.19056962px;stroke-linecap:butt;stroke-linejoin:miter;stroke-opacity:1" />
        <g
           transform="matrix(0.7202632,0,0,0.7202632,803.5848,525.59459)"
           id="g5680">
          <g
             id="g5656"
             transform="translate(0,65.481034)">
            <path
               style="opacity:1;vector-effect:none;fill:#ffffff;fill-opacity:1;stroke:#000000;stroke-width:0.26458332;stroke-linecap:round;stroke-linejoin:miter;stroke-miterlimit:4;stroke-dasharray:none;stroke-dashoffset:0;stroke-opacity:1;paint-order:normal"
               d="m -227.14722,93.741524 c 7.12449,-2.11623 13.65369,-1.656125 19.31329,0 0.65643,0.192087 1.25814,0.551032 1.23459,1.23459 -0.76582,22.233216 -0.24364,43.822426 0,65.550916 0.008,0.68392 -0.59254,0.99886 -1.23459,1.23459 -6.79412,2.49451 -13.23189,2.49452 -19.31329,0 -0.63279,-0.25956 -1.25018,-0.55081 -1.23459,-1.23459 0.49545,-21.72644 0.90381,-43.47466 0,-65.550916 -0.028,-0.683391 0.57894,-1.039838 1.23459,-1.23459 z"
               id="path5646"
               inkscape:connector-curvature="0"
               sodipodi:nodetypes="sssssssss" />
            <path
               style="opacity:1;vector-effect:none;fill:#4d3214;fill-opacity:1;stroke:none;stroke-width:0.2627041;stroke-linecap:round;stroke-linejoin:miter;stroke-miterlimit:4;stroke-dasharray:none;stroke-dashoffset:0;stroke-opacity:1;paint-order:normal"
               id="path5648"
               sodipodi:type="arc"
               sodipodi:cx="-217.55739"
               sodipodi:cy="95.224037"
               sodipodi:rx="10.175464"
               sodipodi:ry="2.2177496"
               sodipodi:start="1.3770997"
               sodipodi:end="1.3747889"
               sodipodi:open="true"
               d="m -215.59874,97.400313 a 10.175464,2.2177496 0 0 1 -11.94269,-1.748129 10.175464,2.2177496 0 0 1 8.01385,-2.603928 10.175464,2.2177496 0 0 1 11.95196,1.745121 10.175464,2.2177496 0 0 1 -8.00005,2.605944" />
            <path
               d="m -213.23812,97.9379 a 11.915612,2.9119058 0 0 1 -14.65892,-1.266593"
               sodipodi:open="true"
               sodipodi:end="2.6214337"
               sodipodi:start="1.1998603"
               sodipodi:ry="2.9119058"
               sodipodi:rx="11.915612"
               sodipodi:cy="95.224037"
               sodipodi:cx="-217.55739"
               sodipodi:type="arc"
               id="path5650"
               style="opacity:1;vector-effect:none;fill:none;fill-opacity:1;stroke:#4d3214;stroke-width:0.31591249;stroke-linecap:round;stroke-linejoin:miter;stroke-miterlimit:4;stroke-dasharray:none;stroke-dashoffset:0;stroke-opacity:1;paint-order:normal" />
            <path
               style="fill:none;fill-rule:evenodd;stroke:#000000;stroke-width:0.26458332px;stroke-linecap:round;stroke-linejoin:miter;stroke-opacity:1"
               d="m -226.21875,101.20833 c 0.58992,14.54211 0.14659,25.44896 -0.072,35.4391 m -0.0789,4.4424 c -0.0588,4.67729 -0.0229,9.23809 0.24539,13.98011"
               id="path5652"
               inkscape:connector-curvature="0"
               sodipodi:nodetypes="cccc" />
            <path
               sodipodi:nodetypes="cc"
               inkscape:connector-curvature="0"
               id="path5654"
               d="m -224.03815,107.35362 c 0.14874,6.39196 0.1081,12.06207 0.0105,17.29643"
               style="fill:none;fill-rule:evenodd;stroke:#000000;stroke-width:0.26458332px;stroke-linecap:round;stroke-linejoin:miter;stroke-opacity:1" />
          </g>
          <g
             id="g5668">
            <path
               style="opacity:1;vector-effect:none;fill:#ffffff;fill-opacity:1;stroke:#000000;stroke-width:0.26458332;stroke-linecap:round;stroke-linejoin:miter;stroke-miterlimit:4;stroke-dasharray:none;stroke-dashoffset:0;stroke-opacity:1;paint-order:normal"
               d="m -227.14722,93.741524 c 7.12449,-2.11623 13.65369,-1.656125 19.31329,0 0.65643,0.192087 1.27319,0.551717 1.23459,1.23459 -1.33778,23.663846 -0.67544,44.902466 0,65.550916 0.0224,0.6836 -0.59254,0.99886 -1.23459,1.23459 -6.79412,2.49451 -13.23189,2.49452 -19.31329,0 -0.63279,-0.25956 -1.25816,-0.55104 -1.23459,-1.23459 0.73669,-21.36458 1.16635,-43.08085 0,-65.550916 -0.0354,-0.683045 0.57894,-1.039838 1.23459,-1.23459 z"
               id="path5658"
               inkscape:connector-curvature="0"
               sodipodi:nodetypes="sssssssss" />
            <path
               style="opacity:1;vector-effect:none;fill:#4d3214;fill-opacity:1;stroke:none;stroke-width:0.2627041;stroke-linecap:round;stroke-linejoin:miter;stroke-miterlimit:4;stroke-dasharray:none;stroke-dashoffset:0;stroke-opacity:1;paint-order:normal"
               id="path5660"
               sodipodi:type="arc"
               sodipodi:cx="-217.55739"
               sodipodi:cy="95.224037"
               sodipodi:rx="10.175464"
               sodipodi:ry="2.2177496"
               sodipodi:start="1.3770997"
               sodipodi:end="1.3747889"
               sodipodi:open="true"
               d="m -215.59874,97.400313 a 10.175464,2.2177496 0 0 1 -11.94269,-1.748129 10.175464,2.2177496 0 0 1 8.01385,-2.603928 10.175464,2.2177496 0 0 1 11.95196,1.745121 10.175464,2.2177496 0 0 1 -8.00005,2.605944" />
            <path
               sodipodi:nodetypes="cc"
               inkscape:connector-curvature="0"
               id="path5662"
               d="m -211.89472,98.151479 c -5.60469,1.322414 -12.74296,0.05136 -16.00232,-1.480172"
               style="opacity:1;vector-effect:none;fill:none;fill-opacity:1;stroke:#000000;stroke-width:0.31591249;stroke-linecap:round;stroke-linejoin:miter;stroke-miterlimit:4;stroke-dasharray:none;stroke-dashoffset:0;stroke-opacity:1;paint-order:normal" />
            <path
               style="fill:none;fill-rule:evenodd;stroke:#000000;stroke-width:0.26458332px;stroke-linecap:round;stroke-linejoin:miter;stroke-opacity:1"
               d="m -226.21875,101.20833 c -0.23375,6.18859 -0.24171,11.80688 -0.15918,17.1059 m 0.10996,5.2928 c 0.26983,10.74481 0.7367,20.45511 0.14372,31.46291"
               id="path5664"
               inkscape:connector-curvature="0"
               sodipodi:nodetypes="cccc" />
            <path
               style="opacity:1;vector-effect:none;fill:none;fill-opacity:1;stroke:#000000;stroke-width:0.31591249;stroke-linecap:round;stroke-linejoin:miter;stroke-miterlimit:4;stroke-dasharray:none;stroke-dashoffset:0;stroke-opacity:1;paint-order:normal"
               d="m -224.04955,98.958745 c -1.53532,-0.350078 -2.86694,-0.787253 -3.84749,-1.248003"
               id="path5666"
               inkscape:connector-curvature="0"
               sodipodi:nodetypes="cc" />
          </g>
          <g
             transform="translate(0,-66.015573)"
             id="g5678">
            <path
               sodipodi:nodetypes="sssssssss"
               inkscape:connector-curvature="0"
               id="path5670"
               d="m -227.14722,93.741524 c 7.12449,-2.11623 13.65369,-1.656125 19.31329,0 0.65643,0.192087 1.25814,0.551032 1.23459,1.23459 -0.76582,22.233216 -0.24364,43.822426 0,65.550916 0.008,0.68392 -0.59254,0.99886 -1.23459,1.23459 -6.79412,2.49451 -13.23189,2.49452 -19.31329,0 -0.63279,-0.25956 -1.25018,-0.55081 -1.23459,-1.23459 0.49545,-21.72644 0.90381,-43.47466 0,-65.550916 -0.028,-0.683391 0.57894,-1.039838 1.23459,-1.23459 z"
               style="opacity:1;vector-effect:none;fill:#ffffff;fill-opacity:1;stroke:#000000;stroke-width:0.26458332;stroke-linecap:round;stroke-linejoin:miter;stroke-miterlimit:4;stroke-dasharray:none;stroke-dashoffset:0;stroke-opacity:1;paint-order:normal" />
            <path
               d="m -215.59874,97.400313 a 10.175464,2.2177496 0 0 1 -11.94269,-1.748129 10.175464,2.2177496 0 0 1 8.01385,-2.603928 10.175464,2.2177496 0 0 1 11.95196,1.745121 10.175464,2.2177496 0 0 1 -8.00005,2.605944"
               sodipodi:open="true"
               sodipodi:end="1.3747889"
               sodipodi:start="1.3770997"
               sodipodi:ry="2.2177496"
               sodipodi:rx="10.175464"
               sodipodi:cy="95.224037"
               sodipodi:cx="-217.55739"
               sodipodi:type="arc"
               id="path5672"
               style="opacity:1;vector-effect:none;fill:#000000;fill-opacity:1;stroke:none;stroke-width:0.2627041;stroke-linecap:round;stroke-linejoin:miter;stroke-miterlimit:4;stroke-dasharray:none;stroke-dashoffset:0;stroke-opacity:1;paint-order:normal" />
            <path
               sodipodi:nodetypes="cc"
               inkscape:connector-curvature="0"
               id="path5674"
               d="m -213.20471,98.271987 c -5.49564,0.52235 -11.76157,-0.350253 -14.69233,-1.60068"
               style="opacity:1;vector-effect:none;fill:none;fill-opacity:1;stroke:#4d3214;stroke-width:0.31591249;stroke-linecap:round;stroke-linejoin:miter;stroke-miterlimit:4;stroke-dasharray:none;stroke-dashoffset:0;stroke-opacity:1;paint-order:normal" />
            <path
               sodipodi:nodetypes="cccccc"
               inkscape:connector-curvature="0"
               id="path5676"
               d="m -226.21875,101.20833 c -0.0506,1.33889 -0.0906,2.65108 -0.12138,3.93912 m -0.0638,3.58691 c -0.0772,6.5568 0.065,12.51002 0.22619,18.23126 m 0.21178,7.64929 c 0.16486,6.69705 0.22705,13.30211 -0.15827,20.45503"
               style="fill:none;fill-rule:evenodd;stroke:#000000;stroke-width:0.26458332px;stroke-linecap:round;stroke-linejoin:miter;stroke-opacity:1" />
          </g>
        </g>
      </g>
    </g>
  </g>
</svg>
