<?xml version="1.0" encoding="UTF-8" standalone="no"?>
<!-- Created with Inkscape (http://www.inkscape.org/) -->

<svg
   xmlns:dc="http://purl.org/dc/elements/1.1/"
   xmlns:cc="http://creativecommons.org/ns#"
   xmlns:rdf="http://www.w3.org/1999/02/22-rdf-syntax-ns#"
   xmlns:svg="http://www.w3.org/2000/svg"
   xmlns="http://www.w3.org/2000/svg"
   xmlns:xlink="http://www.w3.org/1999/xlink"
   xmlns:sodipodi="http://sodipodi.sourceforge.net/DTD/sodipodi-0.dtd"
   xmlns:inkscape="http://www.inkscape.org/namespaces/inkscape"
   width="147.90683mm"
   height="210.00002mm"
   viewBox="0 0 147.90683 210.00002"
   version="1.1"
   id="svg8"
   inkscape:version="0.92.1 r15371"
   sodipodi:docname="haik-monochrome.svg">
  <defs
     id="defs2">
    <linearGradient
       inkscape:collect="always"
       id="linearGradient4641">
      <stop
         style="stop-color:#fafafa;stop-opacity:1"
         offset="0"
         id="stop4637" />
      <stop
         style="stop-color:#ebebeb;stop-opacity:1"
         offset="1"
         id="stop4639" />
    </linearGradient>
    <clipPath
       clipPathUnits="userSpaceOnUse"
       id="clipPath7601">
      <path
         inkscape:connector-curvature="0"
         style="opacity:1;vector-effect:none;fill:#fcfcfc;fill-opacity:1;stroke:none;stroke-width:1.15445137;stroke-linecap:round;stroke-linejoin:round;stroke-miterlimit:4;stroke-dasharray:none;stroke-dashoffset:0;stroke-opacity:1;paint-order:normal"
         d="M 43.821178,60.294422 V 298.06227 H 211.93956 V 60.294422 Z"
         id="path7603" />
    </clipPath>
    <clipPath
       clipPathUnits="userSpaceOnUse"
       id="clipPath4870">
      <path
         style="fill:none;fill-rule:evenodd;stroke:#00ee00;stroke-width:0.24507815px;stroke-linecap:butt;stroke-linejoin:miter;stroke-opacity:1"
         d="m 252.6027,241.88444 c 0.62434,-0.47826 0.89667,-1.65904 1.0763,-2.42471 0.28119,-1.19848 0.24065,-2.29321 0.24445,-3.52423 0.0117,-3.7732 -0.0735,-7.55659 -0.45458,-11.31052 -0.36131,-3.55911 -2.63395,-8.93789 -6.20544,-11.70288 -2.91589,-2.25744 -6.76693,-3.45389 -10.59779,-1.54701 -3.45665,1.72061 -5.95983,4.58877 -7.09979,8.07847 -0.44437,1.36031 -0.97995,2.75859 -0.88979,4.19257 0.22918,3.64522 -0.0911,5.50344 -0.16638,7.74357 -0.10656,3.1693 0.15449,6.5037 1.43623,9.40421 0.68999,1.56139 1.63093,3.36343 3.22275,3.97995 6.17308,2.39084 14.17883,1.13624 19.43404,-2.88942 z"
         id="path4872"
         inkscape:connector-curvature="0"
         sodipodi:nodetypes="ssssssssssss" />
    </clipPath>
    <linearGradient
       inkscape:collect="always"
       xlink:href="#linearGradient4675"
       id="linearGradient7017"
       gradientUnits="userSpaceOnUse"
       gradientTransform="translate(130.78239,248.60011)"
       x1="98.817207"
       y1="16.147451"
       x2="123.39385"
       y2="16.147451" />
    <linearGradient
       inkscape:collect="always"
       id="linearGradient4675">
      <stop
         style="stop-color:#e6c8d0;stop-opacity:1"
         offset="0"
         id="stop4671" />
      <stop
         style="stop-color:#e6c8c6;stop-opacity:1"
         offset="1"
         id="stop4673" />
    </linearGradient>
    <clipPath
       clipPathUnits="userSpaceOnUse"
       id="clipPath4669">
      <path
         sodipodi:nodetypes="cccccc"
         inkscape:connector-curvature="0"
         id="path4671"
         d="m 122.70003,15.705058 c -3.86449,-0.966114 -4.74022,-3.780409 -5.76365,-6.7229155 L 105.69159,8.8404012 c -0.0475,4.2150228 -1.66818,7.9863018 -6.61458,10.8195688 l 6.18936,3.779761 z"
         style="fill:url(#linearGradient4673);fill-opacity:1;fill-rule:evenodd;stroke:none;stroke-width:0.26458332px;stroke-linecap:butt;stroke-linejoin:miter;stroke-opacity:1" />
    </clipPath>
    <filter
       inkscape:collect="always"
       style="color-interpolation-filters:sRGB"
       id="filter4661"
       x="-0.052589335"
       width="1.1051787"
       y="-0.034960408"
       height="1.0699208">
      <feGaussianBlur
         inkscape:collect="always"
         stdDeviation="0.59513138"
         id="feGaussianBlur4663" />
    </filter>
    <linearGradient
       inkscape:collect="always"
       xlink:href="#linearGradient4675"
       id="linearGradient7019"
       gradientUnits="userSpaceOnUse"
       gradientTransform="translate(130.78239,248.60011)"
       x1="97.094391"
       y1="-9.6086073"
       x2="124.35435"
       y2="-9.6086073" />
    <radialGradient
       inkscape:collect="always"
       xlink:href="#linearGradient4683"
       id="radialGradient7021"
       gradientUnits="userSpaceOnUse"
       gradientTransform="matrix(0.73903678,0.04145691,-0.10200216,1.8183547,157.55379,252.69042)"
       cx="107.37393"
       cy="-10.375482"
       fx="107.37393"
       fy="-10.375482"
       r="4.0775237" />
    <linearGradient
       inkscape:collect="always"
       id="linearGradient4683">
      <stop
         style="stop-color:#000000;stop-opacity:1;"
         offset="0"
         id="stop4679" />
      <stop
         style="stop-color:#000000;stop-opacity:0;"
         offset="1"
         id="stop4681" />
    </linearGradient>
    <linearGradient
       inkscape:collect="always"
       xlink:href="#linearGradient4627"
       id="linearGradient7023"
       gradientUnits="userSpaceOnUse"
       x1="112.30423"
       y1="-16.701254"
       x2="122.08163"
       y2="-16.701254" />
    <linearGradient
       inkscape:collect="always"
       id="linearGradient4627">
      <stop
         style="stop-color:#200000;stop-opacity:1;"
         offset="0"
         id="stop4623" />
      <stop
         style="stop-color:#200000;stop-opacity:0;"
         offset="1"
         id="stop4625" />
    </linearGradient>
    <clipPath
       clipPathUnits="userSpaceOnUse"
       id="clipPath4643">
      <path
         sodipodi:nodetypes="ccc"
         inkscape:connector-curvature="0"
         id="path4645"
         d="m 120.05413,-13.466965 c -1.60828,2.9898 -5.40114,0.837209 -5.91334,0.818513 3.1207,-2.868681 4.81844,-1.465388 5.91334,-0.818513 z"
         style="fill:none;fill-opacity:1;fill-rule:evenodd;stroke:#000000;stroke-width:0.26458332px;stroke-linecap:butt;stroke-linejoin:miter;stroke-opacity:1" />
    </clipPath>
    <linearGradient
       inkscape:collect="always"
       xlink:href="#linearGradient4627"
       id="linearGradient7025"
       gradientUnits="userSpaceOnUse"
       gradientTransform="translate(130.78239,248.60011)"
       x1="112.30423"
       y1="-16.701254"
       x2="122.08163"
       y2="-16.701254" />
    <clipPath
       clipPathUnits="userSpaceOnUse"
       id="clipPath1630">
      <path
         sodipodi:nodetypes="ccc"
         inkscape:connector-curvature="0"
         id="path1628"
         d="m 120.05413,-13.466965 c -1.60828,2.9898 -5.40114,0.837209 -5.91334,0.818513 3.1207,-2.868681 4.81844,-1.465388 5.91334,-0.818513 z"
         style="fill:none;fill-opacity:1;fill-rule:evenodd;stroke:#000000;stroke-width:0.26458332px;stroke-linecap:butt;stroke-linejoin:miter;stroke-opacity:1" />
    </clipPath>
    <radialGradient
       inkscape:collect="always"
       xlink:href="#linearGradient4683"
       id="radialGradient7027"
       gradientUnits="userSpaceOnUse"
       gradientTransform="matrix(1,0,0,0.73639138,0,-1.0247987)"
       cx="113.09428"
       cy="-3.8875768"
       fx="113.09428"
       fy="-3.8875768"
       r="0.78488082" />
    <radialGradient
       inkscape:collect="always"
       xlink:href="#linearGradient4683"
       id="radialGradient7029"
       gradientUnits="userSpaceOnUse"
       gradientTransform="matrix(1,0,0,0.73639138,0,-1.0247987)"
       cx="113.09428"
       cy="-3.8875768"
       fx="113.09428"
       fy="-3.8875768"
       r="0.78488082" />
    <radialGradient
       inkscape:collect="always"
       xlink:href="#linearGradient4641"
       id="radialGradient7031"
       gradientUnits="userSpaceOnUse"
       gradientTransform="matrix(1,0,0,0.81669497,0,49.272632)"
       cx="135.8837"
       cy="268.8013"
       fx="135.8837"
       fy="268.8013"
       r="40.035629" />
    <linearGradient
       id="haik-9"
       inkscape:collect="always">
      <stop
         id="stop4953"
         offset="0"
         style="stop-color:#fffff5;stop-opacity:1" />
      <stop
         id="stop4955"
         offset="1"
         style="stop-color:#eeeee9;stop-opacity:1" />
    </linearGradient>
    <radialGradient
       inkscape:collect="always"
       xlink:href="#linearGradient4641"
       id="radialGradient7033"
       gradientUnits="userSpaceOnUse"
       gradientTransform="matrix(0.5261481,0.3147292,-0.56938438,0.95186756,214.00299,-45.268249)"
       cx="150.98495"
       cy="245.49788"
       fx="150.98495"
       fy="245.49788"
       r="18.426689" />
    <linearGradient
       inkscape:collect="always"
       xlink:href="#linearGradient4985"
       id="linearGradient7035"
       gradientUnits="userSpaceOnUse"
       x1="550.09332"
       y1="916.97968"
       x2="609.39929"
       y2="928.76538" />
    <linearGradient
       id="linearGradient4985"
       inkscape:collect="always">
      <stop
         id="stop4979"
         offset="0"
         style="stop-color:#343434;stop-opacity:0.92842942" />
      <stop
         style="stop-color:#1e1e1e;stop-opacity:1"
         offset="0.19401862"
         id="stop4981" />
      <stop
         id="stop4983"
         offset="1"
         style="stop-color:#000000;stop-opacity:1" />
    </linearGradient>
    <linearGradient
       inkscape:collect="always"
       xlink:href="#linearGradient4985"
       id="linearGradient7037"
       gradientUnits="userSpaceOnUse"
       x1="549.60522"
       y1="922.10901"
       x2="505.96848"
       y2="922.8233" />
    <clipPath
       clipPathUnits="userSpaceOnUse"
       id="clipPath4674">
      <path
         sodipodi:nodetypes="cccccccccc"
         inkscape:connector-curvature="0"
         id="path4676"
         d="m 135.4413,264.08514 c 2.29387,0.31358 5.45213,0.71376 7.77974,1.32125 1.35447,0.35348 2.36542,0.1883 3.44904,0 0.58044,-0.10089 1.12774,-0.1256 1.74814,-0.0945 2.21784,0.11115 4.39986,0.15348 6.66183,-0.33073 1.44489,-0.30929 2.93053,-0.20009 4.48846,-0.23624 1.19949,-0.0278 1.90346,-0.53656 2.74033,-0.85045 -4.31354,21.46876 7.2412,43.15194 -9.09435,40.00176 l -13.37091,0.14174 c -11.65396,1.22566 -3.22933,-28.22369 -4.40228,-39.95282 z"
         style="fill:none;fill-opacity:1;fill-rule:evenodd;stroke:#000000;stroke-width:0.26458332px;stroke-linecap:butt;stroke-linejoin:miter;stroke-opacity:1" />
    </clipPath>
    <filter
       inkscape:collect="always"
       style="color-interpolation-filters:sRGB"
       id="filter4664"
       x="-0.066528231"
       width="1.1330565"
       y="-0.050784599"
       height="1.1015692">
      <feGaussianBlur
         inkscape:collect="always"
         stdDeviation="0.74482004"
         id="feGaussianBlur4666" />
    </filter>
    <filter
       inkscape:collect="always"
       style="color-interpolation-filters:sRGB"
       id="filter4714"
       x="-0.038812485"
       width="1.077625"
       y="-0.021413798"
       height="1.0428276">
      <feGaussianBlur
         inkscape:collect="always"
         stdDeviation="0.19560264"
         id="feGaussianBlur4716" />
    </filter>
    <radialGradient
       inkscape:collect="always"
       xlink:href="#linearGradient4641"
       id="radialGradient7039"
       gradientUnits="userSpaceOnUse"
       gradientTransform="matrix(0.31746269,0,0,0.38598222,-186.24169,-110.23218)"
       cx="713.3429"
       cy="1002.5218"
       fx="713.3429"
       fy="1002.5218"
       r="111.45817" />
    <linearGradient
       inkscape:collect="always"
       xlink:href="#haik-9"
       id="linearGradient7041"
       gradientUnits="userSpaceOnUse"
       gradientTransform="matrix(0.31746269,0,0,0.31746269,-186.24169,-41.539871)"
       x1="800.46881"
       y1="960.88135"
       x2="823.55444"
       y2="993.02423" />
    <linearGradient
       inkscape:collect="always"
       xlink:href="#haik-9"
       id="linearGradient7043"
       gradientUnits="userSpaceOnUse"
       x1="159.56979"
       y1="252.87041"
       x2="166.66833"
       y2="252.87041" />
    <clipPath
       clipPathUnits="userSpaceOnUse"
       id="clipPath5381">
      <path
         sodipodi:nodetypes="csscscc"
         inkscape:connector-curvature="0"
         id="path5383"
         d="m 164.56471,249.35806 c -1.26162,-0.89964 -2.41581,-1.9272 -3.63693,-2.73518 -1.79126,-1.18522 -1.54169,0.75302 -0.33408,2.47224 2.38354,3.39334 4.35503,7.22549 6.01356,10.42351 l -2.2668,-5.45153 c -0.58303,-1.40215 -0.70236,-2.94527 0.17658,-4.75452 z"
         style="fill:#000000;fill-opacity:0.28628229;fill-rule:evenodd;stroke:#000000;stroke-width:0.13229169;stroke-linecap:butt;stroke-linejoin:miter;stroke-miterlimit:4;stroke-dasharray:none;stroke-opacity:1" />
    </clipPath>
    <filter
       inkscape:collect="always"
       style="color-interpolation-filters:sRGB"
       id="filter5367"
       x="-0.21124507"
       width="1.4224902"
       y="-0.098550186"
       height="1.1971004">
      <feGaussianBlur
         inkscape:collect="always"
         stdDeviation="0.30866534"
         id="feGaussianBlur5369" />
    </filter>
    <linearGradient
       inkscape:collect="always"
       xlink:href="#linearGradient4985"
       id="linearGradient7045"
       gradientUnits="userSpaceOnUse"
       x1="169.53975"
       y1="261.08069"
       x2="163.72174"
       y2="259.82788"
       gradientTransform="matrix(1.199859,0,0,1.199859,-186.60021,-41.784206)" />
    <linearGradient
       inkscape:collect="always"
       xlink:href="#linearGradient4985"
       id="linearGradient7047"
       gradientUnits="userSpaceOnUse"
       x1="171.64986"
       y1="258.18942"
       x2="177.42703"
       y2="258.18942"
       gradientTransform="matrix(1.199859,0,0,1.199859,-186.60021,-41.784206)" />
    <filter
       inkscape:collect="always"
       style="color-interpolation-filters:sRGB"
       id="filter5807"
       x="-0.11160698"
       width="1.223214"
       y="-0.13550399"
       height="1.271008">
      <feGaussianBlur
         inkscape:collect="always"
         stdDeviation="0.14149618"
         id="feGaussianBlur5809" />
    </filter>
    <clipPath
       clipPathUnits="userSpaceOnUse"
       id="clipPath5866">
      <path
         sodipodi:nodetypes="ccccccc"
         inkscape:connector-curvature="0"
         id="path5868"
         d="m 176.01048,261.79199 c -0.82656,-0.45085 -1.02675,-1.53344 -0.8977,-2.38598 l -0.24804,-1.09849 -1.33473,0.7914 1.47647,4.97274 1.37016,-0.5079 z"
         style="fill:none;fill-rule:evenodd;stroke:#000000;stroke-width:0.02645833;stroke-linecap:butt;stroke-linejoin:miter;stroke-miterlimit:4;stroke-dasharray:none;stroke-opacity:1" />
    </clipPath>
    <filter
       inkscape:collect="always"
       style="color-interpolation-filters:sRGB"
       id="filter5860"
       x="-0.24319828"
       width="1.4863966"
       y="-0.095165484"
       height="1.190331">
      <feGaussianBlur
         inkscape:collect="always"
         stdDeviation="0.094609557"
         id="feGaussianBlur5862" />
    </filter>
    <clipPath
       clipPathUnits="userSpaceOnUse"
       id="clipPath7583">
      <path
         id="path7585"
         d="M -208.47563,0.20360514 V 148.70358 h 104.9998 V 0.20360514 Z"
         style="opacity:1;vector-effect:none;fill:#fcfcfc;fill-opacity:1;stroke:none;stroke-width:0.72102267;stroke-linecap:round;stroke-linejoin:round;stroke-miterlimit:4;stroke-dasharray:none;stroke-dashoffset:0;stroke-opacity:1;paint-order:normal"
         inkscape:connector-curvature="0" />
    </clipPath>
    <radialGradient
       inkscape:collect="always"
       xlink:href="#linearGradient4712"
       id="radialGradient7015"
       gradientUnits="userSpaceOnUse"
       gradientTransform="matrix(0.01616016,4.8668403,-1.6678572,0.00553806,1061.7354,-1899.0792)"
       cx="408.51691"
       cy="395.60953"
       fx="408.51691"
       fy="395.60953"
       r="198.4248" />
    <linearGradient
       inkscape:collect="always"
       id="linearGradient4712">
      <stop
         style="stop-color:#bb6055;stop-opacity:1;"
         offset="0"
         id="stop4708" />
      <stop
         style="stop-color:#b65549;stop-opacity:1"
         offset="1"
         id="stop4710" />
    </linearGradient>
    <clipPath
       clipPathUnits="userSpaceOnUse"
       id="clipPath1541">
      <rect
         style="opacity:1;vector-effect:none;fill:none;fill-opacity:1;stroke:none;stroke-width:0.51099509;stroke-linecap:round;stroke-linejoin:round;stroke-miterlimit:4;stroke-dasharray:none;stroke-dashoffset:0;stroke-opacity:1;paint-order:normal"
         id="rect1543"
         width="105.06593"
         height="149.08005"
         x="105.26582"
         y="0.20363538"
         ry="0" />
    </clipPath>
    <clipPath
       clipPathUnits="userSpaceOnUse"
       id="clipPath1547">
      <rect
         style="opacity:1;vector-effect:none;fill:none;fill-opacity:1;stroke:none;stroke-width:0.7198078;stroke-linecap:round;stroke-linejoin:round;stroke-miterlimit:4;stroke-dasharray:none;stroke-dashoffset:0;stroke-opacity:1;paint-order:normal"
         id="rect1549"
         width="148"
         height="210"
         x="-80.255898"
         y="106.66564"
         ry="0" />
    </clipPath>
    <clipPath
       clipPathUnits="userSpaceOnUse"
       id="clipPath1647">
      <rect
         ry="0"
         y="106.66564"
         x="-80.255898"
         height="210"
         width="148"
         id="rect1649"
         style="opacity:1;vector-effect:none;fill:none;fill-opacity:1;stroke:none;stroke-width:0.7198078;stroke-linecap:round;stroke-linejoin:round;stroke-miterlimit:4;stroke-dasharray:none;stroke-dashoffset:0;stroke-opacity:1;paint-order:normal" />
    </clipPath>
  </defs>
  <sodipodi:namedview
     id="base"
     pagecolor="#ffffff"
     bordercolor="#666666"
     borderopacity="1.0"
     inkscape:pageopacity="0.0"
     inkscape:pageshadow="2"
     inkscape:zoom="0.76699219"
     inkscape:cx="105.97309"
     inkscape:cy="292.43847"
     inkscape:document-units="mm"
     inkscape:current-layer="layer1"
     showgrid="false"
     inkscape:window-width="1916"
     inkscape:window-height="1039"
     inkscape:window-x="0"
     inkscape:window-y="39"
     inkscape:window-maximized="0"
     fit-margin-top="0"
     fit-margin-left="0"
     fit-margin-right="0"
     fit-margin-bottom="0" />
  <metadata
     id="metadata5">
    <rdf:RDF>
      <cc:Work
         rdf:about="">
        <dc:format>image/svg+xml</dc:format>
        <dc:type
           rdf:resource="http://purl.org/dc/dcmitype/StillImage" />
        <dc:title></dc:title>
      </cc:Work>
    </rdf:RDF>
  </metadata>
  <g
     inkscape:label="Layer 1"
     inkscape:groupmode="layer"
     id="layer1"
     transform="translate(80.209163,-106.66564)">
    <path
       sodipodi:nodetypes="ccccccccccccccccccccccccccccccccccccccccccc"
       inkscape:connector-curvature="0"
       style="fill:none;fill-opacity:1;fill-rule:evenodd;stroke:#000000;stroke-width:0.18635124px;stroke-linecap:butt;stroke-linejoin:miter;stroke-opacity:1"
       d="m 17.252155,106.66557 -0.726844,4.18781 -3.623661,0.23512 1.08244,-4.18853 -4.2354893,0.61183 -1.3648729,4.3767 -2.7763436,0.42366 1.3175638,-4.09426 -4.0003666,0.75304 -1.1293906,3.85878 -2.21183142,0.32939 0.89426763,-3.67061 -3.43548821,0.65879 -1.1912581,4.02256 -2.1066482,0.16197 V 315.84849 H 67.697649 V 106.66557 h -0.263507 l 0.105183,0.89354 -5.647313,0.65879 0.01564,-1.55233 h -7.095175 l 0.02036,2.44623 -4.612188,0.56488 -0.06663,-3.01111 h -6.193632 l 0.142674,3.38745 -4.282799,0.32975 -0.243335,-3.72382 -5.479326,0.007 -0.254048,4.75232 -3.906093,0.47061 0.460054,-5.22293 h -5.35578 l -0.374888,3.19927 -3.247315,0.42366 0.329389,-3.62293 z m -22.3996403,3.77726 -1.1082822,0.17798 v 2.54668 z"
       id="path6775"
       inkscape:export-filename="/tmp/haik-choix.png"
       inkscape:export-xdpi="128.14708"
       inkscape:export-ydpi="128.14708" />
    <path
       sodipodi:nodetypes="ccccccccccccccccccccccccccccccccccccccccccc"
       inkscape:connector-curvature="0"
       id="path6777"
       d="m 17.252155,106.66557 -0.726844,4.18781 -3.623661,0.23512 1.08244,-4.18853 -4.2354893,0.61183 -1.3648729,4.3767 -2.7763436,0.42366 1.3175638,-4.09426 -4.0003666,0.75304 -1.1293906,3.85878 -2.21183142,0.32939 0.89426763,-3.67061 -3.43548821,0.65879 -1.1912581,4.02256 -2.1066482,0.16197 V 315.84849 H 67.697649 V 106.66557 h -0.263507 l 0.105183,0.89354 -5.647313,0.65879 0.01564,-1.55233 h -7.095175 l 0.02036,2.44623 -4.612188,0.56488 -0.06663,-3.01111 h -6.193632 l 0.142674,3.38745 -4.282799,0.32975 -0.243335,-3.72382 -5.479326,0.007 -0.254048,4.75232 -3.906093,0.47061 0.460054,-5.22293 h -5.35578 l -0.374888,3.19927 -3.247315,0.42366 0.329389,-3.62293 z m -22.3996403,3.77726 -1.1082822,0.17798 v 2.54668 z"
       style="fill:none;fill-opacity:1;fill-rule:evenodd;stroke:none;stroke-width:0.18635124px;stroke-linecap:butt;stroke-linejoin:miter;stroke-opacity:1"
       inkscape:export-filename="/tmp/haik-choix.png"
       inkscape:export-xdpi="128.14708"
       inkscape:export-ydpi="128.14708" />
    <rect
       ry="0"
       y="106.6656"
       x="-80.209465"
       height="209.18294"
       width="147.90714"
       id="rect6781"
       style="opacity:1;vector-effect:none;fill:#fcfcfc;fill-opacity:1;stroke:none;stroke-width:0.71818072;stroke-linecap:round;stroke-linejoin:round;stroke-miterlimit:4;stroke-dasharray:none;stroke-dashoffset:0;stroke-opacity:1;paint-order:normal"
       inkscape:export-filename="/tmp/haik-choix.png"
       inkscape:export-xdpi="128.14708"
       inkscape:export-ydpi="128.14708" />
    <rect
       style="opacity:1;vector-effect:none;fill:none;fill-opacity:1;stroke:none;stroke-width:1.01566088;stroke-linecap:round;stroke-linejoin:round;stroke-miterlimit:4;stroke-dasharray:none;stroke-dashoffset:0;stroke-opacity:1;paint-order:normal"
       id="rect6845"
       width="147.90712"
       height="418.36588"
       x="-80.209457"
       y="106.66564"
       ry="0"
       clip-path="url(#clipPath1547)" />
    <g
       id="g6853"
       transform="matrix(1.4086393,0,0,1.4086393,-228.53747,106.37879)"
       clip-path="url(#clipPath1541)">
      <path
         style="fill:#747474;fill-opacity:1;fill-rule:evenodd;stroke:none;stroke-width:0.99999994px;stroke-linecap:butt;stroke-linejoin:miter;stroke-opacity:1"
         d="M 547.13086,0 545.36328,19.441406 555.4082,18.130859 556.72852,9.875 550.56445,0 Z m 46.41016,0 -2.46875,28.027344 7.55859,-0.910156 L 600.06641,0 Z m 49.25976,0 1.30469,19.947266 2.5332,-0.195313 0.44727,-8.716797 L 642.8125,0 Z m -137.33789,1.2578125 -5.80859,22.4765625 15.04687,-0.976563 2.29492,-5.917968 z m -37.88086,7.0722656 -7.07031,21.9707029 14.89844,-2.273437 2.61914,-8.400391 z m -34.59765,6.8183599 -4.79883,19.697265 11.86914,-1.767578 2.94336,-10.054687 z m -30.18555,5.121093 -5.94727,14.621094 v 6.248047 l 11.30469,-0.869141 4.04297,-13.654297 z"
         transform="matrix(0.26458333,0,0,0.26458333,0.29879773,0.20363609)"
         id="path6847"
         inkscape:connector-curvature="0" />
      <path
         style="fill:#585858;fill-opacity:1;fill-rule:evenodd;stroke:none;stroke-width:0.99999994px;stroke-linecap:butt;stroke-linejoin:miter;stroke-opacity:1"
         d="m 720.65039,0 1.96289,13.378906 2.05274,-0.251953 L 724.55664,0 Z m 58.46289,0 1.58203,6.2128906 L 792.85156,4.7949219 792.28711,0 Z"
         transform="matrix(0.26458333,0,0,0.26458333,0.29879773,0.20363609)"
         id="path6849"
         inkscape:connector-curvature="0" />
      <path
         style="fill:#090909;fill-opacity:1;fill-rule:evenodd;stroke:none;stroke-width:0.99999994px;stroke-linecap:butt;stroke-linejoin:miter;stroke-opacity:1"
         d="m 524.12891,0.76953125 -3.90039,22.47265675 -19.44532,1.261718 5.8086,-22.4765622 -22.72852,3.2832031 -7.32422,23.4863281 -14.89844,2.273437 7.07032,-21.9707026 -21.4668,4.0410156 -6.06055,20.707031 -11.86914,1.767578 4.79883,-19.697265 -18.43555,3.535156 -6.39257,21.585937 -11.30469,0.869141 V 1123.2891 H 794.83008 V 0.76953125 h -1.41406 l 0.56445,4.79492185 -30.30469,3.5351563 0.084,-8.33007815 h -38.07422 l 0.10937,13.12695275 -24.75,3.03125 L 700.6875,0.76953125 H 667.45117 L 668.2168,18.947266 645.23438,20.716797 646.62305,0.76953125 H 614.52539 L 613.16211,26.271484 592.20117,28.796875 594.66992,0.76953125 H 565.92969 L 563.91797,17.9375 546.49219,20.210938 548.25977,0.76953125 Z M 403.92773,21.039062 l -5.94726,0.955079 v 13.666015 z"
         id="path6851"
         transform="scale(0.26458333)"
         inkscape:connector-curvature="0" />
    </g>
    <g
       id="g1645"
       clip-path="url(#clipPath1647)">
      <g
         transform="matrix(1.199859,0,0,1.199859,-186.60021,-41.784206)"
         id="g6957">
        <g
           clip-path="url(#clipPath4870)"
           style="opacity:1;stroke:none"
           transform="matrix(1.0715851,-0.13120471,0.13120471,1.0715851,-140.85912,40.577567)"
           id="g6919">
          <path
             sodipodi:nodetypes="cccccc"
             inkscape:connector-curvature="0"
             id="path6871"
             d="m 253.4824,264.30517 c -3.8645,-0.96612 -4.7402,-3.78041 -5.7636,-6.72292 l -11.2448,-0.14174 c -0.048,4.21502 -1.6682,7.9863 -6.6146,10.81957 l 6.1894,3.77976 z"
             style="fill:url(#linearGradient7017);fill-opacity:1;fill-rule:evenodd;stroke:none;stroke-width:0.26458332px;stroke-linecap:butt;stroke-linejoin:miter;stroke-opacity:1"
             inkscape:export-xdpi="96"
             inkscape:export-ydpi="96" />
          <path
             transform="translate(130.78239,248.60011)"
             clip-path="url(#clipPath4669)"
             style="opacity:1;fill:#000000;fill-opacity:1;fill-rule:evenodd;stroke:none;stroke-width:0.1;stroke-linecap:butt;stroke-linejoin:miter;stroke-miterlimit:4;stroke-dasharray:none;stroke-opacity:1;filter:url(#filter4661)"
             d="m 119.17083,-26.243176 c 2.50117,1.929502 2.76673,5.110094 3.00522,7.673181 0.68906,2.763354 1.12042,4.894422 1.61115,7.755635 0.50816,1.6943999 0.58403,3.2272681 0.47247,4.7719488 -0.30373,1.8199334 -0.35748,3.288876 -0.47247,4.5357143 -0.56571,2.4062358 -1.25952,4.5113076 -2.6654,6.5444083 -2.34758,2.6136802 -3.86932,3.7955016 -5.50457,4.9376019 -2.97234,1.1841227 -5.63842,1.1244947 -8.55547,-0.1899716 C 103.02749,8.0168796 100.40673,3.8578472 99.077009,0.00520786 96.738277,-5.7826686 96.94923,-12.440788 97.517856,-18.657366 c 0.267618,-2.925768 0.374005,-3.417224 2.047834,-5.83177 1.30485,-1.882281 3.48338,-3.083208 5.57515,-4.015997 1.95798,-0.873123 4.21719,-1.940189 6.28385,-1.370163 3.30823,0.912477 5.80889,0.799437 7.74614,3.63212 z"
             id="path6873"
             inkscape:connector-curvature="0"
             sodipodi:nodetypes="cccccccccccccc"
             inkscape:export-xdpi="96"
             inkscape:export-ydpi="96" />
          <path
             sodipodi:nodetypes="cccccccccccccc"
             inkscape:connector-curvature="0"
             id="path6875"
             d="m 249.9532,222.35693 c 2.5012,1.92951 2.7668,5.1101 3.0053,7.67318 0.689,2.76336 0.22271,5.08341 0.71341,7.94463 0.5082,1.6944 0.584,3.22726 0.4725,4.77195 -0.3038,1.81993 -0.3575,3.28887 -0.4725,4.53571 -0.5657,2.40624 -1.2595,4.51131 -2.6654,6.54441 -2.3476,2.61368 -2.97161,3.60651 -4.60691,4.74861 -2.9723,1.18413 -5.6384,1.1245 -8.5554,-0.18997 -4.0343,-1.76846 -6.6551,-5.92749 -7.9848,-9.78013 -2.3387,-5.78788 -2.1278,-12.446 -1.5591,-18.66258 0.2676,-2.92576 0.374,-3.41722 2.0478,-5.83177 1.3048,-1.88228 3.4834,-3.0832 5.5751,-4.01599 1.958,-0.87313 4.2172,-1.94019 6.2839,-1.37017 3.3082,0.91248 5.8089,0.79944 7.7461,3.63212 z"
             style="opacity:1;fill:url(#linearGradient7019);fill-opacity:1;fill-rule:evenodd;stroke:none;stroke-width:0.1;stroke-linecap:butt;stroke-linejoin:miter;stroke-miterlimit:4;stroke-dasharray:none;stroke-opacity:1"
             inkscape:export-xdpi="96"
             inkscape:export-ydpi="96" />
          <path
             sodipodi:nodetypes="ccccccccccccc"
             inkscape:connector-curvature="0"
             id="path6877"
             d="m 239.4275,231.55841 c 2.0671,2.50834 2.0545,6.49851 1.637,9.72193 -0.1381,1.06648 -0.3967,1.8588 -1.1929,2.58156 -0.2742,0.2488 -0.9758,0.36234 -1.0455,0.7259 -0.1476,0.76981 1.1588,1.00636 1.8677,1.42872 -0.7658,-0.13141 -1.5107,-0.40941 -1.8899,-1.01581 -0.2089,-0.33411 -0.1399,-0.79817 -0.047,-1.18118 0.1467,-0.60665 0.7567,-1.02799 0.9213,-1.63002 0.43,-1.57261 0.9018,-3.99746 -0.44,-4.92348 -0.8172,-0.56395 -1.8085,0.84042 -2.7639,1.11031 -0.7226,0.2041 -1.6233,0.83283 -2.2207,0.37797 -2.4306,-1.85069 -0.9213,-9.11867 -0.9213,-9.11867 0,0 4.7405,0.27864 6.0955,1.92277 z"
             style="opacity:0.40500004;fill:url(#radialGradient7021);fill-opacity:1;fill-rule:evenodd;stroke:none;stroke-width:0.1;stroke-linecap:butt;stroke-linejoin:miter;stroke-miterlimit:4;stroke-dasharray:none;stroke-opacity:1"
             inkscape:export-xdpi="96"
             inkscape:export-ydpi="96" />
          <g
             style="stroke:none"
             transform="matrix(-0.98991984,0.14162885,0.14162885,0.98991984,353.24183,233.11606)"
             id="g6889"
             inkscape:export-xdpi="96"
             inkscape:export-ydpi="96">
            <path
               sodipodi:nodetypes="ccccccc"
               inkscape:connector-curvature="0"
               id="path6879"
               d="m 112.82115,-17.476008 c 3.0101,-0.986188 6.00115,-1.553305 8.88671,0.200452 l 0.30068,1.369756 c -4.26528,-2.454364 -7.375,-0.49833 -9.35513,0.919927 l 1.37045,-1.387648 c -0.50011,-0.454606 -1.0777,-0.211947 -1.63702,-0.133635 z"
               style="fill:url(#linearGradient7023);fill-opacity:1;fill-rule:evenodd;stroke:none;stroke-width:0.1;stroke-linecap:butt;stroke-linejoin:miter;stroke-miterlimit:4;stroke-dasharray:none;stroke-opacity:1" />
            <path
               sodipodi:nodetypes="ccc"
               inkscape:connector-curvature="0"
               id="path6881"
               d="m 120.05413,-13.466965 c -1.60828,2.9898 -5.40114,0.837209 -5.91334,0.818513 3.1207,-2.868681 4.81844,-1.465388 5.91334,-0.818513 z"
               style="fill:#e5e5e5;fill-opacity:1;fill-rule:evenodd;stroke:none;stroke-width:0.1;stroke-linecap:butt;stroke-linejoin:miter;stroke-miterlimit:4;stroke-dasharray:none;stroke-opacity:1" />
            <path
               clip-path="url(#clipPath4643)"
               d="m 115.8042,-13.842076 a 1.6063988,1.6063988 0 0 1 1.66925,-1.530324 1.6063988,1.6063988 0 0 1 1.54089,1.659509 1.6063988,1.6063988 0 0 1 -1.6497,1.55138 1.6063988,1.6063988 0 0 1 -1.56182,-1.639824"
               sodipodi:open="true"
               sodipodi:end="3.162781"
               sodipodi:start="3.188158"
               sodipodi:ry="1.6063988"
               sodipodi:rx="1.6063988"
               sodipodi:cy="-13.767301"
               sodipodi:cx="117.40886"
               sodipodi:type="arc"
               id="path6883"
               style="opacity:1;fill:#000000;fill-opacity:1;stroke:none;stroke-width:0.2;stroke-linecap:round;stroke-linejoin:round;stroke-miterlimit:4;stroke-dasharray:none;stroke-dashoffset:0;stroke-opacity:1" />
            <path
               sodipodi:nodetypes="cccccc"
               inkscape:connector-curvature="0"
               id="path6885"
               d="m 117.53177,-14.385704 1.58692,0.417608 1.00226,0.467722 0.71828,-0.200452 c -2.46286,-1.54187 -4.26181,-0.832803 -6.06367,-0.0167 0.84577,-0.282011 1.45125,-0.759255 2.75621,-0.668178 z"
               style="fill:#0a0a0a;fill-opacity:1;fill-rule:evenodd;stroke:none;stroke-width:0.1;stroke-linecap:butt;stroke-linejoin:miter;stroke-miterlimit:4;stroke-dasharray:none;stroke-opacity:1" />
            <path
               sodipodi:nodetypes="ccc"
               inkscape:connector-curvature="0"
               id="path6887"
               d="m 120.95238,-13.696429 -0.35435,-0.944941 c -2.77518,-1.106607 -5.83453,-0.412836 -7.08705,1.913505"
               style="fill:none;fill-rule:evenodd;stroke:none;stroke-width:0.1;stroke-linecap:butt;stroke-linejoin:miter;stroke-miterlimit:4;stroke-dasharray:none;stroke-opacity:1" />
          </g>
          <path
             sodipodi:nodetypes="ccccccc"
             inkscape:connector-curvature="0"
             id="path6891"
             d="m 243.6036,231.1241 c 3.01,-0.98619 6.0011,-1.5533 8.8867,0.20045 l 0.3006,1.36976 c -4.2652,-2.45436 -7.375,-0.49833 -9.3551,0.91993 l 1.3705,-1.38765 c -0.5001,-0.45461 -1.0777,-0.21195 -1.6371,-0.13364 z"
             style="fill:url(#linearGradient7025);fill-opacity:1;fill-rule:evenodd;stroke:none;stroke-width:0.1;stroke-linecap:butt;stroke-linejoin:miter;stroke-miterlimit:4;stroke-dasharray:none;stroke-opacity:1"
             inkscape:export-xdpi="96"
             inkscape:export-ydpi="96" />
          <path
             sodipodi:nodetypes="cccccccc"
             inkscape:connector-curvature="0"
             id="path6893"
             d="m 242.6161,248.36908 c 1.6711,-0.83542 3.1983,-0.23652 4.7858,0.14006 0.5954,0.0178 0.8956,-0.25942 1.3327,-0.39992 -0.6775,0.35517 -1.1584,0.69068 -2.2442,1.08669 -1.1648,0.35061 -2.4225,0.59497 -3.8979,0.59058 -1.9769,-0.0694 -4.3051,0.48214 -6.1468,-0.39619 0.6038,0.072 1.325,0.0793 1.7122,-0.10857 1.101,-1.02915 2.6,-1.30886 4.4582,-0.91265 z"
             style="opacity:1;fill:#e18cb1;fill-opacity:1;fill-rule:evenodd;stroke:none;stroke-width:0.1;stroke-linecap:butt;stroke-linejoin:miter;stroke-miterlimit:4;stroke-dasharray:none;stroke-opacity:1"
             inkscape:export-xdpi="96"
             inkscape:export-ydpi="96" />
          <path
             sodipodi:nodetypes="ccccccc"
             inkscape:connector-curvature="0"
             id="path6895"
             d="m 236.474,249.40852 c 0,0 1.4906,1.50932 2.4096,2.008 0.891,0.4835 1.8132,0.76171 2.823,0.85044 0.6324,0.0556 1.3598,-0.0229 1.9726,-0.18899 0.7524,-0.2039 1.5102,-0.47535 2.1497,-0.92131 1.1559,-0.80614 2.9057,-3.07106 2.9057,-3.07106 -2.7629,1.82741 -10.3121,1.8777 -12.2606,1.32292 z"
             style="fill:#e18cb1;fill-opacity:1;fill-rule:evenodd;stroke:none;stroke-width:0.26458332px;stroke-linecap:butt;stroke-linejoin:miter;stroke-opacity:1"
             inkscape:export-xdpi="96"
             inkscape:export-ydpi="96" />
          <path
             style="opacity:1;fill:none;fill-opacity:1;fill-rule:evenodd;stroke:none;stroke-width:0.2;stroke-linecap:butt;stroke-linejoin:miter;stroke-miterlimit:4;stroke-dasharray:none;stroke-opacity:1"
             d="m 248.7346,248.10922 c -0.6775,0.35517 -1.1584,0.69068 -2.2442,1.08669 -1.1648,0.35061 -2.4225,0.59497 -3.8979,0.59058 -1.9769,-0.0694 -4.3051,0.48214 -6.1468,-0.39619"
             id="path6897"
             inkscape:connector-curvature="0"
             sodipodi:nodetypes="cccc"
             inkscape:export-xdpi="96"
             inkscape:export-ydpi="96" />
          <path
             sodipodi:nodetypes="ccc"
             inkscape:connector-curvature="0"
             id="path6899"
             d="m 250.8365,235.13314 c -1.6082,2.9898 -5.4011,0.83721 -5.9133,0.81852 3.1207,-2.86868 4.8184,-1.46539 5.9133,-0.81852 z"
             style="fill:#e5e5e5;fill-opacity:1;fill-rule:evenodd;stroke:none;stroke-width:0.1;stroke-linecap:butt;stroke-linejoin:miter;stroke-miterlimit:4;stroke-dasharray:none;stroke-opacity:1"
             inkscape:export-xdpi="96"
             inkscape:export-ydpi="96" />
          <path
             transform="translate(130.78239,248.60011)"
             clip-path="url(#clipPath4643)"
             d="m 115.8042,-13.842076 a 1.6063988,1.6063988 0 0 1 1.66925,-1.530324 1.6063988,1.6063988 0 0 1 1.54089,1.659509 1.6063988,1.6063988 0 0 1 -1.6497,1.55138 1.6063988,1.6063988 0 0 1 -1.56182,-1.639824"
             sodipodi:open="true"
             sodipodi:end="3.162781"
             sodipodi:start="3.188158"
             sodipodi:ry="1.6063988"
             sodipodi:rx="1.6063988"
             sodipodi:cy="-13.767301"
             sodipodi:cx="117.40886"
             sodipodi:type="arc"
             id="path6901"
             style="opacity:1;fill:#000000;fill-opacity:1;stroke:none;stroke-width:0.2;stroke-linecap:round;stroke-linejoin:round;stroke-miterlimit:4;stroke-dasharray:none;stroke-dashoffset:0;stroke-opacity:1"
             inkscape:export-xdpi="96"
             inkscape:export-ydpi="96" />
          <path
             sodipodi:nodetypes="cccccc"
             inkscape:connector-curvature="0"
             id="path6903"
             d="m 248.3142,234.21441 1.5869,0.4176 1.0023,0.46773 0.7182,-0.20046 c -2.4628,-1.54187 -4.2618,-0.8328 -6.0636,-0.0167 0.8457,-0.28201 1.4512,-0.75925 2.7562,-0.66817 z"
             style="fill:#0a0a0a;fill-opacity:1;fill-rule:evenodd;stroke:none;stroke-width:0.1;stroke-linecap:butt;stroke-linejoin:miter;stroke-miterlimit:4;stroke-dasharray:none;stroke-opacity:1"
             inkscape:export-xdpi="96"
             inkscape:export-ydpi="96" />
          <path
             sodipodi:nodetypes="ccc"
             inkscape:connector-curvature="0"
             id="path6905"
             d="m 251.7348,234.90368 -0.3544,-0.94494 c -2.7751,-1.10661 -5.8345,-0.41284 -7.087,1.9135"
             style="fill:none;fill-rule:evenodd;stroke:none;stroke-width:0.1;stroke-linecap:butt;stroke-linejoin:miter;stroke-miterlimit:4;stroke-dasharray:none;stroke-opacity:1"
             inkscape:export-xdpi="96"
             inkscape:export-ydpi="96" />
          <g
             style="stroke:none"
             transform="translate(130.78239,248.60011)"
             id="g6911"
             inkscape:export-xdpi="96"
             inkscape:export-ydpi="96">
            <path
               style="fill:none;fill-rule:evenodd;stroke:none;stroke-width:0.1;stroke-linecap:butt;stroke-linejoin:miter;stroke-miterlimit:4;stroke-dasharray:none;stroke-opacity:1"
               d="m 112.60399,-3.6281061 c 0,0 0.35976,0.2881106 0.56795,0.2672697 0.26927,-0.026955 0.60341,-0.2181155 0.65147,-0.4844262 0.0401,-0.2219074 -0.14355,-0.5415876 -0.3675,-0.5679477 -0.50456,-0.05939 -1.10248,1.0523739 -1.10248,1.0523739"
               id="path6907"
               inkscape:connector-curvature="0"
               sodipodi:nodetypes="ccccc" />
            <path
               sodipodi:nodetypes="ccccc"
               inkscape:connector-curvature="0"
               id="path6909"
               d="m 112.60399,-3.6281061 c 0,0 0.35976,0.2881106 0.56795,0.2672697 0.26927,-0.026955 0.60341,-0.2181155 0.65147,-0.4844262 0.0401,-0.2219074 -0.14355,-0.5415876 -0.3675,-0.5679477 -0.50456,-0.05939 -1.10248,1.0523739 -1.10248,1.0523739"
               style="fill:url(#radialGradient7027);fill-opacity:1;fill-rule:evenodd;stroke:none;stroke-width:0.1;stroke-linecap:butt;stroke-linejoin:miter;stroke-miterlimit:4;stroke-dasharray:none;stroke-opacity:1" />
          </g>
          <g
             style="stroke:none"
             transform="matrix(-0.98084995,0.1947649,0.1947649,0.98084995,352.20784,226.80597)"
             id="g6917"
             inkscape:export-xdpi="96"
             inkscape:export-ydpi="96">
            <path
               sodipodi:nodetypes="ccccc"
               inkscape:connector-curvature="0"
               id="path6913"
               d="m 112.60399,-3.6281061 c 0,0 0.35976,0.2881106 0.56795,0.2672697 0.26927,-0.026955 0.60341,-0.2181155 0.65147,-0.4844262 0.0401,-0.2219074 -0.14355,-0.5415876 -0.3675,-0.5679477 -0.50456,-0.05939 -1.10248,1.0523739 -1.10248,1.0523739"
               style="fill:none;fill-rule:evenodd;stroke:none;stroke-width:0.1;stroke-linecap:butt;stroke-linejoin:miter;stroke-miterlimit:4;stroke-dasharray:none;stroke-opacity:1" />
            <path
               style="fill:url(#radialGradient7029);fill-opacity:1;fill-rule:evenodd;stroke:none;stroke-width:0.1;stroke-linecap:butt;stroke-linejoin:miter;stroke-miterlimit:4;stroke-dasharray:none;stroke-opacity:1"
               d="m 112.60399,-3.6281061 c 0,0 0.35976,0.2881106 0.56795,0.2672697 0.26927,-0.026955 0.60341,-0.2181155 0.65147,-0.4844262 0.0401,-0.2219074 -0.14355,-0.5415876 -0.3675,-0.5679477 -0.50456,-0.05939 -1.10248,1.0523739 -1.10248,1.0523739"
               id="path6915"
               inkscape:connector-curvature="0"
               sodipodi:nodetypes="ccccc" />
          </g>
        </g>
        <path
           sodipodi:nodetypes="ssssssssssss"
           inkscape:connector-curvature="0"
           id="path6921"
           d="m 161.56255,266.63467 c 0.60628,-0.59441 0.74318,-1.89545 0.83521,-2.7395 0.14407,-1.32117 -0.043,-2.48895 -0.20045,-3.80859 -0.48257,-4.04483 -1.07021,-8.08789 -1.97111,-12.06054 -0.85415,-3.76648 -3.99519,-9.23212 -8.18513,-11.72645 -3.42081,-2.03646 -7.70451,-2.81328 -11.55941,-0.26727 -3.47834,2.29731 -5.7844,5.69921 -6.5481,9.58829 -0.2977,1.51599 -0.68815,3.08464 -0.40339,4.60944 0.72385,3.8761 0.62449,5.90935 0.8377,8.31973 0.30164,3.41015 1.01886,6.94901 2.77292,9.88897 0.94424,1.58263 2.18897,3.39021 3.97564,3.84201 6.92867,1.75206 15.3429,-0.64274 20.44612,-5.64609 z"
           style="fill:none;fill-rule:evenodd;stroke:none;stroke-width:0.26458332px;stroke-linecap:butt;stroke-linejoin:miter;stroke-opacity:1" />
        <path
           sodipodi:nodetypes="cssssscccccc"
           inkscape:connector-curvature="0"
           id="path6923"
           d="m 132.96844,240.79069 c 0.52206,0.52206 -7.75801,10.25821 -10.29985,15.21354 -0.59099,1.15214 0.62787,3.16681 0.0945,4.34672 -1.00943,2.23302 -3.28851,3.3895 -5.66964,3.96875 -4.77307,1.16113 -7.04372,3.99308 -8.31548,7.65401 -1.28343,3.69451 -3.80771,6.84073 -5.95312,10.11087 -3.620447,5.51846 -6.803574,16.81996 -6.803574,16.81996 l 79.752974,2.45684 -2.74033,-30.61608 -8.78794,-16.63095 -5.38616,-17.85938 z"
           style="fill:url(#radialGradient7031);fill-opacity:1.0;fill-rule:evenodd;stroke:#000000;stroke-width:0.02541795;stroke-linecap:butt;stroke-linejoin:miter;stroke-miterlimit:4;stroke-dasharray:none;stroke-opacity:1" />
        <path
           sodipodi:nodetypes="cscccccccc"
           inkscape:connector-curvature="0"
           id="path6925"
           d="m 168.54496,241.14385 c -2.2518,-3.58541 -3.51112,-7.4142 -7.41673,-10.62397 -18.04568,-14.83057 -30.76849,6.61401 -28.99874,15.50164 0.11579,5.00692 0.41983,9.51185 1.06908,13.09621 l 2.02002,7.49737 c 0.83621,1.86973 1.50123,3.70522 1.45448,5.39836 l 2.00452,18.90934 21.38156,-15.63526 3.60814,-11.62623 z"
           style="fill:url(#radialGradient7033);fill-opacity:1.0;fill-rule:evenodd;stroke:none;stroke-width:0.26458332px;stroke-linecap:butt;stroke-linejoin:miter;stroke-opacity:1" />
        <path
           style="fill:#ffffff;fill-opacity:1;fill-rule:evenodd;stroke:none;stroke-width:0.26458332px;stroke-linecap:butt;stroke-linejoin:miter;stroke-opacity:1"
           d="m 161.56255,266.63467 c 0.60628,-0.59441 0.74318,-1.89545 0.83521,-2.7395 0.14407,-1.32117 -0.043,-2.48895 -0.20045,-3.80859 -0.48257,-4.04483 -1.07021,-8.08789 -1.97111,-12.06054 -0.85415,-3.76648 -3.99519,-9.23212 -8.18513,-11.72645 -3.42081,-2.03646 -7.70451,-2.81328 -11.55941,-0.26727 -3.47834,2.29731 -5.7844,5.69921 -6.5481,9.58829 -0.2977,1.51599 -0.68815,3.08464 -0.40339,4.60944 0.72385,3.8761 0.62449,5.90935 0.8377,8.31973 0.30164,3.41015 1.01886,6.94901 2.77292,9.88897 0.94424,1.58263 2.18897,3.39021 3.97564,3.84201 6.92867,1.75206 15.3429,-0.64274 20.44612,-5.64609 z"
           id="path6927"
           inkscape:connector-curvature="0"
           sodipodi:nodetypes="ssssssssssss" />
        <path
           inkscape:connector-curvature="0"
           transform="matrix(0.26458333,0,0,0.26458333,0.29879773,0.20363609)"
           id="path6929"
           d="m 553.30273,885.41797 -3.40039,42.39453 c 17.48374,10.40077 36.63041,18.53432 57.61719,24.1582 -0.91121,-5.12925 -1.91865,-10.23995 -3.07031,-15.31836 -3.22828,-14.23551 -15.09955,-34.89292 -30.93555,-44.32031 -6.17092,-3.67364 -13.08494,-6.25739 -20.21094,-6.91406 z"
           style="fill:url(#linearGradient7035);fill-opacity:1;fill-rule:evenodd;stroke:none;stroke-width:0.99999994px;stroke-linecap:butt;stroke-linejoin:miter;stroke-opacity:1" />
        <path
           transform="matrix(0.26458333,0,0,0.26458333,0.29879773,0.20363609)"
           sodipodi:nodetypes="sscccccccs"
           inkscape:connector-curvature="0"
           id="path6931"
           d="m 549.46875,885.25 c -6.58584,0.0553 -13.27029,1.86037 -19.64453,6.07031 -13.14648,8.68275 -21.86162,21.54135 -24.74805,36.24024 -1.12516,5.72972 -2.60165,11.65885 -1.52539,17.42187 0.14521,0.77759 0.24863,1.46157 0.37695,2.20117 3.52847,-1.97761 7.16115,-4.20522 11.88086,-8.89062 1.13855,-1.13027 2.68901,-1.63658 5.55664,-1.64063 10.96281,-0.0155 22.78932,-5.30657 28.53711,-8.83984 l 3.40039,-42.39453 c -1.209,-0.10547 -2.61564,-0.1782 -3.83398,-0.16797 z"
           style="fill:url(#linearGradient7037);fill-opacity:1;fill-rule:evenodd;stroke:none;stroke-width:0.99999994px;stroke-linecap:butt;stroke-linejoin:miter;stroke-opacity:1" />
        <path
           clip-path="url(#clipPath4674)"
           style="opacity:0.52600002;fill:#000000;fill-opacity:1;fill-rule:evenodd;stroke:none;stroke-width:0.26458332px;stroke-linecap:butt;stroke-linejoin:miter;stroke-opacity:1;filter:url(#filter4664)"
           d="m 135.4413,264.08514 c 2.29387,0.31358 5.45213,0.71377 7.77974,1.32124 1.35447,0.3535 2.36542,0.18832 3.44904,0 0.58044,-0.10088 1.12774,-0.1256 1.74814,-0.0945 2.21784,0.11116 4.39986,0.15347 6.66183,-0.33073 1.44489,-0.30929 2.93053,-0.20009 4.48846,-0.23624 1.19949,-0.0278 1.90346,-0.53656 2.74033,-0.85045 0.0681,2.51135 -1.83955,7.80944 -2.69308,10.86681 -0.14646,0.63848 -0.19686,1.29591 -0.33073,1.93714 -1.58145,7.57541 -5.66964,22.25333 -5.66964,22.25333 l -13.37091,0.14174 -3.26004,-23.15104 c -0.20321,-1.44308 -1.11812,-2.76618 -0.89769,-5.81138 0.0819,-1.13178 -0.26175,-2.25269 -0.37798,-3.40178 z"
           id="path6933"
           inkscape:connector-curvature="0"
           sodipodi:nodetypes="ccccccccccccccc" />
        <path
           sodipodi:nodetypes="ccccccccccccccc"
           inkscape:connector-curvature="0"
           id="path6935"
           d="m 135.4413,264.08514 c 2.29387,0.31358 5.45213,0.71377 7.77974,1.32124 1.35447,0.3535 2.36542,0.18832 3.44904,0 0.58044,-0.10088 1.12774,-0.1256 1.74814,-0.0945 2.21784,0.11116 4.39986,0.15347 6.66183,-0.33073 1.44489,-0.30929 2.93053,-0.20009 4.48846,-0.23624 1.19949,-0.0278 1.90346,-0.53656 2.74033,-0.85045 0.0681,2.51135 -1.83955,7.80944 -2.69308,10.86681 -0.14646,0.63848 -0.19686,1.29591 -0.33073,1.93714 -1.58145,7.57541 -5.66964,22.25333 -5.66964,22.25333 l -13.37091,0.14174 -3.26004,-23.15104 c -0.20321,-1.44308 -1.11812,-2.76618 -0.89769,-5.81138 0.0819,-1.13178 -0.26175,-2.25269 -0.37798,-3.40178 z"
           style="fill:#ffffff;fill-opacity:1;fill-rule:evenodd;stroke:none;stroke-width:0.26458332px;stroke-linecap:butt;stroke-linejoin:miter;stroke-opacity:1" />
        <path
           sodipodi:nodetypes="cccccc"
           inkscape:connector-curvature="0"
           id="path6937"
           d="m 150.93858,258.96739 c 0.91905,-0.1471 1.93536,-0.30991 3.0569,-0.65147 0,0 1.78754,-0.60306 2.6727,-0.80181 1.17018,-0.26276 3.55802,-0.53454 3.55802,-0.53454 -1.24516,-0.0742 -2.48066,-0.16195 -3.94223,0.0668 -2.38272,0.44003 -4.66733,0.91277 -5.34539,1.92102 z"
           style="fill:#000000;fill-opacity:1;fill-rule:evenodd;stroke:none;stroke-width:0.02645833;stroke-linecap:butt;stroke-linejoin:miter;stroke-miterlimit:4;stroke-dasharray:none;stroke-opacity:1" />
        <path
           sodipodi:nodetypes="sccccccsss"
           inkscape:connector-curvature="0"
           id="path6939"
           d="m 143.50453,258.46107 c -1.53507,-0.80304 -4.73397,-1.52132 -4.67746,-1.5119 l -0.9095,-0.17718 -0.15356,-0.24805 c -0.46071,-0.37808 -0.61563,-0.14459 -0.8032,0.0236 -0.60996,0.76678 -1.09564,0.3528 -1.58277,-0.0473 0.37375,0.60755 0.76466,1.19143 2.03162,0.56697 0.5157,-0.15241 2.0272,0.49465 2.90569,0.81501 0.96035,0.3502 1.9198,0.73175 2.90569,0.98038 0.68265,0.17216 0.72669,-0.16968 0.28349,-0.40153 z"
           style="fill:#000000;fill-opacity:1;fill-rule:evenodd;stroke:none;stroke-width:0.02645833;stroke-linecap:butt;stroke-linejoin:miter;stroke-miterlimit:4;stroke-dasharray:none;stroke-opacity:1" />
        <path
           sodipodi:nodetypes="cscscscscscscscscscscscscscscscscscscscscscscscscsccc"
           inkscape:connector-curvature="0"
           id="path6941"
           d="m 148.46764,246.18564 c 0,0 -2.00898,-0.46419 -1.97759,-1.16251 0.0216,-0.48044 1.4147,-0.28328 1.4147,-0.28328 0,0 -1.50348,-0.057 -1.4724,-0.58407 0.0212,-0.36006 1.04572,-0.27804 1.04572,-0.27804 0,0 -0.92453,0.25811 -0.98102,-0.0647 -0.1269,-0.72507 2.02323,-0.88484 2.02323,-0.88484 0,0 -1.65036,0.81857 -1.99001,0.24306 -0.22044,-0.37355 0.76244,-1.05446 0.76244,-1.05446 0,0 -1.15176,0.3277 -1.21709,-0.0735 -0.0651,-0.40009 1.1279,-0.45466 1.1279,-0.45466 0,0 -0.95082,0.16816 -0.9915,-0.16437 -0.0451,-0.37063 1.02822,-0.44417 1.02822,-0.44417 0,0 -0.98397,-0.34969 -0.88133,-0.71346 0.11798,-0.41813 1.29229,-0.16961 1.29229,-0.16961 0,0 -1.0535,-0.3287 -1.05446,-0.76244 -0.001,-0.64369 1.55983,-1.13839 1.55983,-1.13839 0,0 -1.2279,-0.26836 -1.22059,-0.74495 0.003,-0.19446 0.50712,-0.28853 0.50712,-0.28853 0,0 -0.43564,0.0418 -0.48264,-0.11716 -0.0582,-0.19691 0.42319,-0.44766 0.42319,-0.44766 0,0 -0.46621,-0.2019 -0.58057,-0.40921 -0.30165,-0.54683 -0.0962,-1.87109 -0.0962,-1.87109 0,0 -0.012,1.45633 -0.42843,1.9935 -0.11658,0.1504 -0.51063,0.25531 -0.51063,0.25531 0,0 0.56632,0.0662 0.56659,0.2763 4.5e-4,0.35583 -0.95829,0.47039 -0.95829,0.47039 0,0 1.21526,-0.033 1.18212,0.37948 -0.0392,0.48892 -1.45491,0.22031 -1.45491,0.22031 0,0 1.42355,-0.29537 1.43042,0.18537 0.006,0.42371 -1.25556,0.19933 -1.25556,0.19933 0,0 1.02864,-0.0659 1.03872,0.29378 0.0125,0.44555 -1.26431,0.43542 -1.26431,0.43542 0,0 1.09615,0.004 1.18562,0.41269 0.0543,0.24808 -0.54909,0.52811 -0.54909,0.52811 0,0 0.54922,0.0391 0.56308,0.24307 0.0266,0.39266 -1.01075,0.61029 -1.01075,0.61029 0,0 0.60578,0.13418 0.61029,0.37247 0.005,0.28884 -0.72221,0.47914 -0.72221,0.47914 0,0 0.87493,0.19003 0.79041,0.48788 -0.0581,0.20468 -0.63827,2e-5 -0.63827,2e-5 0,0 0.59852,0.24899 0.59106,0.50886 -0.007,0.23483 -0.55958,0.42843 -0.55958,0.42843 0,0 0.64683,0.0949 0.64002,0.33575 -0.0109,0.38722 -1.05796,0.48089 -1.05796,0.48089 0,0 0.89535,-0.0807 0.93205,0.23783 0.0381,0.33284 -0.89183,0.46339 -0.89183,0.46339 0,0 0.68655,-0.002 0.76592,0.25532 0.0767,0.24841 -0.97328,0.60408 -0.97328,0.60408 0,0 0.72593,-0.1302 0.75194,0.12241 0.0666,0.64217 -1.80814,0.69423 -1.80814,0.69423 1.49521,0.0372 3.41062,0.41515 4.79573,-0.10606 z"
           style="fill:#eeeeee;fill-opacity:0.42942348;fill-rule:evenodd;stroke:none;stroke-width:0.05291667;stroke-linecap:butt;stroke-linejoin:miter;stroke-miterlimit:4;stroke-dasharray:none;stroke-opacity:1" />
        <path
           sodipodi:nodetypes="cccc"
           inkscape:connector-curvature="0"
           id="path6943"
           d="m 151.57335,260.60441 c 0.16704,-0.0668 1.13589,-0.11693 1.13589,-0.11693 2.72209,1.08206 4.77811,0.0657 6.01357,-0.7517 -1.94052,2.76831 -4.31805,3.08931 -7.14946,0.86863 z"
           style="fill:#030303;fill-opacity:1;fill-rule:evenodd;stroke:none;stroke-width:0.05291667;stroke-linecap:butt;stroke-linejoin:miter;stroke-miterlimit:4;stroke-dasharray:none;stroke-opacity:1" />
        <path
           sodipodi:nodetypes="ccccccccccccccccccccccccccccccccc"
           inkscape:connector-curvature="0"
           id="path6945"
           d="m 158.00452,260.50418 c 0.52941,0.48355 1.20835,0.66804 2.02123,0.58466 -0.77954,0.2013 -1.55907,0.11924 -2.33861,-0.43432 l -0.0668,0.23387 c 0.37695,0.32978 0.77814,0.64138 1.40317,0.7851 -0.5931,-0.0171 -1.06707,-0.36188 -1.5368,-0.71829 l -0.11693,0.11693 c 0.21592,0.49785 0.54578,0.94311 1.1693,1.25283 -0.58193,-0.23936 -1.02662,-0.64339 -1.45328,-1.06908 l -0.25056,0.16704 c 0.17899,0.33753 0.45053,0.64421 0.81851,0.91874 -0.48544,-0.22851 -0.74784,-0.58447 -1.01896,-0.93544 l -0.80181,0.26727 0.16704,1.46998 -0.25056,-1.52009 -0.46773,-0.15034 c 0.0712,0.37912 0.0756,1.23328 0.0501,1.40317 l -0.18375,-1.41987 -0.53454,-0.0501 0.13363,1.31964 -0.23386,-1.36975 -0.25056,0.0167 0.0334,1.30294 -0.20045,-1.33635 -0.26728,-0.0501 -0.38419,1.38646 c 0.0521,-0.85207 0.41415,-2.67628 -0.45102,-0.65147 l 0.0835,-0.88533 c -0.41147,0.16167 -0.74023,0.3509 -0.88533,0.60136 0.11817,-0.23386 0.20976,-0.46773 0.23386,-0.70159 -0.28351,0.0515 -0.42235,0.18981 -0.55124,0.33409 l 0.28397,-0.60135 c 1.98452,0.31219 4.02836,1.29167 5.84655,-0.26731 z"
           style="fill:#030303;fill-opacity:1;fill-rule:evenodd;stroke:none;stroke-width:0.02645833;stroke-linecap:butt;stroke-linejoin:miter;stroke-miterlimit:4;stroke-dasharray:none;stroke-opacity:1" />
        <path
           sodipodi:nodetypes="scscsss"
           inkscape:connector-curvature="0"
           id="path6947"
           d="m 144.23685,260.65806 c -2.16923,0.27101 -4.77017,0.65671 -6.52009,-0.70871 0.39125,2.16765 2.8402,2.53886 5.43341,1.34654 0.5156,-0.23706 0.45995,-0.38398 0.8032,-0.28348 l 0.37798,0.21261 c 0.44678,0.25131 0.58868,-0.17405 0.18899,-0.44884 -0.126,-0.0866 -0.22049,-0.12599 -0.28349,-0.11812 z"
           style="fill:#020000;fill-opacity:0.99602386;fill-rule:evenodd;stroke:none;stroke-width:0.02645833;stroke-linecap:butt;stroke-linejoin:miter;stroke-miterlimit:4;stroke-dasharray:none;stroke-opacity:1" />
        <path
           sodipodi:nodetypes="ccccccccccccccccc"
           inkscape:connector-curvature="0"
           id="path6949"
           d="m 137.7522,260.07928 c -0.48607,0.67828 -1.37706,0.41422 -1.92532,0.25986 0.59769,0.26914 1.28286,0.53954 2.14198,-0.0138 l 0.0432,0.4863 c 0.097,0.0448 -0.7232,0.74745 -1.18118,0.88589 0.63107,-0.0342 1.51142,-0.5644 1.50009,-0.77958 0.12272,0.50413 -0.1424,0.91328 -0.79138,1.22842 0.46746,-0.17485 0.9206,-0.37117 1.26385,-0.73233 l 1.21662,0.2953 -0.63784,1.42922 c 0.87486,-1.46016 1.61404,-2.48684 1.21661,0.11812 l 0.55515,-1.48829 1.34891,-0.34544 c 0.21491,0.13588 0.37881,0.32277 0.55124,0.50114 -0.17902,-0.20236 -0.37251,-0.39645 -0.4009,-0.68488 l -3.60814,0.0668 z"
           style="fill:#020000;fill-opacity:0.99403579;fill-rule:evenodd;stroke:none;stroke-width:0.02645833;stroke-linecap:butt;stroke-linejoin:miter;stroke-miterlimit:4;stroke-dasharray:none;stroke-opacity:1" />
        <path
           sodipodi:nodetypes="ccscc"
           inkscape:connector-curvature="0"
           id="path6951"
           d="m 137.76402,260.00841 c 0.14186,-0.4767 -0.40488,-0.71062 -0.96857,-1.13392 0,0 0.9112,0.40907 1.42923,0.46066 0.69364,0.0691 2.05524,0.10625 2.05524,0.10625 -1.43327,0.0657 -1.86374,0.0859 -2.5159,0.56701 z"
           style="fill:#020000;fill-opacity:0.68389659;fill-rule:evenodd;stroke:none;stroke-width:0.02645833;stroke-linecap:butt;stroke-linejoin:miter;stroke-miterlimit:4;stroke-dasharray:none;stroke-opacity:1" />
        <path
           sodipodi:nodetypes="cc"
           inkscape:connector-curvature="0"
           id="path6953"
           d="m 124.65296,260.16197 c 4.03175,10.94874 8.06349,15.7133 12.09524,21.92261"
           style="opacity:0.40900005;fill:none;fill-rule:evenodd;stroke:#000000;stroke-width:0.26458332px;stroke-linecap:butt;stroke-linejoin:miter;stroke-opacity:1;filter:url(#filter4714)" />
        <path
           inkscape:connector-curvature="0"
           id="path6955"
           transform="matrix(0.26458333,0,0,0.26458333,0.29879773,0.20363609)"
           d="m 612.32227,996.62695 c -3.16298,1.18636 -5.82392,3.10978 -10.35743,3.21485 -5.88824,0.13663 -11.50384,-0.2764 -16.96484,0.8926 -8.54918,1.83 -16.79535,1.6701 -25.17773,1.25 -2.34482,-0.1176 -4.41364,-0.024 -6.60743,0.3574 -4.09557,0.7118 -7.91785,1.3361 -13.03711,0 -8.79726,-2.296 -20.73259,-3.80896 -29.40234,-4.99414 l 1.00977,9.99414 c 0.43929,4.343 1.73923,8.5779 1.42968,12.8555 -0.0574,0.7931 -0.0904,1.5496 -0.10937,2.2832 l 2.9668,1.289 c 0,0 6.06264,15.7286 11.78515,21.6075 5.04174,5.1795 12.01885,8.2585 18.75,10.8925 5.84999,2.2892 12.11063,4.1104 18.39258,4.1075 6.52728,0 13.12757,-1.6686 19.10742,-4.2852 5.56649,-2.4358 10.79724,-5.9693 15,-10.3574 0.97039,-1.0132 1.61049,-2.2795 2.26563,-3.5371 0.22342,-1.5062 0.42936,-3.0171 0.76953,-4.5 3.22594,-11.5554 10.43707,-31.5786 10.17969,-41.07035 z"
           style="opacity:0.31000001;fill:#eeeeee;fill-opacity:1;fill-rule:evenodd;stroke:none;stroke-width:0.99999994px;stroke-linecap:butt;stroke-linejoin:miter;stroke-opacity:1" />
      </g>
      <path
         inkscape:connector-curvature="0"
         style="fill:none;fill-opacity:1;fill-rule:evenodd;stroke:#000000;stroke-width:0.03303945;stroke-linecap:butt;stroke-linejoin:miter;stroke-miterlimit:4;stroke-dasharray:none;stroke-opacity:1"
         d="m -8.1389209,228.70644 c -11.2489251,0.19367 -18.8338611,11.95628 -19.9703871,20.43046 -2.550419,3.71662 -8.958664,11.67172 -11.305888,16.24765 -0.709104,1.3824 0.753438,3.80008 0.113468,5.21581 -1.211174,2.67931 -3.946106,4.06692 -6.803127,4.76194 -5.727011,1.39319 -8.4512,4.79087 -9.977132,9.18347 -1.539935,4.43289 -4.56872,8.2081 -7.142911,12.13181 -4.344026,6.62135 -8.163502,20.1818 -8.163502,20.1818 l 60.342711,1.8589 1.7609278,0.79985 1.1849041,-0.70934 32.4041341,0.99829 -3.288094,-36.73516 -9.277101,-17.55654 3.890775,-17.96083 c -2.701843,-4.30198 -4.212692,-8.89622 -8.8988731,-12.74749 -5.413069,-4.44865 -10.4270843,-6.17711 -14.8699048,-6.10062 z"
         id="path6959" />
      <g
         id="g1574">
        <path
           sodipodi:nodetypes="csssscsc"
           inkscape:connector-curvature="0"
           id="path6961"
           d="m 39.72371,271.62064 c -7.258955,-2.04658 -14.460173,-4.69262 -21.428726,-10.31753 -0.967698,-0.78111 -2.247156,-1.39586 -3.752631,-1.90698 -3.181198,-1.08003 -5.4941904,-3.57528 -8.0519178,-5.26765 -2.1492594,-1.4221 -1.8498106,0.90351 -0.4008489,2.96634 2.8599119,4.07153 5.2254217,8.66956 7.2154237,12.50674 l -2.71984,-6.54107 c -0.7380213,-1.7749 -0.8567953,-3.73805 0.396829,-6.0658"
           style="fill:none;fill-rule:evenodd;stroke:#000000;stroke-width:0.15873136;stroke-linecap:butt;stroke-linejoin:miter;stroke-miterlimit:4;stroke-dasharray:none;stroke-opacity:1" />
        <path
           sodipodi:nodetypes="cccssccsccsscccc"
           inkscape:connector-curvature="0"
           id="path6963"
           d="m 37.116248,318.33323 38.321841,1.24689 -1.019976,-33.67335 c 0,0 -4.229803,-18.58707 -7.256376,-27.60809 -1.486457,-4.43053 -3.115553,-7.89257 -6.689657,-13.26523 -3.210259,-4.82573 -7.651561,-9.54757 -14.56918,-10.65794 -2.214868,-0.35552 -4.356892,-0.52126 -6.416222,-0.51402 -7.35474,0.0259 -13.656376,2.26032 -18.470498,5.95615 -5.599394,4.29867 -15.9686233,13.91007 -15.9686233,13.91007 l 0.062033,0.0818 c 0.2200901,-0.21121 0.663498,-0.15593 1.3808337,0.31871 2.5577274,1.69238 4.8706956,4.18787 8.0518936,5.2679 1.505475,0.51111 2.784813,1.12552 3.752511,1.90663 6.150177,4.96433 12.481773,7.60783 18.874154,9.56728 l 2.554584,0.75026 c -0.852488,-0.24034 -1.703992,-0.48952 -2.554584,-0.75026"
           style="fill:url(#radialGradient7039);fill-opacity:1;fill-rule:evenodd;stroke:none;stroke-width:0.31746268px;stroke-linecap:butt;stroke-linejoin:miter;stroke-opacity:1" />
        <path
           sodipodi:nodetypes="cscc"
           inkscape:connector-curvature="0"
           id="path6965"
           d="m 26.132439,244.58807 c 7.237142,6.02901 7.955629,9.57531 9.299891,13.94983 2.439841,7.93979 4.745418,16.28234 7.375773,23.65059 l 1.523257,5.05079"
           style="fill:none;fill-rule:evenodd;stroke:#000000;stroke-width:0.0952388;stroke-linecap:butt;stroke-linejoin:miter;stroke-miterlimit:4;stroke-dasharray:none;stroke-opacity:1" />
        <path
           sodipodi:nodetypes="csc"
           inkscape:connector-curvature="0"
           id="path6967"
           d="m 37.757297,265.8335 c 0,0 -3.769609,-5.25405 -6.173203,-7.37578 -2.14512,-1.89357 -7.215424,-4.64994 -7.215424,-4.64994"
           style="fill:none;fill-rule:evenodd;stroke:#000000;stroke-width:0.0952388;stroke-linecap:round;stroke-linejoin:miter;stroke-miterlimit:4;stroke-dasharray:none;stroke-opacity:1" />
        <path
           sodipodi:nodetypes="csssc"
           inkscape:connector-curvature="0"
           id="path6969"
           d="m 50.834908,239.53424 c 2.650045,4.05208 5.403997,7.8651 9.183745,11.45134 3.525138,3.34466 4.569507,6.74568 5.102076,10.43091 2.397835,16.59248 1.077798,27.43559 0.907034,41.15679 -0.07655,6.15266 -2.163994,9.59388 -3.514759,13.71888"
           style="fill:none;fill-rule:evenodd;stroke:#000000;stroke-width:0.0952388;stroke-linecap:butt;stroke-linejoin:miter;stroke-miterlimit:4;stroke-dasharray:none;stroke-opacity:1" />
        <path
           id="path6971"
           d="m 68.029176,261.04238 c 1.960749,6.45824 4.154811,15.39914 5.394386,20.61772 l 1.052216,-10.37521 z"
           style="fill:url(#linearGradient7041);fill-opacity:1;fill-rule:evenodd;stroke:#000000;stroke-width:0.31746268px;stroke-linecap:butt;stroke-linejoin:miter;stroke-opacity:1"
           inkscape:connector-curvature="0" />
        <path
           sodipodi:nodetypes="cscccccccccc"
           inkscape:connector-curvature="0"
           id="path6973"
           d="m 40.002101,273.04893 c -5.612892,0.19911 -11.056941,0.68602 -15.79378,2.16463 -2.268189,0.70803 -4.455472,0.92073 -6.593621,1.11234 -0.133172,1.16903 0.15273,1.83635 0.340148,3.11223 l -0.340148,2.8969 c -0.905714,3.52061 -0.231621,6.51462 -0.283443,9.7506 0.228933,4.98681 0.239516,6.29018 -0.09779,8.70262 -0.836338,8.77172 0.825959,11.02895 1.36292,16.27481 l 20.203201,-0.24054 7.616285,-1.04223 4.249085,-12.58689 z"
           style="fill:#ffffff;fill-opacity:1;fill-rule:evenodd;stroke:none;stroke-width:0.03174626;stroke-linecap:butt;stroke-linejoin:miter;stroke-miterlimit:4;stroke-dasharray:none;stroke-opacity:1" />
        <g
           id="g6979"
           transform="matrix(1.199859,0,0,1.199859,-186.60021,-41.784206)">
          <path
             sodipodi:nodetypes="csscscc"
             inkscape:connector-curvature="0"
             id="path6975"
             d="m 164.56471,249.35806 c -1.26162,-0.89964 -2.41581,-1.9272 -3.63693,-2.73518 -1.79126,-1.18522 -1.54169,0.75302 -0.33408,2.47224 2.38354,3.39334 4.35503,7.22549 6.01356,10.42351 l -2.2668,-5.45153 c -0.58303,-1.40215 -0.70236,-2.94527 0.17658,-4.75452 z"
             style="fill:url(#linearGradient7043);fill-opacity:1;fill-rule:evenodd;stroke:#000000;stroke-width:0.13229167;stroke-linecap:butt;stroke-linejoin:miter;stroke-miterlimit:4;stroke-dasharray:none;stroke-opacity:1" />
          <path
             style="fill:#000000;fill-opacity:0.28628229;fill-rule:evenodd;stroke:#000000;stroke-width:0.13229167;stroke-linecap:butt;stroke-linejoin:miter;stroke-miterlimit:4;stroke-dasharray:none;stroke-opacity:1"
             d="m 164.56471,249.35806 c -1.26162,-0.89964 -2.41581,-1.9272 -3.63693,-2.73518 -1.79126,-1.18522 -1.54169,0.75302 -0.33408,2.47224 2.38354,3.39334 4.35503,7.22549 6.01356,10.42351 l -2.2668,-5.45153 c -0.58303,-1.40215 -0.70236,-2.94527 0.17658,-4.75452 z"
             id="path6977"
             inkscape:connector-curvature="0"
             sodipodi:nodetypes="csscscc" />
        </g>
        <path
           clip-path="url(#clipPath5381)"
           sodipodi:nodetypes="cccsc"
           inkscape:connector-curvature="0"
           id="path6981"
           d="m 163.33321,247.8924 c -0.4746,2.86278 0.22367,4.80768 1.20271,6.81538 l 1.36976,0.66817 c 0,0 0.90203,-7.51695 0.7684,-7.51695 -0.13364,0 -3.34087,0.0334 -3.34087,0.0334 z"
           style="fill:#000000;fill-opacity:0.99005959;fill-rule:evenodd;stroke:none;stroke-width:0.26458332px;stroke-linecap:butt;stroke-linejoin:miter;stroke-opacity:1;filter:url(#filter5367)"
           transform="matrix(1.199859,0,0,1.199859,-186.60021,-41.784206)" />
        <path
           id="path6983"
           d="m 9.1857384,256.14402 c 0.2757876,0.21661 0.5543229,0.43022 0.8351976,0.64423 -0.2803348,-0.21365 -0.5598899,-0.42798 -0.8351976,-0.64423 z m 1.5637526,1.18801 c 0.01464,0.0108 0.02868,0.0217 0.04343,0.0323 1.2e-4,-2.5e-4 6.36e-4,-3.1e-4 6.36e-4,-6.2e-4 -0.01464,-0.0108 -0.0294,-0.021 -0.04403,-0.0317 z m 0.04343,0.0323 c -1.049901,2.16702 -0.9063139,4.01627 -0.20772,5.69636 l 2.398338,5.76765 0.361482,0.81349 0.280875,0.68144 1.483145,2.52544 2.505606,3.47719 c 2.138149,-0.19162 4.32536,-0.40432 6.593549,-1.11234 3.933558,-1.22787 8.357666,-1.76746 12.958309,-2.03066 l 0.0024,-2.31276 c -6.392381,-1.95945 -12.723977,-4.60295 -18.874154,-9.56728 -0.967698,-0.78111 -2.247036,-1.39552 -3.752511,-1.90664 -1.36346,-0.4629 -2.565539,-1.1872 -3.697318,-1.9953 l 0.0096,0.01 c -0.02088,-0.0149 -0.04055,-0.031 -0.06143,-0.0458 z"
           style="fill:#ffffff;fill-opacity:1;fill-rule:evenodd;stroke:none;stroke-width:0.03174626;stroke-linecap:butt;stroke-linejoin:miter;stroke-miterlimit:4;stroke-dasharray:none;stroke-opacity:1"
           inkscape:connector-curvature="0" />
        <path
           sodipodi:nodetypes="cc"
           inkscape:connector-curvature="0"
           id="path6985"
           d="m 17.841461,276.35424 c 1.568312,-4.31778 -1.104482,-5.40426 -4.223383,-6.15084"
           style="fill:none;fill-rule:evenodd;stroke:#000000;stroke-width:0.03174626;stroke-linecap:butt;stroke-linejoin:miter;stroke-miterlimit:4;stroke-dasharray:none;stroke-opacity:1" />
        <path
           sodipodi:nodetypes="cssssscc"
           inkscape:connector-curvature="0"
           id="path6987"
           d="m 18.335767,274.41184 c -0.639489,0.21551 -1.368235,0.32021 -1.743731,0.68146 -0.387914,0.3732 -0.540476,0.82439 -0.921972,1.00216 -0.456426,0.21269 -0.331017,0.28147 -0.260549,0.40086 0.13334,0.2259 0.620147,0.2482 0.921972,0.0401 0.394081,-0.27174 0.535461,-0.79631 0.982096,-1.20257 0.27514,-0.25026 0.626831,-0.38984 1.042222,-0.38081 z"
           style="fill:#010000;fill-opacity:1;fill-rule:evenodd;stroke:none;stroke-width:0.01587314;stroke-linecap:butt;stroke-linejoin:miter;stroke-miterlimit:4;stroke-dasharray:none;stroke-opacity:1" />
        <path
           style="fill:url(#linearGradient7045);fill-opacity:1;fill-rule:evenodd;stroke:none;stroke-width:0.03174626;stroke-linecap:butt;stroke-linejoin:miter;stroke-miterlimit:4;stroke-dasharray:none;stroke-opacity:1"
           d="m 17.118342,271.60526 c -0.875381,-0.68928 -2.145756,-1.07763 -3.500264,-1.40186 -0.174724,0.0838 -0.249043,0.15499 -0.27298,0.21992 -0.06971,0.18898 -0.125398,0.41073 -0.06011,0.60128 0.05975,0.17435 0.213635,0.32327 0.380811,0.40086 0.914796,-0.33418 3.433936,0.11531 3.447375,0.20043"
           id="path6989"
           inkscape:connector-curvature="0"
           sodipodi:nodetypes="ccsccc" />
        <path
           sodipodi:nodetypes="cssssssssc"
           inkscape:connector-curvature="0"
           id="path6991"
           d="m 24.927685,265.5265 c -1.60006,1.10297 -3.23638,2.14722 -5.017043,3.14627 -0.493802,0.27705 -0.5788,0.60174 -0.538557,0.87869 0.05651,0.38893 0.203005,0.816 0.651932,0.90705 0.488786,0.0991 1.059631,-0.0476 1.275522,-0.48186 0.443852,-0.89282 1.386617,-1.81715 2.664419,-2.63608 0.180111,-0.11543 0.374644,-0.1889 0.578512,-0.24731 0.260765,-0.0747 0.557718,-0.0781 0.810385,-0.2629 0.433329,-0.31688 1.112593,-0.53498 0.878692,-0.65193 z"
           style="opacity:1;fill:url(#linearGradient7047);fill-opacity:1;fill-rule:evenodd;stroke:none;stroke-width:0.01587314;stroke-linecap:butt;stroke-linejoin:miter;stroke-miterlimit:4;stroke-dasharray:none;stroke-opacity:1" />
        <path
           sodipodi:nodetypes="csscc"
           inkscape:connector-curvature="0"
           id="path6993"
           d="m 180.53868,260.78816 c 0,0 -1.87933,1.9138 -2.63928,2.47224 -0.11351,0.0834 -0.43523,0.003 -0.40091,-0.13363 0.13126,-0.52258 0.50113,-1.50339 0.50113,-1.50339 z"
           style="fill:#434343;fill-opacity:1;fill-rule:evenodd;stroke:none;stroke-width:0.26458332px;stroke-linecap:butt;stroke-linejoin:miter;stroke-opacity:1;filter:url(#filter5807)"
           transform="matrix(1.199859,0,0,1.199859,-186.60021,-41.784206)" />
        <path
           d="m 27.059392,272.47143 a 0.55142295,0.55142295 0 0 1 0.03893,-0.75358 0.55142295,0.55142295 0 0 1 0.754533,-0.009 0.55142295,0.55142295 0 0 1 0.05718,0.75241 0.55142295,0.55142295 0 0 1 -0.74725,0.10499"
           sodipodi:open="true"
           sodipodi:end="2.1847508"
           sodipodi:start="2.4396736"
           sodipodi:ry="0.55142295"
           sodipodi:rx="0.55142295"
           sodipodi:cy="272.11539"
           sodipodi:cx="27.480461"
           sodipodi:type="arc"
           id="path6995"
           style="opacity:1;vector-effect:none;fill:#ffffff;fill-opacity:1;stroke:none;stroke-width:0.02129633;stroke-linecap:round;stroke-linejoin:round;stroke-miterlimit:4;stroke-dasharray:none;stroke-dashoffset:0;stroke-opacity:1;paint-order:normal" />
        <path
           id="path6997"
           d="m 30.76204,269.90219 c -2.012307,0.86846 -4.010002,1.80855 -6.072716,2.42499 -0.04655,0.48781 -0.424365,0.81041 -0.781875,1.14274 0.318278,-0.009 0.641103,-0.0442 0.967271,-0.0986 l 0.41605,-0.74344 -0.303202,0.72484 c 0.02984,-0.005 0.05938,-0.009 0.08929,-0.0149 l 0.614462,-0.85008 -0.226935,0.76575 c 0.005,-10e-4 0.0099,-0.003 0.01489,-0.004 l 0.502855,-0.8724 -0.212675,0.79427 c 0.0094,-0.003 0.01854,-0.005 0.02791,-0.008 l 0.56548,-0.92635 -0.173614,0.8073 c 0.02448,-0.008 0.04867,-0.0153 0.07317,-0.0236 l 0.401168,-0.88418 -0.07006,0.76575 c 0.0186,-0.007 0.03719,-0.0128 0.0558,-0.0198 l 0.244919,-0.79613 0.01549,0.6932 c 0.0173,-0.007 0.03476,-0.0134 0.05208,-0.0204 l 0.162452,-0.8228 v 0.75645 c 0.01206,-0.005 0.02451,-0.0115 0.03658,-0.0167 l 0.11409,-0.87984 0.06759,0.79552 c 0.0087,-0.004 0.01733,-0.009 0.02603,-0.0124 l 0.07689,-0.9034 0.08557,0.82838 c 0.0096,-0.004 0.01895,-0.009 0.02851,-0.0136 l 0.01613,-0.92511 0.07937,0.88108 c 0.935616,-0.44448 1.892252,-1.01086 2.867084,-1.6828 z"
           style="opacity:1;fill:#000000;fill-opacity:1;fill-rule:evenodd;stroke:none;stroke-width:0.01587314;stroke-linecap:butt;stroke-linejoin:miter;stroke-miterlimit:4;stroke-dasharray:none;stroke-opacity:1"
           inkscape:connector-curvature="0" />
        <path
           id="path6999"
           d="m 40.001933,273.04891 c -5.612892,0.1991 -11.056929,0.68597 -15.793768,2.16458 -2.268189,0.70803 -4.4554,0.92072 -6.593549,1.11234 -0.133172,1.16904 0.152982,1.83615 0.3404,3.11203 l -0.3404,2.89745 c -0.905714,3.52063 -0.231537,6.51421 -0.283359,9.7502 0.228933,4.9868 0.239336,6.29053 -0.09791,8.70295 -0.04104,0.4307 -0.07163,0.83347 -0.101028,1.23389 2.398938,-1.39985 4.782278,-2.83097 6.675391,-5.24249 2.87977,-1.89681 4.666096,-3.69469 8.658303,-5.69261 1.117176,0.39965 2.303585,0.10583 3.527429,-0.56115 3.282226,-1.55512 5.730239,-3.42269 8.177759,-5.29084 l 0.136412,-0.0143 z"
           style="opacity:0.31000001;fill:#eeeeee;fill-opacity:1;fill-rule:evenodd;stroke:none;stroke-width:0.03174626;stroke-linecap:butt;stroke-linejoin:miter;stroke-miterlimit:4;stroke-dasharray:none;stroke-opacity:1"
           inkscape:connector-curvature="0" />
        <path
           sodipodi:nodetypes="cssc"
           inkscape:connector-curvature="0"
           id="path7001"
           d="m 63.193276,261.98339 c 0.608988,5.68284 -0.433533,10.14328 -2.040828,14.28581 0,0 -7.549717,18.81493 -10.997812,28.34488 -1.654953,4.57399 -4.648566,13.83232 -4.648566,13.83232"
           style="fill:none;fill-rule:evenodd;stroke:#000000;stroke-width:0.0952388;stroke-linecap:butt;stroke-linejoin:miter;stroke-miterlimit:4;stroke-dasharray:none;stroke-opacity:1" />
        <path
           style="fill:none;fill-opacity:1;fill-rule:evenodd;stroke:#000000;stroke-width:0.03049796;stroke-linecap:butt;stroke-linejoin:miter;stroke-miterlimit:4;stroke-dasharray:none;stroke-opacity:1"
           d="m 37.116248,318.33323 38.321841,1.24689 -1.019976,-33.67335 c 0,0 -4.229803,-18.58707 -7.256376,-27.60809 -1.486457,-4.43053 -3.115553,-7.89257 -6.689657,-13.26523 -3.210259,-4.82573 -7.651561,-9.54757 -14.56918,-10.65794 -2.214868,-0.35552 -4.356892,-0.52126 -6.416222,-0.51402 -7.35474,0.0259 -13.656376,2.26032 -18.470498,5.95615 -5.599394,4.29867 -15.9686233,13.91007 -15.9686233,13.91007 l 0.062033,0.0818 c 0.2200901,-0.21121 0.663498,-0.15593 1.3808337,0.31871 2.5577274,1.69238 4.8706956,4.18787 8.0518936,5.2679 1.505475,0.51111 2.784813,1.12552 3.752511,1.90663 6.150177,4.96433 12.481773,7.60783 18.874154,9.56728 l 2.554584,0.75026 c -0.852488,-0.24034 -1.703992,-0.48952 -2.554584,-0.75026"
           id="path7003"
           inkscape:connector-curvature="0"
           sodipodi:nodetypes="cccssccsccsscccc" />
        <path
           clip-path="url(#clipPath5866)"
           style="fill:#a9a9a9;fill-opacity:1;fill-rule:evenodd;stroke:#000000;stroke-width:0.02645833;stroke-linecap:butt;stroke-linejoin:miter;stroke-miterlimit:4;stroke-dasharray:none;stroke-opacity:1;filter:url(#filter5860)"
           d="m 176.01048,261.79199 c -0.82656,-0.45085 -1.02675,-1.53344 -0.8977,-2.38598"
           id="path7005"
           inkscape:connector-curvature="0"
           sodipodi:nodetypes="cc"
           transform="matrix(1.199859,0,0,1.199859,-186.60021,-41.784206)" />
      </g>
    </g>
  </g>
</svg>
