<?xml version="1.0" encoding="UTF-8" standalone="no"?>
<svg
   xmlns:dc="http://purl.org/dc/elements/1.1/"
   xmlns:cc="http://creativecommons.org/ns#"
   xmlns:rdf="http://www.w3.org/1999/02/22-rdf-syntax-ns#"
   xmlns:svg="http://www.w3.org/2000/svg"
   xmlns="http://www.w3.org/2000/svg"
   xmlns:xlink="http://www.w3.org/1999/xlink"
   xmlns:sodipodi="http://sodipodi.sourceforge.net/DTD/sodipodi-0.dtd"
   xmlns:inkscape="http://www.inkscape.org/namespaces/inkscape"
   width="148.00024mm"
   height="209.315mm"
   viewBox="0 0 148.00024 209.315"
   version="1.1"
   id="svg8"
   inkscape:version="1.0.2 (e86c870879, 2021-01-15)"
   sodipodi:docname="haik-pleine-page.svg">
  <defs
     id="defs2">
    <linearGradient
       id="linearGradient4985"
       inkscape:collect="always">
      <stop
         id="stop4979"
         offset="0"
         style="stop-color:#343434;stop-opacity:0.92842942" />
      <stop
         style="stop-color:#1e1e1e;stop-opacity:1"
         offset="0.19401862"
         id="stop4981" />
      <stop
         id="stop4983"
         offset="1"
         style="stop-color:#000000;stop-opacity:1" />
    </linearGradient>
    <linearGradient
       id="haik-9"
       inkscape:collect="always">
      <stop
         id="stop4953"
         offset="0"
         style="stop-color:#fffff5;stop-opacity:1" />
      <stop
         id="stop4955"
         offset="1"
         style="stop-color:#eeeee9;stop-opacity:1" />
    </linearGradient>
    <linearGradient
       inkscape:collect="always"
       id="litham-6-2">
      <stop
         style="stop-color:#ffffff;stop-opacity:1;"
         offset="0"
         id="stop4884" />
      <stop
         style="stop-color:#eeeeee;stop-opacity:1"
         offset="1"
         id="stop4886" />
    </linearGradient>
    <linearGradient
       inkscape:collect="always"
       id="linearGradient4712">
      <stop
         style="stop-color:#bb6055;stop-opacity:1;"
         offset="0"
         id="stop4708" />
      <stop
         style="stop-color:#b65549;stop-opacity:1"
         offset="1"
         id="stop4710" />
    </linearGradient>
    <clipPath
       clipPathUnits="userSpaceOnUse"
       id="clipPath4611">
      <path
         id="path4613"
         d="m 138.67577,0.20360514 -1.03198,5.94589046 -5.1449,0.3338295 1.53685,-5.94692372 -6.01358,0.86868082 -1.93787,6.214091 -3.94188,0.6015135 1.87069,-5.8130817 -5.67976,1.0691854 -1.60352,5.4787352 -3.14037,0.4676717 1.26969,-5.211568 -4.87774,0.9353434 -1.69137,5.7112793 -2.99103,0.22996 V 297.20357 H 210.29879 V 0.20360514 h -0.37414 l 0.14935,1.26865636 -8.01812,0.9353435 0.0222,-2.20399986 H 192.0043 l 0.0289,3.47317296 -6.54844,0.8020182 -0.0946,-4.27519116 h -8.79377 l 0.20257,4.80952566 -6.08077,0.4681884 0.36742,-5.27771406 h -8.49251 l -0.3607,6.74739166 -5.54591,0.6681764 0.65319,-7.41556806 h -7.60419 l -0.53227,4.54235836 -4.61057,0.6015138 0.46767,-5.14387216 z M 106.87254,5.5665852 105.299,5.8192831 v 3.6157998 z"
         style="fill:#bb6055;fill-opacity:1;fill-rule:evenodd;stroke:none;stroke-width:0.264583px;stroke-linecap:butt;stroke-linejoin:miter;stroke-opacity:1"
         inkscape:connector-curvature="0" />
    </clipPath>
    <linearGradient
       inkscape:collect="always"
       id="linearGradient4926">
      <stop
         style="stop-color:#c7e2e3;stop-opacity:1"
         offset="0"
         id="stop4922" />
      <stop
         style="stop-color:#8ebdc1;stop-opacity:0.99042147"
         offset="1"
         id="stop4924" />
    </linearGradient>
    <linearGradient
       inkscape:collect="always"
       id="linearGradient4675">
      <stop
         style="stop-color:#e6c8d0;stop-opacity:1"
         offset="0"
         id="stop4671" />
      <stop
         style="stop-color:#e6c8c6;stop-opacity:1"
         offset="1"
         id="stop4673" />
    </linearGradient>
    <linearGradient
       inkscape:collect="always"
       id="linearGradient4683">
      <stop
         style="stop-color:#000000;stop-opacity:1;"
         offset="0"
         id="stop4679" />
      <stop
         style="stop-color:#000000;stop-opacity:0;"
         offset="1"
         id="stop4681" />
    </linearGradient>
    <clipPath
       clipPathUnits="userSpaceOnUse"
       id="clipPath4643">
      <path
         sodipodi:nodetypes="ccc"
         inkscape:connector-curvature="0"
         id="path4645"
         d="m 120.05413,-13.466965 c -1.60828,2.9898 -5.40114,0.837209 -5.91334,0.818513 3.1207,-2.868681 4.81844,-1.465388 5.91334,-0.818513 z"
         style="fill:none;fill-opacity:1;fill-rule:evenodd;stroke:#000000;stroke-width:0.264583px;stroke-linecap:butt;stroke-linejoin:miter;stroke-opacity:1" />
    </clipPath>
    <linearGradient
       inkscape:collect="always"
       id="linearGradient4627">
      <stop
         style="stop-color:#200000;stop-opacity:1;"
         offset="0"
         id="stop4623" />
      <stop
         style="stop-color:#200000;stop-opacity:0;"
         offset="1"
         id="stop4625" />
    </linearGradient>
    <clipPath
       clipPathUnits="userSpaceOnUse"
       id="clipPath6066">
      <path
         sodipodi:nodetypes="ccc"
         inkscape:connector-curvature="0"
         id="path6064"
         d="m 120.05413,-13.466965 c -1.60828,2.9898 -5.40114,0.837209 -5.91334,0.818513 3.1207,-2.868681 4.81844,-1.465388 5.91334,-0.818513 z"
         style="fill:none;fill-opacity:1;fill-rule:evenodd;stroke:#000000;stroke-width:0.264583px;stroke-linecap:butt;stroke-linejoin:miter;stroke-opacity:1" />
    </clipPath>
    <clipPath
       clipPathUnits="userSpaceOnUse"
       id="clipPath4669">
      <path
         sodipodi:nodetypes="cccccc"
         inkscape:connector-curvature="0"
         id="path4671"
         d="m 122.70003,15.705058 c -3.86449,-0.966114 -4.74022,-3.780409 -5.76365,-6.7229155 L 105.69159,8.8404012 c -0.0475,4.2150228 -1.66818,7.9863018 -6.61458,10.8195688 l 6.18936,3.779761 z"
         style="fill:url(#linearGradient4673);fill-opacity:1;fill-rule:evenodd;stroke:none;stroke-width:0.264583px;stroke-linecap:butt;stroke-linejoin:miter;stroke-opacity:1" />
    </clipPath>
    <filter
       inkscape:collect="always"
       style="color-interpolation-filters:sRGB"
       id="filter4661"
       x="-0.052589335"
       width="1.1051787"
       y="-0.034960408"
       height="1.0699208">
      <feGaussianBlur
         inkscape:collect="always"
         stdDeviation="0.59513138"
         id="feGaussianBlur4663" />
    </filter>
    <clipPath
       clipPathUnits="userSpaceOnUse"
       id="clipPath4870">
      <path
         style="fill:none;fill-rule:evenodd;stroke:#00ee00;stroke-width:0.245078px;stroke-linecap:butt;stroke-linejoin:miter;stroke-opacity:1"
         d="m 252.6027,241.88444 c 0.62434,-0.47826 0.89667,-1.65904 1.0763,-2.42471 0.28119,-1.19848 0.24065,-2.29321 0.24445,-3.52423 0.0117,-3.7732 -0.0735,-7.55659 -0.45458,-11.31052 -0.36131,-3.55911 -2.63395,-8.93789 -6.20544,-11.70288 -2.91589,-2.25744 -6.76693,-3.45389 -10.59779,-1.54701 -3.45665,1.72061 -5.95983,4.58877 -7.09979,8.07847 -0.44437,1.36031 -0.97995,2.75859 -0.88979,4.19257 0.22918,3.64522 -0.0911,5.50344 -0.16638,7.74357 -0.10656,3.1693 0.15449,6.5037 1.43623,9.40421 0.68999,1.56139 1.63093,3.36343 3.22275,3.97995 6.17308,2.39084 14.17883,1.13624 19.43404,-2.88942 z"
         id="path4872"
         inkscape:connector-curvature="0"
         sodipodi:nodetypes="ssssssssssss" />
    </clipPath>
    <linearGradient
       inkscape:collect="always"
       xlink:href="#litham-6-2"
       id="linearGradient4946"
       x1="136.19046"
       y1="281.5217"
       x2="162.75441"
       y2="281.5217"
       gradientUnits="userSpaceOnUse" />
    <filter
       inkscape:collect="always"
       style="color-interpolation-filters:sRGB"
       id="filter4664"
       x="-0.066528231"
       width="1.1330565"
       y="-0.050784599"
       height="1.1015692">
      <feGaussianBlur
         inkscape:collect="always"
         stdDeviation="0.74482004"
         id="feGaussianBlur4666" />
    </filter>
    <clipPath
       clipPathUnits="userSpaceOnUse"
       id="clipPath4674">
      <path
         sodipodi:nodetypes="cccccccccc"
         inkscape:connector-curvature="0"
         id="path4676"
         d="m 135.4413,264.08514 c 2.29387,0.31358 5.45213,0.71376 7.77974,1.32125 1.35447,0.35348 2.36542,0.1883 3.44904,0 0.58044,-0.10089 1.12774,-0.1256 1.74814,-0.0945 2.21784,0.11115 4.39986,0.15348 6.66183,-0.33073 1.44489,-0.30929 2.93053,-0.20009 4.48846,-0.23624 1.19949,-0.0278 1.90346,-0.53656 2.74033,-0.85045 -4.31354,21.46876 7.2412,43.15194 -9.09435,40.00176 l -13.37091,0.14174 c -11.65396,1.22566 -3.22933,-28.22369 -4.40228,-39.95282 z"
         style="fill:none;fill-opacity:1;fill-rule:evenodd;stroke:#000000;stroke-width:0.264583px;stroke-linecap:butt;stroke-linejoin:miter;stroke-opacity:1" />
    </clipPath>
    <filter
       inkscape:collect="always"
       style="color-interpolation-filters:sRGB"
       id="filter4714"
       x="-0.038812485"
       width="1.077625"
       y="-0.021413798"
       height="1.0428276">
      <feGaussianBlur
         inkscape:collect="always"
         stdDeviation="0.19560264"
         id="feGaussianBlur4716" />
    </filter>
    <radialGradient
       inkscape:collect="always"
       xlink:href="#haik-9"
       id="radialGradient5310"
       cx="713.3429"
       cy="1002.5218"
       fx="713.3429"
       fy="1002.5218"
       r="111.45817"
       gradientTransform="matrix(1,0,0,1.2158349,0,-216.37916)"
       gradientUnits="userSpaceOnUse" />
    <linearGradient
       inkscape:collect="always"
       xlink:href="#haik-9"
       id="linearGradient5321"
       x1="800.46881"
       y1="960.88135"
       x2="823.55444"
       y2="993.02423"
       gradientUnits="userSpaceOnUse" />
    <filter
       inkscape:collect="always"
       style="color-interpolation-filters:sRGB"
       id="filter5367"
       x="-0.21124507"
       width="1.4224902"
       y="-0.098550186"
       height="1.1971004">
      <feGaussianBlur
         inkscape:collect="always"
         stdDeviation="0.30866534"
         id="feGaussianBlur5369" />
    </filter>
    <clipPath
       clipPathUnits="userSpaceOnUse"
       id="clipPath5381">
      <path
         sodipodi:nodetypes="csscscc"
         inkscape:connector-curvature="0"
         id="path5383"
         d="m 164.56471,249.35806 c -1.26162,-0.89964 -2.41581,-1.9272 -3.63693,-2.73518 -1.79126,-1.18522 -1.54169,0.75302 -0.33408,2.47224 2.38354,3.39334 4.35503,7.22549 6.01356,10.42351 l -2.2668,-5.45153 c -0.58303,-1.40215 -0.70236,-2.94527 0.17658,-4.75452 z"
         style="fill:#000000;fill-opacity:0.286282;fill-rule:evenodd;stroke:#000000;stroke-width:0.132292;stroke-linecap:butt;stroke-linejoin:miter;stroke-miterlimit:4;stroke-dasharray:none;stroke-opacity:1" />
    </clipPath>
    <linearGradient
       inkscape:collect="always"
       xlink:href="#linearGradient4985"
       id="linearGradient5408"
       x1="169.53975"
       y1="261.08069"
       x2="163.72174"
       y2="259.82788"
       gradientUnits="userSpaceOnUse" />
    <linearGradient
       inkscape:collect="always"
       xlink:href="#linearGradient4985"
       id="linearGradient5418"
       x1="171.64986"
       y1="258.18942"
       x2="177.42703"
       y2="258.18942"
       gradientUnits="userSpaceOnUse" />
    <filter
       inkscape:collect="always"
       style="color-interpolation-filters:sRGB"
       id="filter5807"
       x="-0.11160698"
       width="1.223214"
       y="-0.13550399"
       height="1.271008">
      <feGaussianBlur
         inkscape:collect="always"
         stdDeviation="0.14149618"
         id="feGaussianBlur5809" />
    </filter>
    <filter
       inkscape:collect="always"
       style="color-interpolation-filters:sRGB"
       id="filter5860"
       x="-0.24319828"
       width="1.4863966"
       y="-0.095165484"
       height="1.190331">
      <feGaussianBlur
         inkscape:collect="always"
         stdDeviation="0.094609557"
         id="feGaussianBlur5862" />
    </filter>
    <clipPath
       clipPathUnits="userSpaceOnUse"
       id="clipPath5866">
      <path
         sodipodi:nodetypes="ccccccc"
         inkscape:connector-curvature="0"
         id="path5868"
         d="m 176.01048,261.79199 c -0.82656,-0.45085 -1.02675,-1.53344 -0.8977,-2.38598 l -0.24804,-1.09849 -1.33473,0.7914 1.47647,4.97274 1.37016,-0.5079 z"
         style="fill:none;fill-rule:evenodd;stroke:#000000;stroke-width:0.0264583;stroke-linecap:butt;stroke-linejoin:miter;stroke-miterlimit:4;stroke-dasharray:none;stroke-opacity:1" />
    </clipPath>
    <clipPath
       clipPathUnits="userSpaceOnUse"
       id="clipPath6246">
      <rect
         style="opacity:1;vector-effect:none;fill:none;fill-opacity:1;stroke:#000000;stroke-width:0.264583;stroke-linecap:round;stroke-linejoin:round;stroke-miterlimit:4;stroke-dasharray:none;stroke-dashoffset:0;stroke-opacity:1;paint-order:normal"
         id="rect6248"
         width="105.83334"
         height="70.114586"
         x="248.99806"
         y="107.50701"
         ry="0" />
    </clipPath>
    <clipPath
       clipPathUnits="userSpaceOnUse"
       id="clipPath6438">
      <rect
         ry="0"
         y="107.64239"
         x="249.00122"
         height="104.69317"
         width="104.69317"
         id="rect6440"
         style="opacity:1;vector-effect:none;fill:none;fill-opacity:1;stroke:#000000;stroke-width:0.270747;stroke-linecap:round;stroke-linejoin:round;stroke-miterlimit:4;stroke-dasharray:none;stroke-dashoffset:0;stroke-opacity:1;paint-order:normal" />
    </clipPath>
    <clipPath
       clipPathUnits="userSpaceOnUse"
       id="clipPath6720">
      <rect
         style="opacity:1;vector-effect:none;fill:none;fill-opacity:1;stroke:#000000;stroke-width:0.270747;stroke-linecap:round;stroke-linejoin:round;stroke-miterlimit:4;stroke-dasharray:none;stroke-dashoffset:0;stroke-opacity:1;paint-order:normal"
         id="rect6722"
         width="104.69317"
         height="104.69317"
         x="661.1308"
         y="107.64239"
         ry="0" />
    </clipPath>
    <clipPath
       clipPathUnits="userSpaceOnUse"
       id="clipPath6746">
      <rect
         style="opacity:1;vector-effect:none;fill:none;fill-opacity:1;stroke:none;stroke-width:0.647203;stroke-linecap:round;stroke-linejoin:round;stroke-miterlimit:4;stroke-dasharray:none;stroke-dashoffset:0;stroke-opacity:1;paint-order:normal"
         id="rect6748"
         width="94.249916"
         height="266.59259"
         x="116.89134"
         y="31.051826"
         ry="0" />
    </clipPath>
    <radialGradient
       inkscape:collect="always"
       xlink:href="#linearGradient4926"
       id="radialGradient7013"
       gradientUnits="userSpaceOnUse"
       gradientTransform="matrix(1,0,0,2.8285714,-313.77442,-271.91522)"
       cx="157.7988"
       cy="148.70364"
       fx="157.7988"
       fy="148.70364"
       r="52.5" />
    <radialGradient
       inkscape:collect="always"
       xlink:href="#linearGradient4712"
       id="radialGradient7015"
       gradientUnits="userSpaceOnUse"
       gradientTransform="matrix(0.01616016,4.8668403,-1.6678572,0.00553806,1061.7354,-1899.0792)"
       cx="408.51691"
       cy="395.60953"
       fx="408.51691"
       fy="395.60953"
       r="198.4248" />
    <linearGradient
       inkscape:collect="always"
       xlink:href="#linearGradient4675"
       id="linearGradient7017"
       gradientUnits="userSpaceOnUse"
       gradientTransform="translate(130.78239,248.60011)"
       x1="98.817207"
       y1="16.147451"
       x2="123.39385"
       y2="16.147451" />
    <linearGradient
       inkscape:collect="always"
       xlink:href="#linearGradient4675"
       id="linearGradient7019"
       gradientUnits="userSpaceOnUse"
       gradientTransform="translate(130.78239,248.60011)"
       x1="97.094391"
       y1="-9.6086073"
       x2="124.35435"
       y2="-9.6086073" />
    <radialGradient
       inkscape:collect="always"
       xlink:href="#linearGradient4683"
       id="radialGradient7021"
       gradientUnits="userSpaceOnUse"
       gradientTransform="matrix(0.73903678,0.04145691,-0.10200216,1.8183547,157.55379,252.69042)"
       cx="107.37393"
       cy="-10.375482"
       fx="107.37393"
       fy="-10.375482"
       r="4.0775237" />
    <linearGradient
       inkscape:collect="always"
       xlink:href="#linearGradient4627"
       id="linearGradient7023"
       gradientUnits="userSpaceOnUse"
       x1="112.30423"
       y1="-16.701254"
       x2="122.08163"
       y2="-16.701254" />
    <linearGradient
       inkscape:collect="always"
       xlink:href="#linearGradient4627"
       id="linearGradient7025"
       gradientUnits="userSpaceOnUse"
       gradientTransform="translate(130.78239,248.60011)"
       x1="112.30423"
       y1="-16.701254"
       x2="122.08163"
       y2="-16.701254" />
    <radialGradient
       inkscape:collect="always"
       xlink:href="#linearGradient4683"
       id="radialGradient7027"
       gradientUnits="userSpaceOnUse"
       gradientTransform="matrix(1,0,0,0.73639138,0,-1.0247987)"
       cx="113.09428"
       cy="-3.8875768"
       fx="113.09428"
       fy="-3.8875768"
       r="0.78488082" />
    <radialGradient
       inkscape:collect="always"
       xlink:href="#linearGradient4683"
       id="radialGradient7029"
       gradientUnits="userSpaceOnUse"
       gradientTransform="matrix(1,0,0,0.73639138,0,-1.0247987)"
       cx="113.09428"
       cy="-3.8875768"
       fx="113.09428"
       fy="-3.8875768"
       r="0.78488082" />
    <radialGradient
       inkscape:collect="always"
       xlink:href="#haik-9"
       id="radialGradient7031"
       gradientUnits="userSpaceOnUse"
       gradientTransform="matrix(1,0,0,0.81669497,0,49.272632)"
       cx="135.8837"
       cy="268.8013"
       fx="135.8837"
       fy="268.8013"
       r="40.035629" />
    <radialGradient
       inkscape:collect="always"
       xlink:href="#haik-9"
       id="radialGradient7033"
       gradientUnits="userSpaceOnUse"
       gradientTransform="matrix(0.5261481,0.3147292,-0.56938438,0.95186756,214.00299,-45.268249)"
       cx="150.98495"
       cy="245.49788"
       fx="150.98495"
       fy="245.49788"
       r="18.426689" />
    <linearGradient
       inkscape:collect="always"
       xlink:href="#linearGradient4985"
       id="linearGradient7035"
       gradientUnits="userSpaceOnUse"
       x1="550.09332"
       y1="916.97968"
       x2="609.39929"
       y2="928.76538" />
    <linearGradient
       inkscape:collect="always"
       xlink:href="#linearGradient4985"
       id="linearGradient7037"
       gradientUnits="userSpaceOnUse"
       x1="549.60522"
       y1="922.10901"
       x2="505.96848"
       y2="922.8233" />
    <radialGradient
       inkscape:collect="always"
       xlink:href="#haik-9"
       id="radialGradient7039"
       gradientUnits="userSpaceOnUse"
       gradientTransform="matrix(0.26458333,0,0,0.32168965,0.29879773,-57.046683)"
       cx="713.3429"
       cy="1002.5218"
       fx="713.3429"
       fy="1002.5218"
       r="111.45817" />
    <linearGradient
       inkscape:collect="always"
       xlink:href="#haik-9"
       id="linearGradient7041"
       gradientUnits="userSpaceOnUse"
       gradientTransform="matrix(0.26458333,0,0,0.26458333,0.29879773,0.20363609)"
       x1="800.46881"
       y1="960.88135"
       x2="823.55444"
       y2="993.02423" />
    <linearGradient
       inkscape:collect="always"
       xlink:href="#haik-9"
       id="linearGradient7043"
       gradientUnits="userSpaceOnUse"
       x1="159.56979"
       y1="252.87041"
       x2="166.66833"
       y2="252.87041" />
    <linearGradient
       inkscape:collect="always"
       xlink:href="#linearGradient4985"
       id="linearGradient7045"
       gradientUnits="userSpaceOnUse"
       x1="169.53975"
       y1="261.08069"
       x2="163.72174"
       y2="259.82788" />
    <linearGradient
       inkscape:collect="always"
       xlink:href="#linearGradient4985"
       id="linearGradient7047"
       gradientUnits="userSpaceOnUse"
       x1="171.64986"
       y1="258.18942"
       x2="177.42703"
       y2="258.18942" />
    <clipPath
       clipPathUnits="userSpaceOnUse"
       id="clipPath7583">
      <path
         id="path7585"
         d="M -208.47563,0.20360514 V 148.70358 h 104.9998 V 0.20360514 Z"
         style="opacity:1;vector-effect:none;fill:#fcfcfc;fill-opacity:1;stroke:none;stroke-width:0.721023;stroke-linecap:round;stroke-linejoin:round;stroke-miterlimit:4;stroke-dasharray:none;stroke-dashoffset:0;stroke-opacity:1;paint-order:normal"
         inkscape:connector-curvature="0" />
    </clipPath>
    <clipPath
       clipPathUnits="userSpaceOnUse"
       id="clipPath7601">
      <path
         inkscape:connector-curvature="0"
         style="opacity:1;vector-effect:none;fill:#fcfcfc;fill-opacity:1;stroke:none;stroke-width:1.15445;stroke-linecap:round;stroke-linejoin:round;stroke-miterlimit:4;stroke-dasharray:none;stroke-dashoffset:0;stroke-opacity:1;paint-order:normal"
         d="M 43.821178,60.294422 V 298.06227 H 211.93956 V 60.294422 Z"
         id="path7603" />
    </clipPath>
  </defs>
  <sodipodi:namedview
     id="base"
     pagecolor="#ffffff"
     bordercolor="#666666"
     borderopacity="1.0"
     inkscape:pageopacity="0.0"
     inkscape:pageshadow="2"
     inkscape:zoom="1.0706109"
     inkscape:cx="279.68602"
     inkscape:cy="395.5434"
     inkscape:document-units="mm"
     inkscape:current-layer="g1697"
     showgrid="false"
     inkscape:window-width="1916"
     inkscape:window-height="1038"
     inkscape:window-x="0"
     inkscape:window-y="40"
     inkscape:window-maximized="0"
     fit-margin-top="0"
     fit-margin-left="0"
     fit-margin-right="0"
     fit-margin-bottom="0"
     inkscape:snap-global="false"
     inkscape:document-rotation="0" />
  <metadata
     id="metadata5">
    <rdf:RDF>
      <cc:Work
         rdf:about="">
        <dc:format>image/svg+xml</dc:format>
        <dc:type
           rdf:resource="http://purl.org/dc/dcmitype/StillImage" />
        <dc:title />
      </cc:Work>
    </rdf:RDF>
  </metadata>
  <g
     inkscape:label="Calque 1"
     inkscape:groupmode="layer"
     id="layer1"
     transform="translate(267.0652,-44.044724)">
    <g
       id="g1697"
       transform="matrix(0.70476443,0,0,0.70476443,-46.138741,43.901209)">
      <path
         sodipodi:nodetypes="ccccccccccccccccccccccccccccccccccccccccccc"
         inkscape:connector-curvature="0"
         id="path6777"
         d="m -175.09865,0.20360514 -1.03198,5.94589036 -5.14491,0.3338295 1.53686,-5.94692363 -6.01359,0.86868083 -1.93786,6.2140909 -3.94188,0.6015135 1.87069,-5.8130816 -5.67976,1.0691853 -1.60352,5.4787352 -3.14038,0.4676717 1.26969,-5.211568 -4.87774,0.9353434 -1.69136,5.7112794 -2.99104,0.22996 V 297.20357 h 104.99979 V 0.20360514 h -0.37413 l 0.14934,1.26865636 -8.01811,0.9353435 0.0222,-2.20399986 h -10.0738 l 0.0289,3.47317286 -6.54843,0.8020182 -0.0946,-4.27519106 h -8.79378 l 0.20257,4.80952556 -6.08076,0.4681884 -0.34549,-5.28712346 -7.7796,0.00941 -0.3607,6.74739156 -5.54591,0.6681764 0.65319,-7.41556796 h -7.60419 l -0.53227,4.54235836 -4.61057,0.6015138 0.46767,-5.14387217 z m -31.80323,5.36297996 -1.57355,0.252698 v 3.6157997 z"
         style="fill:none;fill-opacity:1;fill-rule:evenodd;stroke:none;stroke-width:0.264583px;stroke-linecap:butt;stroke-linejoin:miter;stroke-opacity:1"
         inkscape:export-filename="/tmp/haik-choix.png"
         inkscape:export-xdpi="128.14708"
         inkscape:export-ydpi="128.14708" />
      <rect
         ry="0"
         y="0.20363609"
         x="-313.47562"
         height="297"
         width="210"
         id="rect6781"
         style="opacity:1;vector-effect:none;fill:#fcfcfc;fill-opacity:1;stroke:none;stroke-width:1.01968;stroke-linecap:round;stroke-linejoin:round;stroke-miterlimit:4;stroke-dasharray:none;stroke-dashoffset:0;stroke-opacity:1;paint-order:normal"
         inkscape:export-filename="/tmp/haik-choix.png"
         inkscape:export-xdpi="128.14708"
         inkscape:export-ydpi="128.14708" />
      <g
         id="g7577"
         transform="matrix(2,0,0,2,103.47565,-0.20357419)"
         clip-path="url(#clipPath7583)"
         inkscape:export-filename="/tmp/haik.png"
         inkscape:export-xdpi="128.14708"
         inkscape:export-ydpi="128.14708">
        <rect
           ry="0"
           y="0.20363609"
           x="-208.47563"
           height="297"
           width="105"
           id="rect6845"
           style="opacity:1;vector-effect:none;fill:url(#radialGradient7013);fill-opacity:1;stroke:none;stroke-width:0.721023;stroke-linecap:round;stroke-linejoin:round;stroke-miterlimit:4;stroke-dasharray:none;stroke-dashoffset:0;stroke-opacity:1;paint-order:normal" />
        <g
           transform="translate(-313.77442)"
           id="g6853">
          <path
             inkscape:connector-curvature="0"
             id="path6847"
             transform="matrix(0.26458333,0,0,0.26458333,0.29879773,0.20363609)"
             d="M 547.13086,0 545.36328,19.441406 555.4082,18.130859 556.72852,9.875 550.56445,0 Z m 46.41016,0 -2.46875,28.027344 7.55859,-0.910156 L 600.06641,0 Z m 49.25976,0 1.30469,19.947266 2.5332,-0.195313 0.44727,-8.716797 L 642.8125,0 Z m -137.33789,1.2578125 -5.80859,22.4765625 15.04687,-0.976563 2.29492,-5.917968 z m -37.88086,7.0722656 -7.07031,21.9707029 14.89844,-2.273437 2.61914,-8.400391 z m -34.59765,6.8183599 -4.79883,19.697265 11.86914,-1.767578 2.94336,-10.054687 z m -30.18555,5.121093 -5.94727,14.621094 v 6.248047 l 11.30469,-0.869141 4.04297,-13.654297 z"
             style="fill:#a54d42;fill-opacity:1;fill-rule:evenodd;stroke:none;stroke-width:1px;stroke-linecap:butt;stroke-linejoin:miter;stroke-opacity:1" />
          <path
             inkscape:connector-curvature="0"
             id="path6849"
             transform="matrix(0.26458333,0,0,0.26458333,0.29879773,0.20363609)"
             d="m 720.65039,0 1.96289,13.378906 2.05274,-0.251953 L 724.55664,0 Z m 58.46289,0 1.58203,6.2128906 L 792.85156,4.7949219 792.28711,0 Z"
             style="fill:#7d3a32;fill-opacity:1;fill-rule:evenodd;stroke:none;stroke-width:1px;stroke-linecap:butt;stroke-linejoin:miter;stroke-opacity:1" />
          <path
             inkscape:connector-curvature="0"
             transform="scale(0.26458333)"
             id="path6851"
             d="m 524.12891,0.76953125 -3.90039,22.47265675 -19.44532,1.261718 5.8086,-22.4765622 -22.72852,3.2832031 -7.32422,23.4863281 -14.89844,2.273437 7.07032,-21.9707026 -21.4668,4.0410156 -6.06055,20.707031 -11.86914,1.767578 4.79883,-19.697265 -18.43555,3.535156 -6.39257,21.585937 -11.30469,0.869141 V 1123.2891 H 794.83008 V 0.76953125 h -1.41406 l 0.56445,4.79492185 -30.30469,3.5351563 0.084,-8.33007815 h -38.07422 l 0.10937,13.12695275 -24.75,3.03125 L 700.6875,0.76953125 H 667.45117 L 668.2168,18.947266 645.23438,20.716797 646.62305,0.76953125 H 614.52539 L 613.16211,26.271484 592.20117,28.796875 594.66992,0.76953125 H 565.92969 L 563.91797,17.9375 546.49219,20.210938 548.25977,0.76953125 Z M 403.92773,21.039062 l -5.94726,0.955079 v 13.666015 z"
             style="fill:url(#radialGradient7015);fill-opacity:1;fill-rule:evenodd;stroke:none;stroke-width:1px;stroke-linecap:butt;stroke-linejoin:miter;stroke-opacity:1" />
        </g>
      </g>
      <g
         clip-path="url(#clipPath7601)"
         transform="matrix(1.2491174,0,0,1.2491174,-368.2134,-75.111175)"
         id="g7007"
         inkscape:export-filename="/tmp/haik-choix.png"
         inkscape:export-xdpi="128.14708"
         inkscape:export-ydpi="128.14708">
        <g
           id="g6957">
          <g
             clip-path="url(#clipPath4870)"
             style="opacity:1;stroke:none"
             transform="matrix(1.0715851,-0.13120471,0.13120471,1.0715851,-140.85912,40.577567)"
             id="g6919">
            <path
               sodipodi:nodetypes="cccccc"
               inkscape:connector-curvature="0"
               id="path6871"
               d="m 253.4824,264.30517 c -3.8645,-0.96612 -4.7402,-3.78041 -5.7636,-6.72292 l -11.2448,-0.14174 c -0.048,4.21502 -1.6682,7.9863 -6.6146,10.81957 l 6.1894,3.77976 z"
               style="fill:url(#linearGradient7017);fill-opacity:1;fill-rule:evenodd;stroke:none;stroke-width:0.264583px;stroke-linecap:butt;stroke-linejoin:miter;stroke-opacity:1"
               inkscape:export-xdpi="96"
               inkscape:export-ydpi="96" />
            <path
               transform="translate(130.78239,248.60011)"
               clip-path="url(#clipPath4669)"
               style="opacity:1;fill:#000000;fill-opacity:1;fill-rule:evenodd;stroke:none;stroke-width:0.1;stroke-linecap:butt;stroke-linejoin:miter;stroke-miterlimit:4;stroke-dasharray:none;stroke-opacity:1;filter:url(#filter4661)"
               d="m 119.17083,-26.243176 c 2.50117,1.929502 2.76673,5.110094 3.00522,7.673181 0.68906,2.763354 1.12042,4.894422 1.61115,7.755635 0.50816,1.6943999 0.58403,3.2272681 0.47247,4.7719488 -0.30373,1.8199334 -0.35748,3.288876 -0.47247,4.5357143 -0.56571,2.4062358 -1.25952,4.5113076 -2.6654,6.5444083 -2.34758,2.6136802 -3.86932,3.7955016 -5.50457,4.9376019 -2.97234,1.1841227 -5.63842,1.1244947 -8.55547,-0.1899716 C 103.02749,8.0168796 100.40673,3.8578472 99.077009,0.00520786 96.738277,-5.7826686 96.94923,-12.440788 97.517856,-18.657366 c 0.267618,-2.925768 0.374005,-3.417224 2.047834,-5.83177 1.30485,-1.882281 3.48338,-3.083208 5.57515,-4.015997 1.95798,-0.873123 4.21719,-1.940189 6.28385,-1.370163 3.30823,0.912477 5.80889,0.799437 7.74614,3.63212 z"
               id="path6873"
               inkscape:connector-curvature="0"
               sodipodi:nodetypes="cccccccccccccc"
               inkscape:export-xdpi="96"
               inkscape:export-ydpi="96" />
            <path
               sodipodi:nodetypes="cccccccccccccc"
               inkscape:connector-curvature="0"
               id="path6875"
               d="m 249.9532,222.35693 c 2.5012,1.92951 2.7668,5.1101 3.0053,7.67318 0.689,2.76336 0.22271,5.08341 0.71341,7.94463 0.5082,1.6944 0.584,3.22726 0.4725,4.77195 -0.3038,1.81993 -0.3575,3.28887 -0.4725,4.53571 -0.5657,2.40624 -1.2595,4.51131 -2.6654,6.54441 -2.3476,2.61368 -2.97161,3.60651 -4.60691,4.74861 -2.9723,1.18413 -5.6384,1.1245 -8.5554,-0.18997 -4.0343,-1.76846 -6.6551,-5.92749 -7.9848,-9.78013 -2.3387,-5.78788 -2.1278,-12.446 -1.5591,-18.66258 0.2676,-2.92576 0.374,-3.41722 2.0478,-5.83177 1.3048,-1.88228 3.4834,-3.0832 5.5751,-4.01599 1.958,-0.87313 4.2172,-1.94019 6.2839,-1.37017 3.3082,0.91248 5.8089,0.79944 7.7461,3.63212 z"
               style="opacity:1;fill:url(#linearGradient7019);fill-opacity:1;fill-rule:evenodd;stroke:none;stroke-width:0.1;stroke-linecap:butt;stroke-linejoin:miter;stroke-miterlimit:4;stroke-dasharray:none;stroke-opacity:1"
               inkscape:export-xdpi="96"
               inkscape:export-ydpi="96" />
            <path
               sodipodi:nodetypes="ccccccccccccc"
               inkscape:connector-curvature="0"
               id="path6877"
               d="m 239.4275,231.55841 c 2.0671,2.50834 2.0545,6.49851 1.637,9.72193 -0.1381,1.06648 -0.3967,1.8588 -1.1929,2.58156 -0.2742,0.2488 -0.9758,0.36234 -1.0455,0.7259 -0.1476,0.76981 1.1588,1.00636 1.8677,1.42872 -0.7658,-0.13141 -1.5107,-0.40941 -1.8899,-1.01581 -0.2089,-0.33411 -0.1399,-0.79817 -0.047,-1.18118 0.1467,-0.60665 0.7567,-1.02799 0.9213,-1.63002 0.43,-1.57261 0.9018,-3.99746 -0.44,-4.92348 -0.8172,-0.56395 -1.8085,0.84042 -2.7639,1.11031 -0.7226,0.2041 -1.6233,0.83283 -2.2207,0.37797 -2.4306,-1.85069 -0.9213,-9.11867 -0.9213,-9.11867 0,0 4.7405,0.27864 6.0955,1.92277 z"
               style="opacity:0.405;fill:url(#radialGradient7021);fill-opacity:1;fill-rule:evenodd;stroke:none;stroke-width:0.1;stroke-linecap:butt;stroke-linejoin:miter;stroke-miterlimit:4;stroke-dasharray:none;stroke-opacity:1"
               inkscape:export-xdpi="96"
               inkscape:export-ydpi="96" />
            <g
               style="stroke:none"
               transform="matrix(-0.98991984,0.14162885,0.14162885,0.98991984,353.24183,233.11606)"
               id="g6889"
               inkscape:export-xdpi="96"
               inkscape:export-ydpi="96">
              <path
                 sodipodi:nodetypes="ccccccc"
                 inkscape:connector-curvature="0"
                 id="path6879"
                 d="m 112.82115,-17.476008 c 3.0101,-0.986188 6.00115,-1.553305 8.88671,0.200452 l 0.30068,1.369756 c -4.26528,-2.454364 -7.375,-0.49833 -9.35513,0.919927 l 1.37045,-1.387648 c -0.50011,-0.454606 -1.0777,-0.211947 -1.63702,-0.133635 z"
                 style="fill:url(#linearGradient7023);fill-opacity:1;fill-rule:evenodd;stroke:none;stroke-width:0.1;stroke-linecap:butt;stroke-linejoin:miter;stroke-miterlimit:4;stroke-dasharray:none;stroke-opacity:1" />
              <path
                 sodipodi:nodetypes="ccc"
                 inkscape:connector-curvature="0"
                 id="path6881"
                 d="m 120.05413,-13.466965 c -1.60828,2.9898 -5.40114,0.837209 -5.91334,0.818513 3.1207,-2.868681 4.81844,-1.465388 5.91334,-0.818513 z"
                 style="fill:#e5e5e5;fill-opacity:1;fill-rule:evenodd;stroke:none;stroke-width:0.1;stroke-linecap:butt;stroke-linejoin:miter;stroke-miterlimit:4;stroke-dasharray:none;stroke-opacity:1" />
              <path
                 clip-path="url(#clipPath4643)"
                 d="m 115.8042,-13.842076 a 1.6063988,1.6063988 0 0 1 1.66925,-1.530324 1.6063988,1.6063988 0 0 1 1.54089,1.659509 1.6063988,1.6063988 0 0 1 -1.6497,1.55138 1.6063988,1.6063988 0 0 1 -1.56182,-1.639824"
                 sodipodi:open="true"
                 sodipodi:end="3.162781"
                 sodipodi:start="3.188158"
                 sodipodi:ry="1.6063988"
                 sodipodi:rx="1.6063988"
                 sodipodi:cy="-13.767301"
                 sodipodi:cx="117.40886"
                 sodipodi:type="arc"
                 id="path6883"
                 style="opacity:1;fill:#000000;fill-opacity:1;stroke:none;stroke-width:0.2;stroke-linecap:round;stroke-linejoin:round;stroke-miterlimit:4;stroke-dasharray:none;stroke-dashoffset:0;stroke-opacity:1"
                 sodipodi:arc-type="arc" />
              <path
                 sodipodi:nodetypes="cccccc"
                 inkscape:connector-curvature="0"
                 id="path6885"
                 d="m 117.53177,-14.385704 1.58692,0.417608 1.00226,0.467722 0.71828,-0.200452 c -2.46286,-1.54187 -4.26181,-0.832803 -6.06367,-0.0167 0.84577,-0.282011 1.45125,-0.759255 2.75621,-0.668178 z"
                 style="fill:#0a0a0a;fill-opacity:1;fill-rule:evenodd;stroke:none;stroke-width:0.1;stroke-linecap:butt;stroke-linejoin:miter;stroke-miterlimit:4;stroke-dasharray:none;stroke-opacity:1" />
              <path
                 sodipodi:nodetypes="ccc"
                 inkscape:connector-curvature="0"
                 id="path6887"
                 d="m 120.95238,-13.696429 -0.35435,-0.944941 c -2.77518,-1.106607 -5.83453,-0.412836 -7.08705,1.913505"
                 style="fill:none;fill-rule:evenodd;stroke:none;stroke-width:0.1;stroke-linecap:butt;stroke-linejoin:miter;stroke-miterlimit:4;stroke-dasharray:none;stroke-opacity:1" />
            </g>
            <path
               sodipodi:nodetypes="ccccccc"
               inkscape:connector-curvature="0"
               id="path6891"
               d="m 243.6036,231.1241 c 3.01,-0.98619 6.0011,-1.5533 8.8867,0.20045 l 0.3006,1.36976 c -4.2652,-2.45436 -7.375,-0.49833 -9.3551,0.91993 l 1.3705,-1.38765 c -0.5001,-0.45461 -1.0777,-0.21195 -1.6371,-0.13364 z"
               style="fill:url(#linearGradient7025);fill-opacity:1;fill-rule:evenodd;stroke:none;stroke-width:0.1;stroke-linecap:butt;stroke-linejoin:miter;stroke-miterlimit:4;stroke-dasharray:none;stroke-opacity:1"
               inkscape:export-xdpi="96"
               inkscape:export-ydpi="96" />
            <path
               sodipodi:nodetypes="cccccccc"
               inkscape:connector-curvature="0"
               id="path6893"
               d="m 242.6161,248.36908 c 1.6711,-0.83542 3.1983,-0.23652 4.7858,0.14006 0.5954,0.0178 0.8956,-0.25942 1.3327,-0.39992 -0.6775,0.35517 -1.1584,0.69068 -2.2442,1.08669 -1.1648,0.35061 -2.4225,0.59497 -3.8979,0.59058 -1.9769,-0.0694 -4.3051,0.48214 -6.1468,-0.39619 0.6038,0.072 1.325,0.0793 1.7122,-0.10857 1.101,-1.02915 2.6,-1.30886 4.4582,-0.91265 z"
               style="opacity:1;fill:#e18cb1;fill-opacity:1;fill-rule:evenodd;stroke:none;stroke-width:0.1;stroke-linecap:butt;stroke-linejoin:miter;stroke-miterlimit:4;stroke-dasharray:none;stroke-opacity:1"
               inkscape:export-xdpi="96"
               inkscape:export-ydpi="96" />
            <path
               sodipodi:nodetypes="ccccccc"
               inkscape:connector-curvature="0"
               id="path6895"
               d="m 236.474,249.40852 c 0,0 1.4906,1.50932 2.4096,2.008 0.891,0.4835 1.8132,0.76171 2.823,0.85044 0.6324,0.0556 1.3598,-0.0229 1.9726,-0.18899 0.7524,-0.2039 1.5102,-0.47535 2.1497,-0.92131 1.1559,-0.80614 2.9057,-3.07106 2.9057,-3.07106 -2.7629,1.82741 -10.3121,1.8777 -12.2606,1.32292 z"
               style="fill:#e18cb1;fill-opacity:1;fill-rule:evenodd;stroke:none;stroke-width:0.264583px;stroke-linecap:butt;stroke-linejoin:miter;stroke-opacity:1"
               inkscape:export-xdpi="96"
               inkscape:export-ydpi="96" />
            <path
               style="opacity:1;fill:none;fill-opacity:1;fill-rule:evenodd;stroke:none;stroke-width:0.2;stroke-linecap:butt;stroke-linejoin:miter;stroke-miterlimit:4;stroke-dasharray:none;stroke-opacity:1"
               d="m 248.7346,248.10922 c -0.6775,0.35517 -1.1584,0.69068 -2.2442,1.08669 -1.1648,0.35061 -2.4225,0.59497 -3.8979,0.59058 -1.9769,-0.0694 -4.3051,0.48214 -6.1468,-0.39619"
               id="path6897"
               inkscape:connector-curvature="0"
               sodipodi:nodetypes="cccc"
               inkscape:export-xdpi="96"
               inkscape:export-ydpi="96" />
            <path
               sodipodi:nodetypes="ccc"
               inkscape:connector-curvature="0"
               id="path6899"
               d="m 250.8365,235.13314 c -1.6082,2.9898 -5.4011,0.83721 -5.9133,0.81852 3.1207,-2.86868 4.8184,-1.46539 5.9133,-0.81852 z"
               style="fill:#e5e5e5;fill-opacity:1;fill-rule:evenodd;stroke:none;stroke-width:0.1;stroke-linecap:butt;stroke-linejoin:miter;stroke-miterlimit:4;stroke-dasharray:none;stroke-opacity:1"
               inkscape:export-xdpi="96"
               inkscape:export-ydpi="96" />
            <path
               transform="translate(130.78239,248.60011)"
               clip-path="url(#clipPath4643)"
               d="m 115.8042,-13.842076 a 1.6063988,1.6063988 0 0 1 1.66925,-1.530324 1.6063988,1.6063988 0 0 1 1.54089,1.659509 1.6063988,1.6063988 0 0 1 -1.6497,1.55138 1.6063988,1.6063988 0 0 1 -1.56182,-1.639824"
               sodipodi:open="true"
               sodipodi:end="3.162781"
               sodipodi:start="3.188158"
               sodipodi:ry="1.6063988"
               sodipodi:rx="1.6063988"
               sodipodi:cy="-13.767301"
               sodipodi:cx="117.40886"
               sodipodi:type="arc"
               id="path6901"
               style="opacity:1;fill:#000000;fill-opacity:1;stroke:none;stroke-width:0.2;stroke-linecap:round;stroke-linejoin:round;stroke-miterlimit:4;stroke-dasharray:none;stroke-dashoffset:0;stroke-opacity:1"
               inkscape:export-xdpi="96"
               inkscape:export-ydpi="96"
               sodipodi:arc-type="arc" />
            <path
               sodipodi:nodetypes="cccccc"
               inkscape:connector-curvature="0"
               id="path6903"
               d="m 248.3142,234.21441 1.5869,0.4176 1.0023,0.46773 0.7182,-0.20046 c -2.4628,-1.54187 -4.2618,-0.8328 -6.0636,-0.0167 0.8457,-0.28201 1.4512,-0.75925 2.7562,-0.66817 z"
               style="fill:#0a0a0a;fill-opacity:1;fill-rule:evenodd;stroke:none;stroke-width:0.1;stroke-linecap:butt;stroke-linejoin:miter;stroke-miterlimit:4;stroke-dasharray:none;stroke-opacity:1"
               inkscape:export-xdpi="96"
               inkscape:export-ydpi="96" />
            <path
               sodipodi:nodetypes="ccc"
               inkscape:connector-curvature="0"
               id="path6905"
               d="m 251.7348,234.90368 -0.3544,-0.94494 c -2.7751,-1.10661 -5.8345,-0.41284 -7.087,1.9135"
               style="fill:none;fill-rule:evenodd;stroke:none;stroke-width:0.1;stroke-linecap:butt;stroke-linejoin:miter;stroke-miterlimit:4;stroke-dasharray:none;stroke-opacity:1"
               inkscape:export-xdpi="96"
               inkscape:export-ydpi="96" />
            <g
               style="stroke:none"
               transform="translate(130.78239,248.60011)"
               id="g6911"
               inkscape:export-xdpi="96"
               inkscape:export-ydpi="96">
              <path
                 style="fill:none;fill-rule:evenodd;stroke:none;stroke-width:0.1;stroke-linecap:butt;stroke-linejoin:miter;stroke-miterlimit:4;stroke-dasharray:none;stroke-opacity:1"
                 d="m 112.60399,-3.6281061 c 0,0 0.35976,0.2881106 0.56795,0.2672697 0.26927,-0.026955 0.60341,-0.2181155 0.65147,-0.4844262 0.0401,-0.2219074 -0.14355,-0.5415876 -0.3675,-0.5679477 -0.50456,-0.05939 -1.10248,1.0523739 -1.10248,1.0523739"
                 id="path6907"
                 inkscape:connector-curvature="0"
                 sodipodi:nodetypes="ccccc" />
              <path
                 sodipodi:nodetypes="ccccc"
                 inkscape:connector-curvature="0"
                 id="path6909"
                 d="m 112.60399,-3.6281061 c 0,0 0.35976,0.2881106 0.56795,0.2672697 0.26927,-0.026955 0.60341,-0.2181155 0.65147,-0.4844262 0.0401,-0.2219074 -0.14355,-0.5415876 -0.3675,-0.5679477 -0.50456,-0.05939 -1.10248,1.0523739 -1.10248,1.0523739"
                 style="fill:url(#radialGradient7027);fill-opacity:1;fill-rule:evenodd;stroke:none;stroke-width:0.1;stroke-linecap:butt;stroke-linejoin:miter;stroke-miterlimit:4;stroke-dasharray:none;stroke-opacity:1" />
            </g>
            <g
               style="stroke:none"
               transform="matrix(-0.98084995,0.1947649,0.1947649,0.98084995,352.20784,226.80597)"
               id="g6917"
               inkscape:export-xdpi="96"
               inkscape:export-ydpi="96">
              <path
                 sodipodi:nodetypes="ccccc"
                 inkscape:connector-curvature="0"
                 id="path6913"
                 d="m 112.60399,-3.6281061 c 0,0 0.35976,0.2881106 0.56795,0.2672697 0.26927,-0.026955 0.60341,-0.2181155 0.65147,-0.4844262 0.0401,-0.2219074 -0.14355,-0.5415876 -0.3675,-0.5679477 -0.50456,-0.05939 -1.10248,1.0523739 -1.10248,1.0523739"
                 style="fill:none;fill-rule:evenodd;stroke:none;stroke-width:0.1;stroke-linecap:butt;stroke-linejoin:miter;stroke-miterlimit:4;stroke-dasharray:none;stroke-opacity:1" />
              <path
                 style="fill:url(#radialGradient7029);fill-opacity:1;fill-rule:evenodd;stroke:none;stroke-width:0.1;stroke-linecap:butt;stroke-linejoin:miter;stroke-miterlimit:4;stroke-dasharray:none;stroke-opacity:1"
                 d="m 112.60399,-3.6281061 c 0,0 0.35976,0.2881106 0.56795,0.2672697 0.26927,-0.026955 0.60341,-0.2181155 0.65147,-0.4844262 0.0401,-0.2219074 -0.14355,-0.5415876 -0.3675,-0.5679477 -0.50456,-0.05939 -1.10248,1.0523739 -1.10248,1.0523739"
                 id="path6915"
                 inkscape:connector-curvature="0"
                 sodipodi:nodetypes="ccccc" />
            </g>
          </g>
          <path
             sodipodi:nodetypes="ssssssssssss"
             inkscape:connector-curvature="0"
             id="path6921"
             d="m 161.56255,266.63467 c 0.60628,-0.59441 0.74318,-1.89545 0.83521,-2.7395 0.14407,-1.32117 -0.043,-2.48895 -0.20045,-3.80859 -0.48257,-4.04483 -1.07021,-8.08789 -1.97111,-12.06054 -0.85415,-3.76648 -3.99519,-9.23212 -8.18513,-11.72645 -3.42081,-2.03646 -7.70451,-2.81328 -11.55941,-0.26727 -3.47834,2.29731 -5.7844,5.69921 -6.5481,9.58829 -0.2977,1.51599 -0.68815,3.08464 -0.40339,4.60944 0.72385,3.8761 0.62449,5.90935 0.8377,8.31973 0.30164,3.41015 1.01886,6.94901 2.77292,9.88897 0.94424,1.58263 2.18897,3.39021 3.97564,3.84201 6.92867,1.75206 15.3429,-0.64274 20.44612,-5.64609 z"
             style="fill:none;fill-rule:evenodd;stroke:none;stroke-width:0.264583px;stroke-linecap:butt;stroke-linejoin:miter;stroke-opacity:1" />
          <path
             sodipodi:nodetypes="cssssscccccc"
             inkscape:connector-curvature="0"
             id="path6923"
             d="m 132.96844,240.79069 c 0.52206,0.52206 -7.75801,10.25821 -10.29985,15.21354 -0.59099,1.15214 0.62787,3.16681 0.0945,4.34672 -1.00943,2.23302 -3.28851,3.3895 -5.66964,3.96875 -4.77307,1.16113 -7.04372,3.99308 -8.31548,7.65401 -1.28343,3.69451 -3.80771,6.84073 -5.95312,10.11087 -3.620447,5.51846 -6.803574,16.81996 -6.803574,16.81996 l 79.752974,2.45684 -2.74033,-30.61608 -8.78794,-16.63095 -5.38616,-17.85938 z"
             style="fill:url(#radialGradient7031);fill-opacity:1;fill-rule:evenodd;stroke:#000000;stroke-width:0.025418;stroke-linecap:butt;stroke-linejoin:miter;stroke-miterlimit:4;stroke-dasharray:none;stroke-opacity:1" />
          <path
             sodipodi:nodetypes="cscccccccc"
             inkscape:connector-curvature="0"
             id="path6925"
             d="m 168.54496,241.14385 c -2.2518,-3.58541 -3.51112,-7.4142 -7.41673,-10.62397 -18.04568,-14.83057 -30.76849,6.61401 -28.99874,15.50164 0.11579,5.00692 0.41983,9.51185 1.06908,13.09621 l 2.02002,7.49737 c 0.83621,1.86973 1.50123,3.70522 1.45448,5.39836 l 2.00452,18.90934 21.38156,-15.63526 3.60814,-11.62623 z"
             style="fill:url(#radialGradient7033);fill-opacity:1;fill-rule:evenodd;stroke:none;stroke-width:0.264583px;stroke-linecap:butt;stroke-linejoin:miter;stroke-opacity:1" />
          <path
             style="fill:#fedede;fill-opacity:1;fill-rule:evenodd;stroke:none;stroke-width:0.264583px;stroke-linecap:butt;stroke-linejoin:miter;stroke-opacity:1"
             d="m 161.56255,266.63467 c 0.60628,-0.59441 0.74318,-1.89545 0.83521,-2.7395 0.14407,-1.32117 -0.043,-2.48895 -0.20045,-3.80859 -0.48257,-4.04483 -1.07021,-8.08789 -1.97111,-12.06054 -0.85415,-3.76648 -3.99519,-9.23212 -8.18513,-11.72645 -3.42081,-2.03646 -7.70451,-2.81328 -11.55941,-0.26727 -3.47834,2.29731 -5.7844,5.69921 -6.5481,9.58829 -0.2977,1.51599 -0.68815,3.08464 -0.40339,4.60944 0.72385,3.8761 0.62449,5.90935 0.8377,8.31973 0.30164,3.41015 1.01886,6.94901 2.77292,9.88897 0.94424,1.58263 2.18897,3.39021 3.97564,3.84201 6.92867,1.75206 15.3429,-0.64274 20.44612,-5.64609 z"
             id="path6927"
             inkscape:connector-curvature="0"
             sodipodi:nodetypes="ssssssssssss" />
          <path
             inkscape:connector-curvature="0"
             transform="matrix(0.26458333,0,0,0.26458333,0.29879773,0.20363609)"
             id="path6929"
             d="m 553.30273,885.41797 -3.40039,42.39453 c 17.48374,10.40077 36.63041,18.53432 57.61719,24.1582 -0.91121,-5.12925 -1.91865,-10.23995 -3.07031,-15.31836 -3.22828,-14.23551 -15.09955,-34.89292 -30.93555,-44.32031 -6.17092,-3.67364 -13.08494,-6.25739 -20.21094,-6.91406 z"
             style="fill:url(#linearGradient7035);fill-opacity:1;fill-rule:evenodd;stroke:none;stroke-width:1px;stroke-linecap:butt;stroke-linejoin:miter;stroke-opacity:1" />
          <path
             transform="matrix(0.26458333,0,0,0.26458333,0.29879773,0.20363609)"
             sodipodi:nodetypes="sscccccccs"
             inkscape:connector-curvature="0"
             id="path6931"
             d="m 549.46875,885.25 c -6.58584,0.0553 -13.27029,1.86037 -19.64453,6.07031 -13.14648,8.68275 -21.86162,21.54135 -24.74805,36.24024 -1.12516,5.72972 -2.60165,11.65885 -1.52539,17.42187 0.14521,0.77759 0.24863,1.46157 0.37695,2.20117 3.52847,-1.97761 7.16115,-4.20522 11.88086,-8.89062 1.13855,-1.13027 2.68901,-1.63658 5.55664,-1.64063 10.96281,-0.0155 22.78932,-5.30657 28.53711,-8.83984 l 3.40039,-42.39453 c -1.209,-0.10547 -2.61564,-0.1782 -3.83398,-0.16797 z"
             style="fill:url(#linearGradient7037);fill-opacity:1;fill-rule:evenodd;stroke:none;stroke-width:1px;stroke-linecap:butt;stroke-linejoin:miter;stroke-opacity:1" />
          <path
             clip-path="url(#clipPath4674)"
             style="opacity:0.526;fill:#000000;fill-opacity:1;fill-rule:evenodd;stroke:none;stroke-width:0.264583px;stroke-linecap:butt;stroke-linejoin:miter;stroke-opacity:1;filter:url(#filter4664)"
             d="m 135.4413,264.08514 c 2.29387,0.31358 5.45213,0.71377 7.77974,1.32124 1.35447,0.3535 2.36542,0.18832 3.44904,0 0.58044,-0.10088 1.12774,-0.1256 1.74814,-0.0945 2.21784,0.11116 4.39986,0.15347 6.66183,-0.33073 1.44489,-0.30929 2.93053,-0.20009 4.48846,-0.23624 1.19949,-0.0278 1.90346,-0.53656 2.74033,-0.85045 0.0681,2.51135 -1.83955,7.80944 -2.69308,10.86681 -0.14646,0.63848 -0.19686,1.29591 -0.33073,1.93714 -1.58145,7.57541 -5.66964,22.25333 -5.66964,22.25333 l -13.37091,0.14174 -3.26004,-23.15104 c -0.20321,-1.44308 -1.11812,-2.76618 -0.89769,-5.81138 0.0819,-1.13178 -0.26175,-2.25269 -0.37798,-3.40178 z"
             id="path6933"
             inkscape:connector-curvature="0"
             sodipodi:nodetypes="ccccccccccccccc" />
          <path
             sodipodi:nodetypes="ccccccccccccccc"
             inkscape:connector-curvature="0"
             id="path6935"
             d="m 135.4413,264.08514 c 2.29387,0.31358 5.45213,0.71377 7.77974,1.32124 1.35447,0.3535 2.36542,0.18832 3.44904,0 0.58044,-0.10088 1.12774,-0.1256 1.74814,-0.0945 2.21784,0.11116 4.39986,0.15347 6.66183,-0.33073 1.44489,-0.30929 2.93053,-0.20009 4.48846,-0.23624 1.19949,-0.0278 1.90346,-0.53656 2.74033,-0.85045 0.0681,2.51135 -1.83955,7.80944 -2.69308,10.86681 -0.14646,0.63848 -0.19686,1.29591 -0.33073,1.93714 -1.58145,7.57541 -5.66964,22.25333 -5.66964,22.25333 l -13.37091,0.14174 -3.26004,-23.15104 c -0.20321,-1.44308 -1.11812,-2.76618 -0.89769,-5.81138 0.0819,-1.13178 -0.26175,-2.25269 -0.37798,-3.40178 z"
             style="fill:#ffffff;fill-opacity:1;fill-rule:evenodd;stroke:none;stroke-width:0.264583px;stroke-linecap:butt;stroke-linejoin:miter;stroke-opacity:1" />
          <path
             sodipodi:nodetypes="cccccc"
             inkscape:connector-curvature="0"
             id="path6937"
             d="m 150.93858,258.96739 c 0.91905,-0.1471 1.93536,-0.30991 3.0569,-0.65147 0,0 1.78754,-0.60306 2.6727,-0.80181 1.17018,-0.26276 3.55802,-0.53454 3.55802,-0.53454 -1.24516,-0.0742 -2.48066,-0.16195 -3.94223,0.0668 -2.38272,0.44003 -4.66733,0.91277 -5.34539,1.92102 z"
             style="fill:#000000;fill-opacity:1;fill-rule:evenodd;stroke:none;stroke-width:0.0264583;stroke-linecap:butt;stroke-linejoin:miter;stroke-miterlimit:4;stroke-dasharray:none;stroke-opacity:1" />
          <path
             sodipodi:nodetypes="sccccccsss"
             inkscape:connector-curvature="0"
             id="path6939"
             d="m 143.50453,258.46107 c -1.53507,-0.80304 -4.73397,-1.52132 -4.67746,-1.5119 l -0.9095,-0.17718 -0.15356,-0.24805 c -0.46071,-0.37808 -0.61563,-0.14459 -0.8032,0.0236 -0.60996,0.76678 -1.09564,0.3528 -1.58277,-0.0473 0.37375,0.60755 0.76466,1.19143 2.03162,0.56697 0.5157,-0.15241 2.0272,0.49465 2.90569,0.81501 0.96035,0.3502 1.9198,0.73175 2.90569,0.98038 0.68265,0.17216 0.72669,-0.16968 0.28349,-0.40153 z"
             style="fill:#000000;fill-opacity:1;fill-rule:evenodd;stroke:none;stroke-width:0.0264583;stroke-linecap:butt;stroke-linejoin:miter;stroke-miterlimit:4;stroke-dasharray:none;stroke-opacity:1" />
          <path
             sodipodi:nodetypes="cscscscscscscscscscscscscscscscscscscscscscscscscsccc"
             inkscape:connector-curvature="0"
             id="path6941"
             d="m 148.46764,246.18564 c 0,0 -2.00898,-0.46419 -1.97759,-1.16251 0.0216,-0.48044 1.4147,-0.28328 1.4147,-0.28328 0,0 -1.50348,-0.057 -1.4724,-0.58407 0.0212,-0.36006 1.04572,-0.27804 1.04572,-0.27804 0,0 -0.92453,0.25811 -0.98102,-0.0647 -0.1269,-0.72507 2.02323,-0.88484 2.02323,-0.88484 0,0 -1.65036,0.81857 -1.99001,0.24306 -0.22044,-0.37355 0.76244,-1.05446 0.76244,-1.05446 0,0 -1.15176,0.3277 -1.21709,-0.0735 -0.0651,-0.40009 1.1279,-0.45466 1.1279,-0.45466 0,0 -0.95082,0.16816 -0.9915,-0.16437 -0.0451,-0.37063 1.02822,-0.44417 1.02822,-0.44417 0,0 -0.98397,-0.34969 -0.88133,-0.71346 0.11798,-0.41813 1.29229,-0.16961 1.29229,-0.16961 0,0 -1.0535,-0.3287 -1.05446,-0.76244 -0.001,-0.64369 1.55983,-1.13839 1.55983,-1.13839 0,0 -1.2279,-0.26836 -1.22059,-0.74495 0.003,-0.19446 0.50712,-0.28853 0.50712,-0.28853 0,0 -0.43564,0.0418 -0.48264,-0.11716 -0.0582,-0.19691 0.42319,-0.44766 0.42319,-0.44766 0,0 -0.46621,-0.2019 -0.58057,-0.40921 -0.30165,-0.54683 -0.0962,-1.87109 -0.0962,-1.87109 0,0 -0.012,1.45633 -0.42843,1.9935 -0.11658,0.1504 -0.51063,0.25531 -0.51063,0.25531 0,0 0.56632,0.0662 0.56659,0.2763 4.5e-4,0.35583 -0.95829,0.47039 -0.95829,0.47039 0,0 1.21526,-0.033 1.18212,0.37948 -0.0392,0.48892 -1.45491,0.22031 -1.45491,0.22031 0,0 1.42355,-0.29537 1.43042,0.18537 0.006,0.42371 -1.25556,0.19933 -1.25556,0.19933 0,0 1.02864,-0.0659 1.03872,0.29378 0.0125,0.44555 -1.26431,0.43542 -1.26431,0.43542 0,0 1.09615,0.004 1.18562,0.41269 0.0543,0.24808 -0.54909,0.52811 -0.54909,0.52811 0,0 0.54922,0.0391 0.56308,0.24307 0.0266,0.39266 -1.01075,0.61029 -1.01075,0.61029 0,0 0.60578,0.13418 0.61029,0.37247 0.005,0.28884 -0.72221,0.47914 -0.72221,0.47914 0,0 0.87493,0.19003 0.79041,0.48788 -0.0581,0.20468 -0.63827,2e-5 -0.63827,2e-5 0,0 0.59852,0.24899 0.59106,0.50886 -0.007,0.23483 -0.55958,0.42843 -0.55958,0.42843 0,0 0.64683,0.0949 0.64002,0.33575 -0.0109,0.38722 -1.05796,0.48089 -1.05796,0.48089 0,0 0.89535,-0.0807 0.93205,0.23783 0.0381,0.33284 -0.89183,0.46339 -0.89183,0.46339 0,0 0.68655,-0.002 0.76592,0.25532 0.0767,0.24841 -0.97328,0.60408 -0.97328,0.60408 0,0 0.72593,-0.1302 0.75194,0.12241 0.0666,0.64217 -1.80814,0.69423 -1.80814,0.69423 1.49521,0.0372 3.41062,0.41515 4.79573,-0.10606 z"
             style="fill:#fedede;fill-opacity:0.429423;fill-rule:evenodd;stroke:none;stroke-width:0.0529167;stroke-linecap:butt;stroke-linejoin:miter;stroke-miterlimit:4;stroke-dasharray:none;stroke-opacity:1" />
          <path
             sodipodi:nodetypes="cccc"
             inkscape:connector-curvature="0"
             id="path6943"
             d="m 151.57335,260.60441 c 0.16704,-0.0668 1.13589,-0.11693 1.13589,-0.11693 2.72209,1.08206 4.77811,0.0657 6.01357,-0.7517 -1.94052,2.76831 -4.31805,3.08931 -7.14946,0.86863 z"
             style="fill:#030303;fill-opacity:1;fill-rule:evenodd;stroke:none;stroke-width:0.0529167;stroke-linecap:butt;stroke-linejoin:miter;stroke-miterlimit:4;stroke-dasharray:none;stroke-opacity:1" />
          <path
             sodipodi:nodetypes="ccccccccccccccccccccccccccccccccc"
             inkscape:connector-curvature="0"
             id="path6945"
             d="m 158.00452,260.50418 c 0.52941,0.48355 1.20835,0.66804 2.02123,0.58466 -0.77954,0.2013 -1.55907,0.11924 -2.33861,-0.43432 l -0.0668,0.23387 c 0.37695,0.32978 0.77814,0.64138 1.40317,0.7851 -0.5931,-0.0171 -1.06707,-0.36188 -1.5368,-0.71829 l -0.11693,0.11693 c 0.21592,0.49785 0.54578,0.94311 1.1693,1.25283 -0.58193,-0.23936 -1.02662,-0.64339 -1.45328,-1.06908 l -0.25056,0.16704 c 0.17899,0.33753 0.45053,0.64421 0.81851,0.91874 -0.48544,-0.22851 -0.74784,-0.58447 -1.01896,-0.93544 l -0.80181,0.26727 0.16704,1.46998 -0.25056,-1.52009 -0.46773,-0.15034 c 0.0712,0.37912 0.0756,1.23328 0.0501,1.40317 l -0.18375,-1.41987 -0.53454,-0.0501 0.13363,1.31964 -0.23386,-1.36975 -0.25056,0.0167 0.0334,1.30294 -0.20045,-1.33635 -0.26728,-0.0501 -0.38419,1.38646 c 0.0521,-0.85207 0.41415,-2.67628 -0.45102,-0.65147 l 0.0835,-0.88533 c -0.41147,0.16167 -0.74023,0.3509 -0.88533,0.60136 0.11817,-0.23386 0.20976,-0.46773 0.23386,-0.70159 -0.28351,0.0515 -0.42235,0.18981 -0.55124,0.33409 l 0.28397,-0.60135 c 1.98452,0.31219 4.02836,1.29167 5.84655,-0.26731 z"
             style="fill:#030303;fill-opacity:1;fill-rule:evenodd;stroke:none;stroke-width:0.0264583;stroke-linecap:butt;stroke-linejoin:miter;stroke-miterlimit:4;stroke-dasharray:none;stroke-opacity:1" />
          <path
             sodipodi:nodetypes="scscsss"
             inkscape:connector-curvature="0"
             id="path6947"
             d="m 144.23685,260.65806 c -2.16923,0.27101 -4.77017,0.65671 -6.52009,-0.70871 0.39125,2.16765 2.8402,2.53886 5.43341,1.34654 0.5156,-0.23706 0.45995,-0.38398 0.8032,-0.28348 l 0.37798,0.21261 c 0.44678,0.25131 0.58868,-0.17405 0.18899,-0.44884 -0.126,-0.0866 -0.22049,-0.12599 -0.28349,-0.11812 z"
             style="fill:#020000;fill-opacity:0.996024;fill-rule:evenodd;stroke:none;stroke-width:0.0264583;stroke-linecap:butt;stroke-linejoin:miter;stroke-miterlimit:4;stroke-dasharray:none;stroke-opacity:1" />
          <path
             sodipodi:nodetypes="ccccccccccccccccc"
             inkscape:connector-curvature="0"
             id="path6949"
             d="m 137.7522,260.07928 c -0.48607,0.67828 -1.37706,0.41422 -1.92532,0.25986 0.59769,0.26914 1.28286,0.53954 2.14198,-0.0138 l 0.0432,0.4863 c 0.097,0.0448 -0.7232,0.74745 -1.18118,0.88589 0.63107,-0.0342 1.51142,-0.5644 1.50009,-0.77958 0.12272,0.50413 -0.1424,0.91328 -0.79138,1.22842 0.46746,-0.17485 0.9206,-0.37117 1.26385,-0.73233 l 1.21662,0.2953 -0.63784,1.42922 c 0.87486,-1.46016 1.61404,-2.48684 1.21661,0.11812 l 0.55515,-1.48829 1.34891,-0.34544 c 0.21491,0.13588 0.37881,0.32277 0.55124,0.50114 -0.17902,-0.20236 -0.37251,-0.39645 -0.4009,-0.68488 l -3.60814,0.0668 z"
             style="fill:#020000;fill-opacity:0.994036;fill-rule:evenodd;stroke:none;stroke-width:0.0264583;stroke-linecap:butt;stroke-linejoin:miter;stroke-miterlimit:4;stroke-dasharray:none;stroke-opacity:1" />
          <path
             sodipodi:nodetypes="ccscc"
             inkscape:connector-curvature="0"
             id="path6951"
             d="m 137.76402,260.00841 c 0.14186,-0.4767 -0.40488,-0.71062 -0.96857,-1.13392 0,0 0.9112,0.40907 1.42923,0.46066 0.69364,0.0691 2.05524,0.10625 2.05524,0.10625 -1.43327,0.0657 -1.86374,0.0859 -2.5159,0.56701 z"
             style="fill:#020000;fill-opacity:0.683897;fill-rule:evenodd;stroke:none;stroke-width:0.0264583;stroke-linecap:butt;stroke-linejoin:miter;stroke-miterlimit:4;stroke-dasharray:none;stroke-opacity:1" />
          <path
             sodipodi:nodetypes="cc"
             inkscape:connector-curvature="0"
             id="path6953"
             d="m 124.65296,260.16197 c 4.03175,10.94874 8.06349,15.7133 12.09524,21.92261"
             style="opacity:0.409;fill:none;fill-rule:evenodd;stroke:#000000;stroke-width:0.264583px;stroke-linecap:butt;stroke-linejoin:miter;stroke-opacity:1;filter:url(#filter4714)" />
          <path
             inkscape:connector-curvature="0"
             id="path6955"
             transform="matrix(0.26458333,0,0,0.26458333,0.29879773,0.20363609)"
             d="m 612.32227,996.62695 c -3.16298,1.18636 -5.82392,3.10978 -10.35743,3.21485 -5.88824,0.13663 -11.50384,-0.2764 -16.96484,0.8926 -8.54918,1.83 -16.79535,1.6701 -25.17773,1.25 -2.34482,-0.1176 -4.41364,-0.024 -6.60743,0.3574 -4.09557,0.7118 -7.91785,1.3361 -13.03711,0 -8.79726,-2.296 -20.73259,-3.80896 -29.40234,-4.99414 l 1.00977,9.99414 c 0.43929,4.343 1.73923,8.5779 1.42968,12.8555 -0.0574,0.7931 -0.0904,1.5496 -0.10937,2.2832 l 2.9668,1.289 c 0,0 6.06264,15.7286 11.78515,21.6075 5.04174,5.1795 12.01885,8.2585 18.75,10.8925 5.84999,2.2892 12.11063,4.1104 18.39258,4.1075 6.52728,0 13.12757,-1.6686 19.10742,-4.2852 5.56649,-2.4358 10.79724,-5.9693 15,-10.3574 0.97039,-1.0132 1.61049,-2.2795 2.26563,-3.5371 0.22342,-1.5062 0.42936,-3.0171 0.76953,-4.5 3.22594,-11.5554 10.43707,-31.5786 10.17969,-41.07035 z"
             style="opacity:0.31;fill:#fedede;fill-opacity:1;fill-rule:evenodd;stroke:none;stroke-width:1px;stroke-linecap:butt;stroke-linejoin:miter;stroke-opacity:1" />
        </g>
        <path
           inkscape:connector-curvature="0"
           style="fill:none;fill-opacity:1;fill-rule:evenodd;stroke:#000000;stroke-width:0.104073;stroke-linecap:butt;stroke-linejoin:miter;stroke-miterlimit:4;stroke-dasharray:none;stroke-opacity:1"
           d="m 561.01953,851.26953 c -35.43385,0.61005 -59.32622,37.66198 -62.90625,64.35547 -8.03376,11.70724 -28.21958,36.76563 -35.61328,51.17969 -2.23366,4.35454 2.37331,11.97018 0.35742,16.42969 -3.81517,8.43976 -12.43014,12.8107 -21.42969,15 -18.03995,4.38852 -26.62108,15.09112 -31.42773,28.92772 -4.85076,13.9635 -14.39136,25.8553 -22.5,38.2149 -13.68358,20.8571 -25.71484,63.5722 -25.71484,63.5722 l 190.07812,5.8555 5.54688,2.5195 3.73242,-2.2344 102.07226,3.1446 -10.35742,-115.7149 -29.22265,-55.3027 12.25585,-56.57618 c -8.51074,-13.55115 -13.26988,-28.02288 -28.03124,-40.15429 -17.05104,-14.01314 -32.84507,-19.45774 -46.83985,-19.2168 z"
           transform="matrix(0.26458333,0,0,0.26458333,0.29879773,0.20363609)"
           id="path6959" />
        <path
           style="fill:none;fill-rule:evenodd;stroke:#000000;stroke-width:0.132292;stroke-linecap:butt;stroke-linejoin:miter;stroke-miterlimit:4;stroke-dasharray:none;stroke-opacity:1"
           d="m 188.62543,261.2014 c -6.04984,-1.70569 -12.05156,-3.91098 -17.85937,-8.59896 -0.80651,-0.651 -1.87285,-1.16335 -3.12756,-1.58933 -2.65131,-0.90013 -4.57903,-2.97975 -6.71072,-4.39023 -1.79126,-1.18522 -1.54169,0.75302 -0.33408,2.47224 2.38354,3.39334 4.35503,7.22549 6.01356,10.42351 l -2.2668,-5.45153 c -0.61509,-1.47926 -0.71408,-3.11541 0.33073,-5.05543"
           id="path6961"
           inkscape:connector-curvature="0"
           sodipodi:nodetypes="csssscsc" />
        <path
           style="fill:url(#radialGradient7039);fill-opacity:1;fill-rule:evenodd;stroke:none;stroke-width:0.264583px;stroke-linecap:butt;stroke-linejoin:miter;stroke-opacity:1"
           d="m 186.45229,300.13313 31.93862,1.0392 -0.85008,-28.06443 c 0,0 -3.52525,-15.49104 -6.04769,-23.00944 -1.23886,-3.69254 -2.5966,-6.57792 -5.57537,-11.05566 -2.67553,-4.02191 -6.37705,-7.95724 -12.14241,-8.88266 -1.84594,-0.2963 -3.63117,-0.43443 -5.34748,-0.4284 -6.12967,0.0216 -11.38165,1.88382 -15.39389,4.96404 -4.66671,3.58265 -13.30875,11.59309 -13.30875,11.59309 l 0.0517,0.0682 c 0.18343,-0.17603 0.55298,-0.12996 1.15083,0.26562 2.13169,1.41048 4.05939,3.4903 6.7107,4.39043 1.25471,0.42598 2.32095,0.93805 3.12746,1.58905 5.12575,4.13743 10.4027,6.3406 15.73031,7.97367 l 2.12907,0.62529 c -0.71049,-0.20031 -1.42016,-0.40798 -2.12907,-0.62529"
           id="path6963"
           inkscape:connector-curvature="0"
           sodipodi:nodetypes="cccssccsccsscccc" />
        <path
           style="fill:none;fill-rule:evenodd;stroke:#000000;stroke-width:0.079375;stroke-linecap:butt;stroke-linejoin:miter;stroke-miterlimit:4;stroke-dasharray:none;stroke-opacity:1"
           d="m 177.29804,238.67161 c 6.03166,5.02476 6.63047,7.98036 7.75082,11.62622 2.03344,6.61727 3.95498,13.57021 6.1472,19.71114 l 1.26953,4.20949"
           id="path6965"
           inkscape:connector-curvature="0"
           sodipodi:nodetypes="cscc" />
        <path
           style="fill:none;fill-rule:evenodd;stroke:#000000;stroke-width:0.079375;stroke-linecap:round;stroke-linejoin:miter;stroke-miterlimit:4;stroke-dasharray:none;stroke-opacity:1"
           d="m 186.98656,256.37821 c 0,0 -3.14171,-4.37889 -5.14494,-6.1472 -1.78781,-1.57816 -6.01356,-3.87541 -6.01356,-3.87541"
           id="path6967"
           inkscape:connector-curvature="0"
           sodipodi:nodetypes="csc" />
        <path
           style="fill:none;fill-rule:evenodd;stroke:#000000;stroke-width:0.079375;stroke-linecap:butt;stroke-linejoin:miter;stroke-miterlimit:4;stroke-dasharray:none;stroke-opacity:1"
           d="m 197.88585,234.45959 c 2.20863,3.37713 4.50386,6.55502 7.65402,9.5439 2.93796,2.78755 3.80837,5.62206 4.25223,8.69345 1.99843,13.82869 0.89827,22.86568 0.75595,34.30135 -0.0638,5.12782 -1.80354,7.99584 -2.92931,11.43375"
           id="path6969"
           inkscape:connector-curvature="0"
           sodipodi:nodetypes="csssc" />
        <path
           inkscape:connector-curvature="0"
           style="fill:url(#linearGradient7041);fill-opacity:1;fill-rule:evenodd;stroke:#000000;stroke-width:0.264583px;stroke-linecap:butt;stroke-linejoin:miter;stroke-opacity:1"
           d="m 212.21609,252.38514 c 1.63415,5.3825 3.46275,12.83413 4.49585,17.18346 l 0.87695,-8.64703 z"
           id="path6971" />
        <path
           style="fill:#ffffff;fill-opacity:1;fill-rule:evenodd;stroke:none;stroke-width:0.0264583;stroke-linecap:butt;stroke-linejoin:miter;stroke-miterlimit:4;stroke-dasharray:none;stroke-opacity:1"
           d="m 188.85745,262.39178 c -4.67796,0.16594 -9.2152,0.57175 -13.16303,1.80407 -1.89038,0.59009 -3.71333,0.76736 -5.49533,0.92706 -0.11099,0.9743 0.12729,1.53047 0.28349,2.59383 l -0.28349,2.41436 c -0.75485,2.93419 -0.19304,5.42949 -0.23623,8.12646 0.1908,4.15616 0.19962,5.24243 -0.0815,7.25303 -0.69703,7.31063 0.68838,9.19188 1.1359,13.56394 l 16.83798,-0.20047 6.34765,-0.86863 3.54132,-10.49031 z"
           id="path6973"
           inkscape:connector-curvature="0"
           sodipodi:nodetypes="cscccccccccc" />
        <g
           id="g6979">
          <path
             style="fill:url(#linearGradient7043);fill-opacity:1;fill-rule:evenodd;stroke:#000000;stroke-width:0.132292;stroke-linecap:butt;stroke-linejoin:miter;stroke-miterlimit:4;stroke-dasharray:none;stroke-opacity:1"
             d="m 164.56471,249.35806 c -1.26162,-0.89964 -2.41581,-1.9272 -3.63693,-2.73518 -1.79126,-1.18522 -1.54169,0.75302 -0.33408,2.47224 2.38354,3.39334 4.35503,7.22549 6.01356,10.42351 l -2.2668,-5.45153 c -0.58303,-1.40215 -0.70236,-2.94527 0.17658,-4.75452 z"
             id="path6975"
             inkscape:connector-curvature="0"
             sodipodi:nodetypes="csscscc" />
          <path
             sodipodi:nodetypes="csscscc"
             inkscape:connector-curvature="0"
             id="path6977"
             d="m 164.56471,249.35806 c -1.26162,-0.89964 -2.41581,-1.9272 -3.63693,-2.73518 -1.79126,-1.18522 -1.54169,0.75302 -0.33408,2.47224 2.38354,3.39334 4.35503,7.22549 6.01356,10.42351 l -2.2668,-5.45153 c -0.58303,-1.40215 -0.70236,-2.94527 0.17658,-4.75452 z"
             style="fill:#000000;fill-opacity:0.286282;fill-rule:evenodd;stroke:#000000;stroke-width:0.132292;stroke-linecap:butt;stroke-linejoin:miter;stroke-miterlimit:4;stroke-dasharray:none;stroke-opacity:1" />
        </g>
        <path
           style="fill:#000000;fill-opacity:0.99006;fill-rule:evenodd;stroke:none;stroke-width:0.264583px;stroke-linecap:butt;stroke-linejoin:miter;stroke-opacity:1;filter:url(#filter5367)"
           d="m 163.33321,247.8924 c -0.4746,2.86278 0.22367,4.80768 1.20271,6.81538 l 1.36976,0.66817 c 0,0 0.90203,-7.51695 0.7684,-7.51695 -0.13364,0 -3.34087,0.0334 -3.34087,0.0334 z"
           id="path6981"
           inkscape:connector-curvature="0"
           sodipodi:nodetypes="cccsc"
           clip-path="url(#clipPath5381)" />
        <path
           inkscape:connector-curvature="0"
           style="fill:#fedede;fill-opacity:1;fill-rule:evenodd;stroke:none;stroke-width:0.0264583;stroke-linecap:butt;stroke-linejoin:miter;stroke-miterlimit:4;stroke-dasharray:none;stroke-opacity:1"
           d="m 163.17413,248.3027 c 0.22985,0.18053 0.46199,0.35856 0.69608,0.53692 -0.23364,-0.17806 -0.46663,-0.35669 -0.69608,-0.53692 z m 1.30328,0.99012 c 0.0122,0.009 0.0239,0.0181 0.0362,0.0269 1e-4,-2.1e-4 5.3e-4,-2.6e-4 5.3e-4,-5.2e-4 -0.0122,-0.009 -0.0245,-0.0175 -0.0367,-0.0264 z m 0.0362,0.0269 c -0.87502,1.80606 -0.75535,3.34728 -0.17312,4.74752 l 1.99885,4.80694 0.30127,0.67799 0.23409,0.56793 1.2361,2.10478 2.08825,2.898 c 1.782,-0.1597 3.60489,-0.33697 5.49527,-0.92706 3.27835,-1.02334 6.96554,-1.47305 10.79986,-1.69241 l 0.002,-1.92753 c -5.32761,-1.63307 -10.60456,-3.83624 -15.73031,-7.97367 -0.80651,-0.651 -1.87275,-1.16307 -3.12746,-1.58905 -1.13635,-0.3858 -2.1382,-0.98945 -3.08146,-1.66295 l 0.008,0.008 c -0.0174,-0.0124 -0.0338,-0.0258 -0.0512,-0.0382 z"
           id="path6983" />
        <path
           style="fill:none;fill-rule:evenodd;stroke:#000000;stroke-width:0.0264583;stroke-linecap:butt;stroke-linejoin:miter;stroke-miterlimit:4;stroke-dasharray:none;stroke-opacity:1"
           d="m 170.38808,265.14653 c 1.30708,-3.59858 -0.92051,-4.50408 -3.5199,-5.12631"
           id="path6985"
           inkscape:connector-curvature="0"
           sodipodi:nodetypes="cc" />
        <path
           style="fill:#010000;fill-opacity:1;fill-rule:evenodd;stroke:none;stroke-width:0.0132292;stroke-linecap:butt;stroke-linejoin:miter;stroke-miterlimit:4;stroke-dasharray:none;stroke-opacity:1"
           d="m 170.80005,263.52767 c -0.53297,0.17961 -1.14033,0.26687 -1.45328,0.56795 -0.3233,0.31104 -0.45045,0.68707 -0.7684,0.83523 -0.3804,0.17726 -0.27588,0.23459 -0.21715,0.33409 0.11113,0.18827 0.51685,0.20686 0.7684,0.0334 0.32844,-0.22648 0.44627,-0.66367 0.81851,-1.00226 0.22931,-0.20858 0.52242,-0.32491 0.86862,-0.31738 z"
           id="path6987"
           inkscape:connector-curvature="0"
           sodipodi:nodetypes="cssssscc" />
        <path
           sodipodi:nodetypes="ccsccc"
           inkscape:connector-curvature="0"
           id="path6989"
           d="m 169.78541,261.18858 c -0.72957,-0.57447 -1.78834,-0.89813 -2.91723,-1.16836 -0.14562,0.0698 -0.20756,0.12918 -0.22751,0.18329 -0.0581,0.1575 -0.10451,0.34232 -0.0501,0.50113 0.0498,0.14531 0.17805,0.26942 0.31738,0.33409 0.76242,-0.27852 2.86195,0.0961 2.87315,0.16704"
           style="fill:url(#linearGradient7045);fill-opacity:1;fill-rule:evenodd;stroke:none;stroke-width:0.0264583;stroke-linecap:butt;stroke-linejoin:miter;stroke-miterlimit:4;stroke-dasharray:none;stroke-opacity:1" />
        <path
           style="opacity:1;fill:url(#linearGradient7047);fill-opacity:1;fill-rule:evenodd;stroke:none;stroke-width:0.0132292;stroke-linecap:butt;stroke-linejoin:miter;stroke-miterlimit:4;stroke-dasharray:none;stroke-opacity:1"
           d="m 176.29396,256.12235 c -1.33354,0.91925 -2.6973,1.78956 -4.18136,2.6222 -0.41155,0.2309 -0.48239,0.50151 -0.44885,0.73233 0.0471,0.32414 0.16919,0.68008 0.54334,0.75596 0.40737,0.0826 0.88313,-0.0397 1.06306,-0.4016 0.36992,-0.7441 1.15565,-1.51447 2.22061,-2.19699 0.15011,-0.0962 0.31224,-0.15743 0.48215,-0.20611 0.21733,-0.0623 0.46482,-0.0651 0.6754,-0.21911 0.36115,-0.2641 0.92727,-0.44587 0.73233,-0.54334 z"
           id="path6991"
           inkscape:connector-curvature="0"
           sodipodi:nodetypes="cssssssssc" />
        <path
           style="fill:#434343;fill-opacity:1;fill-rule:evenodd;stroke:none;stroke-width:0.264583px;stroke-linecap:butt;stroke-linejoin:miter;stroke-opacity:1;filter:url(#filter5807)"
           d="m 180.53868,260.78816 c 0,0 -1.87933,1.9138 -2.63928,2.47224 -0.11351,0.0834 -0.43523,0.003 -0.40091,-0.13363 0.13126,-0.52258 0.50113,-1.50339 0.50113,-1.50339 z"
           id="path6993"
           inkscape:connector-curvature="0"
           sodipodi:nodetypes="csscc" />
        <path
           style="opacity:1;vector-effect:none;fill:#ffffff;fill-opacity:1;stroke:none;stroke-width:0.017749;stroke-linecap:round;stroke-linejoin:round;stroke-miterlimit:4;stroke-dasharray:none;stroke-dashoffset:0;stroke-opacity:1;paint-order:normal"
           id="path6995"
           sodipodi:type="arc"
           sodipodi:cx="178.42152"
           sodipodi:cy="261.61374"
           sodipodi:rx="0.45957315"
           sodipodi:ry="0.45957315"
           sodipodi:start="2.4396736"
           sodipodi:end="2.1847508"
           sodipodi:open="true"
           d="m 178.07059,261.91048 a 0.45957315,0.45957315 0 0 1 0.0324,-0.62806 0.45957315,0.45957315 0 0 1 0.62885,-0.008 0.45957315,0.45957315 0 0 1 0.0477,0.62709 0.45957315,0.45957315 0 0 1 -0.62278,0.0875"
           sodipodi:arc-type="arc" />
        <path
           inkscape:connector-curvature="0"
           style="opacity:1;fill:#000000;fill-opacity:1;fill-rule:evenodd;stroke:none;stroke-width:0.05;stroke-linecap:butt;stroke-linejoin:miter;stroke-miterlimit:4;stroke-dasharray:none;stroke-opacity:1"
           d="m 683.55664,981.03516 c -6.33872,2.73562 -12.63141,5.6969 -19.12891,7.63867 -0.14664,1.53657 -1.33674,2.55275 -2.46289,3.59961 1.00257,-0.0272 2.01946,-0.13918 3.04688,-0.31055 l 1.31055,-2.3418 -0.95508,2.28321 c 0.094,-0.0171 0.18706,-0.0286 0.28125,-0.0469 l 1.93554,-2.67773 -0.71484,2.41211 c 0.0158,-0.004 0.0311,-0.008 0.0469,-0.0117 l 1.58398,-2.74805 -0.66992,2.50195 c 0.0295,-0.008 0.0584,-0.017 0.0879,-0.0254 l 1.78125,-2.91797 -0.54688,2.54297 c 0.0771,-0.0253 0.1533,-0.0483 0.23047,-0.0742 l 1.26367,-2.78516 -0.2207,2.41211 c 0.0586,-0.0218 0.11714,-0.0404 0.17578,-0.0625 l 0.77149,-2.50781 0.0488,2.18359 c 0.0545,-0.022 0.10949,-0.0421 0.16406,-0.0644 l 0.51172,-2.5918 v 2.38281 c 0.038,-0.0162 0.0772,-0.0364 0.11523,-0.0527 l 0.35938,-2.77149 0.21289,2.50586 c 0.0274,-0.0122 0.0546,-0.0268 0.082,-0.0391 l 0.24219,-2.8457 0.26953,2.60937 c 0.0301,-0.014 0.0597,-0.0289 0.0898,-0.043 l 0.0508,-2.91406 0.25,2.77539 c 2.94717,-1.40011 5.96055,-3.1842 9.03125,-5.30078 z"
           id="path6997"
           transform="matrix(0.26458333,0,0,0.26458333,0.29879773,0.20363609)" />
        <path
           inkscape:connector-curvature="0"
           style="opacity:0.31;fill:#fedede;fill-opacity:1;fill-rule:evenodd;stroke:none;stroke-width:0.0264583;stroke-linecap:butt;stroke-linejoin:miter;stroke-miterlimit:4;stroke-dasharray:none;stroke-opacity:1"
           d="m 188.85731,262.39176 c -4.67796,0.16594 -9.21519,0.57171 -13.16302,1.80403 -1.89038,0.59009 -3.71327,0.76736 -5.49527,0.92706 -0.11099,0.97431 0.1275,1.5303 0.2837,2.59366 l -0.2837,2.41483 c -0.75485,2.9342 -0.19297,5.42914 -0.23616,8.12612 0.1908,4.15615 0.19947,5.24272 -0.0816,7.25331 -0.0342,0.35896 -0.0597,0.69464 -0.0842,1.02836 1.99935,-1.16668 3.9857,-2.35942 5.56348,-4.36925 2.40009,-1.58086 3.88887,-3.07927 7.2161,-4.7444 0.93109,0.33308 1.91988,0.0882 2.93987,-0.46768 2.73551,-1.29609 4.77576,-2.85258 6.8156,-4.40955 l 0.11369,-0.0119 z"
           id="path6999" />
        <path
           style="fill:none;fill-rule:evenodd;stroke:#000000;stroke-width:0.079375;stroke-linecap:butt;stroke-linejoin:miter;stroke-miterlimit:4;stroke-dasharray:none;stroke-opacity:1"
           d="m 208.1857,253.16941 c 0.50755,4.73626 -0.36132,8.45373 -1.70089,11.90624 0,0 -6.29217,15.68095 -9.16592,23.62351 -1.37929,3.81211 -3.87426,11.52829 -3.87426,11.52829"
           id="path7001"
           inkscape:connector-curvature="0"
           sodipodi:nodetypes="cssc" />
        <path
           sodipodi:nodetypes="cccssccsccsscccc"
           inkscape:connector-curvature="0"
           id="path7003"
           d="m 186.45229,300.13313 31.93862,1.0392 -0.85008,-28.06443 c 0,0 -3.52525,-15.49104 -6.04769,-23.00944 -1.23886,-3.69254 -2.5966,-6.57792 -5.57537,-11.05566 -2.67553,-4.02191 -6.37705,-7.95724 -12.14241,-8.88266 -1.84594,-0.2963 -3.63117,-0.43443 -5.34748,-0.4284 -6.12967,0.0216 -11.38165,1.88382 -15.39389,4.96404 -4.66671,3.58265 -13.30875,11.59309 -13.30875,11.59309 l 0.0517,0.0682 c 0.18343,-0.17603 0.55298,-0.12996 1.15083,0.26562 2.13169,1.41048 4.05939,3.4903 6.7107,4.39043 1.25471,0.42598 2.32095,0.93805 3.12746,1.58905 5.12575,4.13743 10.4027,6.3406 15.73031,7.97367 l 2.12907,0.62529 c -0.71049,-0.20031 -1.42016,-0.40798 -2.12907,-0.62529"
           style="fill:none;fill-opacity:1;fill-rule:evenodd;stroke:#000000;stroke-width:0.025418;stroke-linecap:butt;stroke-linejoin:miter;stroke-miterlimit:4;stroke-dasharray:none;stroke-opacity:1" />
        <path
           sodipodi:nodetypes="cc"
           inkscape:connector-curvature="0"
           id="path7005"
           d="m 176.01048,261.79199 c -0.82656,-0.45085 -1.02675,-1.53344 -0.8977,-2.38598"
           style="fill:#a9a9a9;fill-opacity:1;fill-rule:evenodd;stroke:#000000;stroke-width:0.0264583;stroke-linecap:butt;stroke-linejoin:miter;stroke-miterlimit:4;stroke-dasharray:none;stroke-opacity:1;filter:url(#filter5860)"
           clip-path="url(#clipPath5866)" />
      </g>
    </g>
  </g>
</svg>
