<?xml version="1.0" encoding="UTF-8" standalone="no"?>
<svg
   xmlns:dc="http://purl.org/dc/elements/1.1/"
   xmlns:cc="http://creativecommons.org/ns#"
   xmlns:rdf="http://www.w3.org/1999/02/22-rdf-syntax-ns#"
   xmlns:svg="http://www.w3.org/2000/svg"
   xmlns="http://www.w3.org/2000/svg"
   xmlns:sodipodi="http://sodipodi.sourceforge.net/DTD/sodipodi-0.dtd"
   xmlns:inkscape="http://www.inkscape.org/namespaces/inkscape"
   width="10.439244mm"
   height="10.76235mm"
   viewBox="0 0 10.439244 10.76235"
   version="1.1"
   id="svg8"
   inkscape:version="1.0.2 (e86c870879, 2021-01-15)"
   sodipodi:docname="logo-tranche.svg">
  <defs
     id="defs2" />
  <sodipodi:namedview
     id="base"
     pagecolor="#ffffff"
     bordercolor="#666666"
     borderopacity="1.0"
     inkscape:pageopacity="0.0"
     inkscape:pageshadow="2"
     inkscape:zoom="10.632649"
     inkscape:cx="19.727705"
     inkscape:cy="20.338299"
     inkscape:document-units="mm"
     inkscape:current-layer="layer1"
     inkscape:document-rotation="0"
     showgrid="false"
     inkscape:window-width="1916"
     inkscape:window-height="1038"
     inkscape:window-x="0"
     inkscape:window-y="40"
     inkscape:window-maximized="0" />
  <metadata
     id="metadata5">
    <rdf:RDF>
      <cc:Work
         rdf:about="">
        <dc:format>image/svg+xml</dc:format>
        <dc:type
           rdf:resource="http://purl.org/dc/dcmitype/StillImage" />
        <dc:title></dc:title>
      </cc:Work>
    </rdf:RDF>
  </metadata>
  <g
     inkscape:label="Calque 1"
     inkscape:groupmode="layer"
     id="layer1"
     transform="translate(-315.30421,112.72641)">
    <g
       inkscape:export-ydpi="64"
       inkscape:export-xdpi="64"
       inkscape:export-filename="/tmp/damour-et-deguerre-fullcouv.png"
       transform="matrix(0.56385991,0,0,0.56385991,121.4213,108.03002)"
       id="g10635">
      <text
         xml:space="preserve"
         style="font-style:normal;font-variant:normal;font-weight:normal;font-stretch:normal;font-size:22.5778px;line-height:125%;font-family:Stencilia-A;-inkscape-font-specification:Stencilia-A;text-align:start;letter-spacing:0px;word-spacing:0px;text-anchor:start;fill:#c3302a;fill-opacity:1;stroke:none;stroke-width:0.264583px;stroke-linecap:butt;stroke-linejoin:miter;stroke-opacity:1"
         x="344.11795"
         y="-372.67075"
         id="text10629"><tspan
           sodipodi:role="line"
           id="tspan10627"
           x="344.11795"
           y="-372.67075"
           style="fill:#c3302a;fill-opacity:1;stroke-width:0.264583px">♥</tspan></text>
      <path
         transform="matrix(-1,0,0,1,705.68387,-0.95438458)"
         d="m 354.65353,-388.33611 c 0.14247,-0.15526 0.31447,-0.24256 0.51607,-0.26184 0.21268,-0.009 0.42436,0.083 0.63508,0.27636 0.24397,0.22389 0.51514,0.58511 0.81354,1.08365 0.29837,0.49853 0.55937,0.87084 0.78301,1.11691 0.40438,-0.50736 0.92716,-1.23292 1.56844,-2.17662 0.65146,-0.95478 1.09422,-1.55971 1.3283,-1.81478 0.45796,-0.49905 0.88611,-0.57602 1.28443,-0.23091 0.14416,0.13229 0.22634,0.3099 0.24658,0.53272 0.0304,0.21176 -0.0663,0.43963 -0.29024,0.68361 -0.31549,0.34378 -0.91078,0.87002 -1.78587,1.57873 -0.86491,0.69762 -1.5379,1.27514 -2.01895,1.73256 0.21997,0.16101 0.61329,0.38912 1.17991,0.68442 0.56663,0.29527 0.94421,0.52941 1.13274,0.70242 0.23288,0.21371 0.34325,0.42738 0.33112,0.64094 -0.002,0.2025 -0.069,0.37583 -0.20139,0.52 -0.1323,0.14416 -0.3043,0.23147 -0.51609,0.26184 -0.21176,0.0304 -0.43407,-0.0612 -0.66696,-0.27498 -0.18853,-0.17301 -0.45368,-0.51854 -0.79553,-1.03647 -0.33165,-0.52908 -0.59311,-0.91202 -0.78438,-1.14883 -0.25348,0.29855 -0.60885,0.83044 -1.06605,1.59577 -0.447,0.75426 -0.88423,1.36427 -1.31167,1.83005 l -0.18318,0.19962 c -1.78099,1.94074 -7.1779,7.59914 -9.75059,9.95737 -0.0305,0.0332 -0.072,0.0667 -0.12351,0.10119 -0.0407,0.0444 -0.0772,0.0722 -0.10825,0.0845 -0.0204,0.0222 -0.0517,0.0446 -0.093,0.0678 -0.0407,0.0444 -0.072,0.0667 -0.093,0.0679 -0.0204,0.0222 -0.0466,0.0389 -0.0777,0.0513 -0.0315,0.012 -0.0579,0.0185 -0.079,0.0194 -0.0204,0.0222 -0.0467,0.0286 -0.079,0.0193 -0.0214,9.1e-4 -0.043,-0.009 -0.0652,-0.0291 -0.0214,9.1e-4 -0.043,-0.009 -0.0652,-0.0291 -0.0444,-0.0407 -0.073,-0.0874 -0.086,-0.14009 -0.002,-0.0426 0.0117,-0.10171 0.0403,-0.1775 0.0296,-0.0545 0.0541,-0.10352 0.0736,-0.14701 0.0204,-0.0222 0.0654,-0.0831 0.13601,-0.18163 0.0601,-0.0879 0.10038,-0.14281 0.12073,-0.16499 2.1291,-2.76532 7.3042,-8.62726 9.08519,-10.568 l 0.18318,-0.19962 c 0.42744,-0.46578 0.99221,-0.95874 1.69428,-1.47893 0.72335,-0.52109 1.22286,-0.92071 1.49856,-1.19887 -0.26339,-0.18049 -0.67291,-0.41324 -1.22845,-0.69832 -0.54537,-0.29618 -0.90676,-0.52568 -1.08421,-0.68851 -0.23289,-0.21372 -0.34325,-0.42739 -0.33113,-0.64095 0.0334,-0.21449 0.11117,-0.38829 0.2333,-0.52137 z"
         style="font-style:normal;font-variant:normal;font-weight:normal;font-stretch:normal;font-size:22.5778px;line-height:125%;font-family:'CMU Serif';-inkscape-font-specification:'CMU Serif';text-align:start;letter-spacing:0px;word-spacing:0px;text-anchor:start;fill:#41413b;fill-opacity:1;stroke:none;stroke-width:0.264583px;stroke-linecap:butt;stroke-linejoin:miter;stroke-opacity:1"
         id="path10631"
         inkscape:connector-curvature="0"
         sodipodi:nodetypes="ccscccsccscccscscscccsscccccccccscccccsscccsccc" />
      <path
         inkscape:connector-curvature="0"
         style="font-style:normal;font-variant:normal;font-weight:normal;font-stretch:normal;font-size:22.5778px;line-height:125%;font-family:Stencilia-A;-inkscape-font-specification:Stencilia-A;text-align:start;letter-spacing:0px;word-spacing:0px;text-anchor:start;fill:#c3302a;fill-opacity:1;stroke:none;stroke-width:1px;stroke-linecap:butt;stroke-linejoin:miter;stroke-opacity:1"
         d="m 3317.457,-211.10156 c -0.8773,0 -1.7321,0.0897 -2.5683,0.2539 -0.4517,6.30093 -3.3118,12.33498 -8.5957,18.10157 l -6.5866,7.90659 -0.1773,0.21279 c 2.24,2.39597 -1.6159,6.39336 -3.7902,4.54981 l -9.776,11.7351 15.8281,19.40625 h 0.25 l 22.041,-26.45898 c 5.7778,-6.30556 8.668,-12.93056 8.668,-19.875 0,-2.02778 -0.4451,-4.19445 -1.334,-6.5 -3.5,-6.22222 -8.1534,-9.33203 -13.959,-9.33203 z"
         transform="matrix(0.26458333,0,0,0.26458333,-519.42676,-333.26486)"
         id="path10633"
         sodipodi:nodetypes="scccccccccscs" />
    </g>
  </g>
</svg>
