<?xml version="1.0" encoding="UTF-8" standalone="no"?>
<svg
   xmlns:dc="http://purl.org/dc/elements/1.1/"
   xmlns:cc="http://creativecommons.org/ns#"
   xmlns:rdf="http://www.w3.org/1999/02/22-rdf-syntax-ns#"
   xmlns:svg="http://www.w3.org/2000/svg"
   xmlns="http://www.w3.org/2000/svg"
   xmlns:sodipodi="http://sodipodi.sourceforge.net/DTD/sodipodi-0.dtd"
   xmlns:inkscape="http://www.inkscape.org/namespaces/inkscape"
   width="17.850019mm"
   height="4.6855021mm"
   viewBox="0 0 17.850019 4.6855021"
   version="1.1"
   id="svg8"
   sodipodi:docname="logo-noir-sur-rouge.svg"
   inkscape:version="1.0.2 (e86c870879, 2021-01-15)">
  <defs
     id="defs2" />
  <sodipodi:namedview
     id="base"
     pagecolor="#ffffff"
     bordercolor="#666666"
     borderopacity="1.0"
     inkscape:pageopacity="0.0"
     inkscape:pageshadow="2"
     inkscape:zoom="18.083548"
     inkscape:cx="33.732319"
     inkscape:cy="8.8544919"
     inkscape:document-units="mm"
     inkscape:current-layer="layer1-35"
     inkscape:document-rotation="0"
     showgrid="false"
     inkscape:window-width="1916"
     inkscape:window-height="1038"
     inkscape:window-x="0"
     inkscape:window-y="40"
     inkscape:window-maximized="0" />
  <metadata
     id="metadata5">
    <rdf:RDF>
      <cc:Work
         rdf:about="">
        <dc:format>image/svg+xml</dc:format>
        <dc:type
           rdf:resource="http://purl.org/dc/dcmitype/StillImage" />
        <dc:title></dc:title>
      </cc:Work>
    </rdf:RDF>
  </metadata>
  <g
     inkscape:label="Calque 1"
     inkscape:groupmode="layer"
     id="layer1"
     transform="translate(302.99048,-306.08583)">
    <g
       transform="matrix(0.10393599,0,0,0.10393599,-309.56823,292.47122)"
       id="layer1-35"
       inkscape:label="Layer 1">
      <g
         id="g4690"
         style="fill:#d4001c;fill-opacity:1">
        <path
           d="m 63.286519,172.07888 v -1.5748 h 1.2192 q 2.7432,0 3.3528,-0.4572 0.6604,-0.4572 0.6604,-1.9304 v -26.61921 q 0,-1.4732 -0.6604,-1.9304 -0.6096,-0.4572 -3.3528,-0.4572 h -1.2192 v -1.5748 h 27.889199 l 1.4224,11.43 h -1.27 q -0.3556,-2.8956 -0.8128,-4.5212 -0.4572,-1.6764 -1.524,-2.9972 -1.016,-1.3208 -2.794,-1.8288 -1.727199,-0.508 -4.571999,-0.508 h -6.096 q -1.7272,0 -2.1336,0.3556 -0.3556,0.3556 -0.3556,1.6764 v 12.8524 h 4.3688 q 3.4544,0 4.4196,-1.2192 0.9652,-1.27 0.9652,-4.7244 h 1.27 v 13.46201 h -1.27 q 0,-3.50521 -0.9652,-4.72441 -0.9652,-1.2192 -4.4196,-1.2192 h -4.3688 v 12.49681 q 0,1.0668 0.1524,1.4732 0.2032,0.4064 1.27,0.7112 1.0668,0.254 3.4036,0.254 h 1.6764 v 1.5748 q -1.8288,-0.1524 -8.5344,-0.1524 -5.9436,0 -7.7216,0.1524 z"
           style="font-style:normal;font-variant:normal;font-weight:500;font-stretch:normal;font-size:medium;line-height:125%;font-family:'CMU Serif';-inkscape-font-specification:'CMU Serif Medium';text-align:start;letter-spacing:0px;word-spacing:0px;text-anchor:start;fill:#d4001c;fill-opacity:1;stroke:none;stroke-width:0.264583px;stroke-linecap:butt;stroke-linejoin:miter;stroke-opacity:1"
           id="path4600"
           inkscape:connector-curvature="0" />
        <path
           d="m 90.620093,172.07888 v -1.5748 q 4.5212,-0.1016 5.6896,-3.4036 l 10.515597,-30.37841 q 0.2032,-0.6096 0.4064,-0.8128 0.254,-0.2032 0.8128,-0.2032 0.3048,0 0.4572,0.0508 0.2032,0.0508 0.3048,0.254 0.1524,0.1524 0.2032,0.254 0.0508,0.1016 0.2032,0.4572 l 10.9728,31.75001 q 0.4064,1.27 1.2192,1.6764 0.8128,0.3556 3.0988,0.3556 h 0.9144 v 1.5748 q -3.2004,-0.1524 -6.6548,-0.1524 -5.4864,0 -7.3152,0.1524 v -1.5748 q 4.2164,0 4.2164,-1.524 0,-0.1016 -0.1524,-0.7112 l -2.6924,-7.7724 h -12.5476 l -2.336797,6.6548 q -0.1016,0.2032 -0.1016,0.762 0,1.0668 0.9652,1.8288 1.016,0.762 2.844797,0.762 v 1.5748 q -4.876797,-0.1524 -5.841997,-0.1524 -1.6764,0 -5.1816,0.1524 z m 10.210797,-13.15721 h 11.43 l -5.7404,-16.51 z"
           style="font-style:normal;font-variant:normal;font-weight:500;font-stretch:normal;font-size:medium;line-height:125%;font-family:'CMU Serif';-inkscape-font-specification:'CMU Serif Medium';text-align:start;letter-spacing:0px;word-spacing:0px;text-anchor:start;fill:#d4001c;fill-opacity:1;stroke:none;stroke-width:0.264583px;stroke-linecap:butt;stroke-linejoin:miter;stroke-opacity:1"
           id="path4602"
           inkscape:connector-curvature="0" />
        <path
           d="m 127.38183,138.95727 v -1.5748 q 1.778,0.1524 7.5184,0.1524 5.6896,0 7.4676,-0.1524 v 1.5748 h -1.2192 q -2.7432,0 -3.4036,0.4572 -0.6096,0.4572 -0.6096,1.9304 v 19.35481 q 0,3.4036 0.9144,5.7404 0.9652,2.3368 2.4384,3.4036 1.4732,1.016 2.6416,1.4224 1.2192,0.3556 2.3876,0.3556 3.8608,0 6.8072,-3.048 2.9464,-3.0988 2.9464,-8.2296 v -17.62761 q 0,-0.762 -0.1016,-1.2192 -0.1016,-0.4572 -0.5588,-1.1176 -0.4064,-0.7112 -1.5748,-1.0668 -1.1684,-0.3556 -2.9972,-0.3556 v -1.5748 q 5.4864,0.1524 6.0452,0.1524 0.508,0 5.9944,-0.1524 v 1.5748 q -1.8288,0 -2.9972,0.3556 -1.1684,0.3048 -1.6256,1.016 -0.4064,0.7112 -0.508,1.2192 -0.1016,0.508 -0.1016,1.3716 v 16.256 q 0,2.48921 -0.1524,3.50521 -0.6604,4.4196 -3.81,7.4676 -3.1496,3.048 -7.4676,3.048 -5.2324,0 -9.0424,-3.6576 -3.7592,-3.7084 -3.7592,-9.0424 v -19.15161 q 0,-1.4732 -0.6604,-1.9304 -0.6096,-0.4572 -3.3528,-0.4572 z"
           style="font-style:normal;font-variant:normal;font-weight:500;font-stretch:normal;font-size:medium;line-height:125%;font-family:'CMU Serif';-inkscape-font-specification:'CMU Serif Medium';text-align:start;letter-spacing:0px;word-spacing:0px;text-anchor:start;fill:#d4001c;fill-opacity:1;stroke:none;stroke-width:0.264583px;stroke-linecap:butt;stroke-linejoin:miter;stroke-opacity:1"
           id="path4604"
           inkscape:connector-curvature="0" />
        <path
           d="m 164.77063,138.95727 v -1.5748 q 5.4864,0.1524 6.4516,0.1524 5.4356,0 7.2644,-0.1524 v 1.5748 q -4.1656,0 -4.1656,1.4732 0,0.2032 0.3048,0.9144 l 9.7028,25.65401 9.2964,-24.48561 q 0.254,-0.762 0.254,-1.016 0,-1.016 -0.9652,-1.7272 -0.9144,-0.762 -2.7432,-0.8128 v -1.5748 q 3.9624,0.1524 5.7912,0.1524 2.5908,0 4.9276,-0.1524 v 1.5748 q -4.2672,0.0508 -5.5372,3.4036 l -11.3284,29.87041 q -0.2032,0.6096 -0.4064,0.762 -0.2032,0.2032 -0.8128,0.2032 -0.508,0 -0.762,-0.2032 -0.254,-0.2032 -0.508,-0.9144 l -11.7856,-31.19121 q -0.508,-1.3716 -1.4224,-1.6256 -0.8636,-0.3048 -3.556,-0.3048 z"
           style="font-style:normal;font-variant:normal;font-weight:500;font-stretch:normal;font-size:medium;line-height:125%;font-family:'CMU Serif';-inkscape-font-specification:'CMU Serif Medium';text-align:start;letter-spacing:0px;word-spacing:0px;text-anchor:start;fill:#d4001c;fill-opacity:1;stroke:none;stroke-width:0.264583px;stroke-linecap:butt;stroke-linejoin:miter;stroke-opacity:1"
           id="path4606"
           inkscape:connector-curvature="0" />
        <path
           d="m 203.58182,172.07888 v -1.5748 h 1.2192 q 2.7432,0 3.3528,-0.4572 0.6604,-0.4572 0.6604,-1.9304 v -26.61921 q 0,-1.4732 -0.6604,-1.9304 -0.6096,-0.4572 -3.3528,-0.4572 h -1.2192 v -1.5748 h 28.6004 l 1.4224,11.43 h -1.27 q -0.3556,-2.8956 -0.8128,-4.572 -0.4572,-1.6764 -1.5748,-2.9464 -1.0668,-1.3208 -2.8956,-1.8288 -1.778,-0.508 -4.6736,-0.508 h -6.5532 q -1.7272,0 -2.1336,0.3556 -0.3556,0.3556 -0.3556,1.6764 v 12.192 h 4.572 q 3.5052,0 4.4704,-1.2192 1.016,-1.2192 1.016,-4.7244 h 1.27 v 13.46201 h -1.27 q 0,-3.45441 -1.016,-4.67361 -0.9652,-1.27 -4.4704,-1.27 h -4.572 v 13.56361 q 0,1.3208 0.3556,1.6764 0.4064,0.3556 2.1336,0.3556 h 6.7564 q 2.1844,0 3.7592,-0.254 1.6256,-0.3048 2.7432,-1.016 1.1176,-0.7112 1.8796,-1.524 0.762,-0.8128 1.27,-2.286 0.5588,-1.4732 0.8636,-2.8448 0.3048,-1.3716 0.6604,-3.60681 h 1.27 l -2.1336,13.10641 z"
           style="font-style:normal;font-variant:normal;font-weight:500;font-stretch:normal;font-size:medium;line-height:125%;font-family:'CMU Serif';-inkscape-font-specification:'CMU Serif Medium';text-align:start;letter-spacing:0px;word-spacing:0px;text-anchor:start;fill:#d4001c;fill-opacity:1;stroke:none;stroke-width:0.264583px;stroke-linecap:butt;stroke-linejoin:miter;stroke-opacity:1"
           id="path4608"
           inkscape:connector-curvature="0" />
      </g>
      <g
         style="fill:#09001c;fill-opacity:1"
         id="g4696">
        <path
           sodipodi:nodetypes="ccccccsscsscccssccsccccsccc"
           d="m 199.26424,164.14719 c 0,0.17387 -0.0303,0.49989 -0.0908,0.97803 -0.0404,0.45642 -0.11102,0.97804 -0.21185,1.56485 -0.0807,0.58682 -0.18158,1.20624 -0.30264,1.85827 -0.10089,0.63029 -0.21186,1.20624 -0.33291,1.72785 -0.12106,0.52162 -0.24212,0.9563 -0.36317,1.30405 -0.12106,0.34775 -0.22194,0.52162 -0.30264,0.52162 -0.343,0 -0.51449,-0.17387 -0.51449,-0.52162 0,-0.10867 0.0605,-0.46729 0.18157,-1.07584 0.14124,-0.63029 0.21186,-1.43445 0.21186,-2.41248 0,-0.60855 -0.0605,-1.53225 -0.18159,-2.77109 -0.12106,-1.23884 -0.27238,-2.62982 -0.45396,-4.17294 -0.18159,-1.54312 -0.75125,-8.9992 -0.95301,-10.65099 -0.20176,-1.65179 -0.39343,-3.19491 -0.57501,-4.62935 -0.1816,-1.43445 -0.33292,-2.67329 -0.45397,-3.71652 -0.12106,-1.04324 -0.18158,-1.71699 -0.18158,-2.02127 0,-0.49988 0.0706,-1.09757 0.21184,-1.79306 0.14123,-0.71722 0.30264,-1.40185 0.48423,-2.05387 0.20176,-0.65202 0.40353,-1.21711 0.60529,-1.69525 0.20176,-0.47815 0.36317,-0.73896 0.48423,-0.78243 0.0404,0.0652 0.0807,0.20647 0.12106,0.42381 0.0404,0.21734 0.0707,0.45642 0.0908,0.71723 0.0403,0.26081 0.0706,0.53248 0.0908,0.81502 0.0201,0.26081 0.0302,0.47815 0.0302,0.65203 v 1.85826 l 2.40569,25.87569 z"
           style="font-style:normal;font-variant:normal;font-weight:normal;font-stretch:normal;font-size:medium;line-height:125%;font-family:Scheherazade;-inkscape-font-specification:Scheherazade;text-align:end;letter-spacing:0px;word-spacing:0px;text-anchor:end;fill:#09001c;fill-opacity:1;stroke:none;stroke-width:0.33505px;stroke-linecap:butt;stroke-linejoin:miter;stroke-opacity:1"
           id="path4610"
           inkscape:connector-curvature="0" />
        <path
           style="font-style:normal;font-variant:normal;font-weight:normal;font-stretch:normal;font-size:medium;line-height:125%;font-family:Scheherazade;-inkscape-font-specification:Scheherazade;text-align:end;letter-spacing:0px;word-spacing:0px;text-anchor:end;fill:#09001c;fill-opacity:1;stroke:none;stroke-width:0.311783px;stroke-linecap:butt;stroke-linejoin:miter;stroke-opacity:1"
           d="m 190.39463,131.76753 c -0.23383,0 -0.45795,0.13646 -0.67231,0.40928 -0.21435,0.25332 -0.40908,0.57455 -0.58446,0.96428 -0.15589,0.37024 -0.29236,0.76022 -0.40928,1.16943 -0.0974,0.40922 -0.14624,0.75984 -0.14624,1.05214 0,0.74048 0.0682,1.69523 0.20464,2.86442 0.13641,1.1497 0.31171,2.39681 0.52607,3.74137 0.21434,1.34457 0.43847,2.72814 0.6723,4.15066 0.23384,1.40302 0.45796,2.71836 0.67232,3.94601 0.21435,1.22765 0.38966,2.30941 0.52606,3.24476 0.1364,0.91586 0.20464,1.55884 0.20464,1.92908 0,0.62357 -0.17531,1.17889 -0.52607,1.66605 -0.33127,0.48716 -0.75012,0.89656 -1.25677,1.22783 -0.50664,0.33127 -1.07193,0.58427 -1.6955,0.75965 -0.60408,0.15589 -1.17217,0.17509 -1.69499,0.23409 -0.9004,0.10161 -1.77064,-0.0258 -2.66464,-0.0668 -1.36262,-0.0625 -2.71823,-0.30232 -4.0628,-0.9064 0.79895,-0.74049 1.39363,-1.59762 1.78336,-2.57194 0.40921,-0.99381 0.61339,-1.94856 0.61339,-2.86442 0,-0.40922 -0.0777,-0.90628 -0.23357,-1.49087 -0.13641,-0.58459 -0.34111,-1.14988 -0.61392,-1.6955 -0.27281,-0.56511 -0.604,-1.04223 -0.99374,-1.43196 -0.37024,-0.38973 -0.79906,-0.58497 -1.28622,-0.58497 -0.44819,0 -1.0329,0.26348 -1.7539,0.78961 -0.70151,0.52614 -1.3933,1.23734 -2.07533,2.13372 -0.40921,0.52614 -0.78922,1.08146 -1.13998,1.66605 -0.35075,0.5846 -0.65256,1.15934 -0.90589,1.72444 -0.25332,0.54563 -0.45802,1.0621 -0.61391,1.54926 -0.13641,0.46768 -0.20464,0.84769 -0.20464,1.13998 0,0.27281 0.01,0.56517 0.0294,0.87695 0.039,0.2923 0.0878,0.5453 0.14625,0.75965 -0.66254,0.31178 -1.40314,0.54587 -2.22157,0.70176 -0.81843,0.13641 -1.58842,0.20464 -2.30942,0.20464 h -1.08159 c -0.37024,0 -0.66208,0.0583 -0.87643,0.17519 -0.21436,0.0974 -0.37025,0.2339 -0.46767,0.40927 -0.11694,0.15589 -0.18517,0.34118 -0.20464,0.55552 -0.039,0.21436 -0.0589,0.43847 -0.0589,0.67232 0,0.23383 0.0199,0.45795 0.0589,0.6723 0.0195,0.21436 0.0877,0.40909 0.20464,0.58447 0.0974,0.17538 0.25331,0.32129 0.46767,0.43821 0.21435,0.0974 0.50619,0.14625 0.87643,0.14625 h 1.08159 c 0.68203,0 1.29613,-0.0488 1.84175,-0.14625 0.5651,-0.11692 1.12988,-0.2728 1.69498,-0.46767 0.56511,-0.19486 1.15979,-0.42844 1.78336,-0.70125 0.64305,-0.29229 1.38365,-0.61404 2.22157,-0.9648 0.77945,0.35076 1.49066,0.67251 2.13372,0.9648 0.64305,0.27281 1.28603,0.50639 1.92908,0.70125 0.64305,0.19487 1.29548,0.35075 1.95802,0.46767 0.68202,0.0974 1.47818,0.21228 2.31337,0.27988 0.92268,0.0747 1.77884,0.14074 2.66464,0.0668 1.35178,-0.11281 2.26571,-0.36721 3.0062,-0.83489 0.75997,-0.48715 1.34468,-1.06241 1.7539,-1.72495 0.4287,-0.68203 0.72105,-1.39324 0.87695,-2.13372 0.17537,-0.75998 0.31184,-1.42237 0.40927,-1.98748 0.039,-0.2923 0.0873,-0.6235 0.14573,-0.99374 0.0584,-0.37024 0.10725,-0.75025 0.14625,-1.13998 0.0585,-0.38973 0.0978,-0.76974 0.1173,-1.13998 0.039,-0.38973 0.0584,-0.7309 0.0584,-1.0232 0,-0.54562 -0.0488,-1.17862 -0.14625,-1.89962 -0.0974,-0.74049 -0.22444,-1.51993 -0.38034,-2.33836 -0.1364,-0.81843 -0.29229,-1.65666 -0.46767,-2.51406 -0.15589,-0.87689 -0.31178,-1.71459 -0.46767,-2.51354 -0.1364,-0.81843 -0.25293,-1.57845 -0.35037,-2.27997 -0.0974,-0.70151 -0.14624,-1.31561 -0.14624,-1.84174 0,-0.46768 0.0876,-0.88653 0.26303,-1.25677 0.19486,-0.37025 0.40902,-0.68202 0.64286,-0.93535 0.23384,-0.27281 0.43854,-0.48696 0.61391,-0.64285 0.19487,-0.15589 0.29249,-0.25352 0.29249,-0.29249 0,-0.039 -0.11704,-0.25313 -0.35088,-0.64285 -0.21435,-0.38973 -0.45789,-0.80859 -0.73071,-1.25677 -0.25332,-0.44819 -0.50683,-0.84763 -0.76016,-1.19838 -0.23386,-0.37024 -0.36035,-0.55552 -0.37982,-0.55552 z m -6.23829,-0.77724 c -0.039,0 -0.1555,0.1265 -0.35036,0.37982 -0.19487,0.23384 -0.39957,0.48683 -0.61392,0.75964 -0.25332,0.33127 -0.52625,0.70183 -0.81855,1.11105 -0.0779,0.15589 -0.14618,0.23357 -0.20464,0.23357 -0.0585,0 -0.14611,-0.0583 -0.26304,-0.17518 -0.38972,-0.33127 -0.75031,-0.62362 -1.08158,-0.87695 -0.27281,-0.21435 -0.53577,-0.41905 -0.7891,-0.61391 -0.25333,-0.19487 -0.42864,-0.29198 -0.52607,-0.29198 -0.039,0 -0.16547,0.13647 -0.37982,0.40928 -0.19487,0.27281 -0.40954,0.58459 -0.64337,0.93535 -0.23384,0.33126 -0.44799,0.65249 -0.64286,0.96428 -0.17537,0.29229 -0.26303,0.47757 -0.26303,0.55552 0,0.0585 0.1265,0.19493 0.37982,0.40927 0.25333,0.21436 0.53572,0.43848 0.8475,0.67232 0.31178,0.23383 0.60414,0.44799 0.87694,0.64285 0.2923,0.17538 0.4676,0.26303 0.52607,0.26303 0.0585,0 0.17551,-0.11704 0.35088,-0.35088 0.19487,-0.23384 0.39957,-0.4968 0.61392,-0.7891 0.23383,-0.33127 0.4968,-0.71128 0.7891,-1.13998 0.0779,-0.0779 0.14617,-0.11679 0.20464,-0.11679 0.0585,0 0.1267,0.0388 0.20464,0.11679 0.44819,0.35076 0.84762,0.65308 1.19837,0.9064 0.31179,0.23384 0.59418,0.44799 0.8475,0.64286 0.27278,0.17538 0.42867,0.26303 0.46767,0.26303 0.0779,0 0.21442,-0.13646 0.40928,-0.40928 0.21435,-0.27281 0.42901,-0.57461 0.64337,-0.90588 0.23383,-0.35076 0.43853,-0.68196 0.61391,-0.99374 0.17538,-0.31178 0.26304,-0.50703 0.26304,-0.58498 0,-0.039 -0.12701,-0.16547 -0.38034,-0.37982 -0.25333,-0.21435 -0.53572,-0.43847 -0.84749,-0.67231 -0.31179,-0.25332 -0.61412,-0.47745 -0.90641,-0.67231 -0.2923,-0.19487 -0.4676,-0.29197 -0.52607,-0.29197 z m -6.773,20.70351 c 0.38973,0 0.75977,0.0877 1.11052,0.26304 0.35076,0.15589 0.65309,0.37004 0.90641,0.64285 0.25332,0.25333 0.44805,0.54568 0.58446,0.87695 0.15589,0.31178 0.23358,0.63353 0.23358,0.9648 0,0.23384 -0.10708,0.45796 -0.32143,0.67231 -0.19487,0.21435 -0.4678,0.41905 -0.81856,0.61392 -0.35075,0.17537 -0.75964,0.36014 -1.22731,0.555 -0.44819,0.17538 -0.93527,0.36066 -1.46141,0.55552 -0.27281,-0.19486 -0.55571,-0.39956 -0.84801,-0.61391 -0.27281,-0.21435 -0.52581,-0.42851 -0.75964,-0.64286 -0.23384,-0.23384 -0.42909,-0.46793 -0.58498,-0.70176 -0.13641,-0.25333 -0.20464,-0.51629 -0.20464,-0.7891 0,-0.23384 0.12701,-0.48736 0.38034,-0.76016 0.2728,-0.27281 0.58458,-0.52581 0.93534,-0.75965 0.37024,-0.25332 0.74029,-0.45802 1.11053,-0.61391 0.38973,-0.17538 0.71148,-0.26304 0.9648,-0.26304 z"
           id="path4612"
           inkscape:connector-curvature="0"
           sodipodi:nodetypes="scccscccccscccssccscccscccccscccsscccscccsscccccccsscccccccscccccscccscccsscccscccscccscccscccscccscccssccsscccscccccccscccs" />
        <path
           sodipodi:nodetypes="scssscccccccccscccscccccscccccccccccccsccscccssccscccscccsccscccccscccccscccccccsscccccscsscccscccscccscccscccscccscccscccs"
           inkscape:connector-curvature="0"
           id="path4614"
           d="m 135.27654,151.59721 c -0.31179,0 -0.63352,0.14643 -0.96479,0.43873 -0.33127,0.27281 -0.59789,0.44157 -0.89352,0.91403 -1.15686,1.84887 -2.56791,3.81773 -3.19042,5.92968 -0.13245,0.44937 -0.20412,0.79933 -0.20412,1.05265 0,0.56511 0.14593,1.03278 0.43822,1.40302 0.31179,0.35075 0.74061,0.6426 1.28622,0.87643 0.56511,0.21435 1.22751,0.39017 1.98748,0.52658 0.77945,0.11692 3.34094,0.0136 4.27629,0.0915 -0.15589,0.93535 -0.44824,1.85126 -0.87694,2.74764 -0.40922,0.89637 -0.9257,1.75402 -1.54926,2.57245 -0.62357,0.81843 -1.31536,1.56848 -2.07533,2.25051 -0.75997,0.68203 -1.55883,1.27618 -2.39675,1.78284 -0.83791,0.50665 -1.69557,0.89663 -2.57246,1.16944 -0.8574,0.2923 -1.70507,0.43821 -2.54299,0.43821 -0.38973,0 -0.76973,-0.0288 -1.13998,-0.0873 -0.37024,-0.0585 -0.71089,-0.12664 -1.02268,-0.20464 -0.33127,-0.0585 -0.61417,-0.1172 -0.84801,-0.1757 -0.25332,-0.0585 -0.44805,-0.0873 -0.58446,-0.0873 -0.15589,0 -0.27298,0.0388 -0.35088,0.11679 -0.0779,0.0974 -0.11679,0.2045 -0.11679,0.32142 0,0.078 0.23357,0.24381 0.70125,0.49713 0.46767,0.25333 1.04293,0.51629 1.72496,0.7891 0.68203,0.2923 1.40268,0.54529 2.16265,0.75964 0.75997,0.23384 1.42289,0.35088 1.988,0.35088 1.05227,0 2.07525,-0.24354 3.06906,-0.7307 0.99381,-0.48716 2.00682,-1.30545 3.03961,-2.45515 0.62357,-0.721 1.19831,-1.52983 1.72444,-2.42621 0.54562,-0.89636 1.02326,-1.80231 1.43247,-2.71818 0.4287,-0.91585 0.77932,-1.81235 1.05213,-2.68924 0.27281,-0.8574 0.46807,-1.61742 0.58498,-2.27996 0.15589,0 0.32123,-0.009 0.49661,-0.0289 0.15589,0 0.32176,-0.01 0.49713,-0.0295 h 0.61391 0.14573 0.99374 11.44527 0.87695 0.20412 c 0.721,0 1.34455,-0.0877 1.87068,-0.26303 0.54562,-0.17538 1.03271,-0.40947 1.46141,-0.70177 0.4287,-0.2923 0.81869,-0.62349 1.16944,-0.99373 0.35076,-0.37025 0.70138,-0.75026 1.05213,-1.13998 0.1559,0.35076 0.36059,0.73076 0.61392,1.13998 0.25332,0.38972 0.48741,0.7015 0.70176,0.93534 0.31178,0.33127 0.65244,0.58478 1.02268,0.76016 0.37024,0.17538 0.82846,0.26303 1.37408,0.26303 h 0.17518 0.9648 2.40938 c 0.29229,0 0.5159,-0.0488 0.67179,-0.14624 0.15589,-0.11692 0.27294,-0.26284 0.35088,-0.43822 0.0779,-0.17537 0.11679,-0.3701 0.11679,-0.58446 0.0195,-0.21435 0.0295,-0.43847 0.0295,-0.67231 0,-0.23384 -0.01,-0.45795 -0.0295,-0.67231 0,-0.21434 -0.0388,-0.39963 -0.11679,-0.55552 -0.0779,-0.17538 -0.19499,-0.31184 -0.35088,-0.40928 -0.15589,-0.11692 -0.3795,-0.17518 -0.67179,-0.17518 h -2.40938 -0.9648 -0.17518 c -0.29229,0 -0.55526,-0.0682 -0.7891,-0.20464 -0.21435,-0.13641 -0.4096,-0.31171 -0.58498,-0.52607 -0.15589,-0.23383 -0.3018,-0.47738 -0.43821,-0.7307 -0.11692,-0.27281 -0.21455,-0.52632 -0.29249,-0.76016 -0.15587,-0.40921 -0.25298,-0.77926 -0.29198,-1.11053 -0.039,-0.33127 -0.11717,-0.49712 -0.23409,-0.49712 -0.0974,0 -0.21448,0.0976 -0.35088,0.29248 -0.11692,0.17538 -0.2728,0.40896 -0.46767,0.70125 -0.19487,0.2923 -0.44787,0.60408 -0.75965,0.93535 -0.2923,0.31178 -0.6723,0.6141 -1.13998,0.9064 -0.44818,0.2923 -0.99405,0.53584 -1.63711,0.73071 -0.64305,0.17537 -1.40307,0.26303 -2.27996,0.26303 h -0.20412 -0.87695 -11.44527 -0.99374 -1.5782 c 0,-0.56511 -0.0876,-1.21805 -0.26303,-1.95854 -0.57184,-1.73285 -1.46493,-3.57363 -2.64751,-4.80203 -0.4287,-0.46767 -0.89637,-0.70176 -1.40302,-0.70176 z m -0.80566,3.48699 c 0.27281,0 0.56465,0.0971 0.87643,0.29198 0.31178,0.17538 0.60415,0.3995 0.87695,0.67231 0.27281,0.27281 1.23193,1.74444 1.40731,2.07571 0.17536,0.31178 0.26303,0.60414 0.26303,0.87695 -1.28611,-0.039 -3.95415,0.0151 -4.59721,-0.23829 -0.62357,-0.27281 -0.93534,-0.54574 -0.93534,-0.81855 0,-0.38973 1.0565,-2.10014 1.23188,-2.39243 0.19487,-0.31179 0.48722,-0.46768 0.87695,-0.46768 z m 27.76875,12.5833 c -0.039,0 -0.15601,0.11705 -0.35088,0.35089 -0.19486,0.25332 -0.39956,0.51629 -0.61392,0.7891 -0.25332,0.33127 -0.52625,0.70183 -0.81855,1.11104 -0.0779,0.15589 -0.14617,0.23358 -0.20464,0.23358 -0.0585,0 -0.14612,-0.0583 -0.26303,-0.17519 -0.38974,-0.33126 -0.75032,-0.62362 -1.08159,-0.87695 -0.27281,-0.21435 -0.53578,-0.41905 -0.7891,-0.61391 -0.25332,-0.19487 -0.42863,-0.29249 -0.52607,-0.29249 -0.039,0 -0.16547,0.13647 -0.37982,0.40928 -0.19486,0.27281 -0.40953,0.57513 -0.64337,0.9064 -0.23383,0.35076 -0.44799,0.67199 -0.64285,0.96428 -0.17539,0.31179 -0.26304,0.50704 -0.26304,0.58498 0,0.0585 0.1265,0.19442 0.37983,0.40876 0.25332,0.21436 0.53622,0.43847 0.848,0.67231 0.31178,0.23383 0.60362,0.43854 0.87644,0.61392 0.29228,0.19487 0.46812,0.29249 0.52658,0.29249 0.0585,0 0.17499,-0.11705 0.35037,-0.35089 0.19487,-0.23384 0.39957,-0.4968 0.61391,-0.7891 0.23384,-0.33127 0.4968,-0.71127 0.7891,-1.13998 0.0779,-0.0779 0.14617,-0.11679 0.20464,-0.11679 0.0585,0 0.12669,0.0389 0.20464,0.11679 0.44819,0.35076 0.84761,0.65257 1.19837,0.90589 0.31178,0.23384 0.59469,0.43855 0.84802,0.61392 0.27278,0.19487 0.42867,0.29249 0.46767,0.29249 0.0779,0 0.21441,-0.13648 0.40927,-0.40928 0.21436,-0.27282 0.42851,-0.58459 0.64286,-0.93534 0.23384,-0.33128 0.43854,-0.65303 0.61391,-0.9648 0.17538,-0.31179 0.26304,-0.50652 0.26304,-0.58446 0,-0.039 -0.12651,-0.16548 -0.37982,-0.37983 -0.25333,-0.21435 -0.53623,-0.44843 -0.84801,-0.70176 -0.31179,-0.23384 -0.6136,-0.44799 -0.90589,-0.64286 -0.29229,-0.19485 -0.4676,-0.29249 -0.52607,-0.29249 z"
           style="font-style:normal;font-variant:normal;font-weight:normal;font-stretch:normal;font-size:medium;line-height:125%;font-family:Scheherazade;-inkscape-font-specification:Scheherazade;text-align:end;letter-spacing:0px;word-spacing:0px;text-anchor:end;fill:#09001c;fill-opacity:1;stroke:none;stroke-width:0.311783px;stroke-linecap:butt;stroke-linejoin:miter;stroke-opacity:1" />
        <path
           d="m 122.06921,155.37619 c 0,1.24714 -0.35076,2.36761 -1.05227,3.36142 -0.70151,0.97432 -1.63686,1.84147 -2.80605,2.60144 -1.16919,0.74049 -2.52349,1.3738 -4.06292,1.89993 -1.53943,0.52613 -3.15681,0.95484 -4.85213,1.28611 -1.67583,0.33127 -3.37115,0.57485 -5.08596,0.73074 -1.71481,0.15589 -3.34193,0.23384 -4.88136,0.23384 -0.682027,0 -1.169187,-0.0195 -1.46148,-0.0585 -0.272813,-0.039 -0.56511,-0.11695 -0.87689,-0.23384 -0.136407,-0.039 -0.418963,-0.21438 -0.84767,-0.52613 -0.409213,-0.33127 -0.847657,-0.69177 -1.31533,-1.0815 -0.448187,-0.38973 -0.84766,-0.75998 -1.19842,-1.11073 -0.350753,-0.35075 -0.52613,-0.58459 -0.52613,-0.70151 0,-0.15589 0.09743,-0.23384 0.29229,-0.23384 0.506653,0 0.964587,0.0195 1.3738,0.0585 0.4287,0.039 0.837917,0.0877 1.22765,0.14615 0.409213,0.0585 0.818427,0.10718 1.22764,0.14615 0.428707,0.039 0.906127,0.0585 1.43226,0.0585 1.32508,0 2.49427,-0.10718 3.50756,-0.32153 1.01329,-0.23383 1.88044,-0.72099 2.60144,-1.46148 0.11692,-0.2923 0.2241,-0.64306 0.32153,-1.05227 0.0974,-0.40922 0.17537,-0.80869 0.23383,-1.19842 0.078,-0.40922 0.13641,-0.7892 0.17538,-1.13996 0.039,-0.35075 0.0585,-0.62356 0.0585,-0.81843 0,-1.03278 -0.0195,-1.95839 -0.0585,-2.77682 -0.0195,-0.81843 -0.0682,-1.59789 -0.14615,-2.33837 -0.0585,-0.74049 -0.14615,-1.47123 -0.26306,-2.19223 -0.0974,-0.721 -0.21435,-1.49071 -0.35076,-2.30914 -0.13641,-0.85741 -0.62303,-3.15998 -0.7984,-3.97841 -0.17538,-0.81844 -0.34102,-1.57841 -0.49691,-2.27992 -0.13641,-0.70151 -0.25333,-1.31534 -0.35076,-1.84147 -0.0974,-0.52613 -0.14614,-0.93535 -0.14614,-1.22765 0,-0.25332 0.0487,-0.58459 0.14614,-0.99381 0.11692,-0.4287 0.25333,-0.83791 0.40922,-1.22764 0.15589,-0.40922 0.31179,-0.75997 0.46768,-1.05227 0.17537,-0.2923 0.33126,-0.43845 0.46767,-0.43845 0.078,0 0.24358,0.17538 0.4969,0.52614 0.25333,0.33127 0.5164,0.71125 0.78921,1.13996 0.27281,0.40921 0.51639,0.79894 0.73074,1.16918 0.21435,0.37025 0.32152,0.5846 0.32152,0.64306 -0.31178,0.23383 -0.62356,0.58459 -0.93535,1.05226 -0.29229,0.44819 -0.43844,1.12048 -0.43844,2.01685 0,0.35076 0.0585,0.92561 0.17538,1.72455 0.13641,0.77946 0.60354,3.13075 0.73994,4.12456 0.15589,0.97433 0.2923,2.00711 0.40922,3.09835 0.13641,1.07175 0.20461,2.08505 0.20461,3.03989 0,0.35075 -0.01,0.79894 -0.0292,1.34456 -0.0195,0.54562 -0.0487,1.12047 -0.0877,1.72455 -0.0195,0.60408 -0.0584,1.20816 -0.11692,1.81224 -0.039,0.5846 -0.0877,1.09124 -0.14615,1.51995 0.95483,-0.99381 1.9389,-1.92916 2.9522,-2.80605 1.01329,-0.89638 2.0071,-1.67584 2.98143,-2.33838 0.99381,-0.66254 1.9389,-1.18867 2.83527,-1.5784 0.91587,-0.38973 1.74404,-0.58459 2.48453,-0.58459 0.70151,0 1.31534,0.11691 1.84147,0.35075 0.52613,0.23384 0.96458,0.55537 1.31533,0.96458 0.37025,0.40922 0.64306,0.88663 0.81843,1.43226 0.19487,0.52613 0.2923,1.09124 0.2923,1.69532 z m -2.163,1.84147 c 0,-0.27281 -0.12666,-0.52613 -0.37998,-0.75997 -0.25333,-0.25332 -0.57485,-0.46767 -0.96458,-0.64305 -0.37024,-0.19486 -0.77946,-0.34101 -1.22765,-0.43844 -0.44819,-0.11692 -0.86714,-0.17538 -1.25687,-0.17538 -0.79895,0 -1.64661,0.0877 -2.54299,0.26307 -0.87689,0.17537 -1.77326,0.50664 -2.68913,0.9938 -0.89637,0.46768 -1.80249,1.13022 -2.71836,1.98762 -0.91586,0.83792 -1.79275,1.92916 -2.63067,3.27373 2.55273,-0.15589 4.73521,-0.45793 6.54745,-0.90612 1.83173,-0.44819 3.32244,-0.92561 4.47214,-1.43226 1.16919,-0.50665 2.02659,-0.96458 2.57221,-1.37379 0.54562,-0.4287 0.81843,-0.69177 0.81843,-0.78921 z"
           style="font-style:normal;font-variant:normal;font-weight:normal;font-stretch:normal;font-size:medium;line-height:125%;font-family:Scheherazade;-inkscape-font-specification:Scheherazade;text-align:end;letter-spacing:0px;word-spacing:0px;text-anchor:end;fill:#09001c;fill-opacity:1;stroke:none;stroke-width:0.311783px;stroke-linecap:butt;stroke-linejoin:miter;stroke-opacity:1"
           id="path4618"
           inkscape:connector-curvature="0"
           sodipodi:nodetypes="cccccsscccccsscccscccccscccccccscccscccccscccssccccccssccccscccscccccccs" />
      </g>
      <path
         inkscape:connector-curvature="0"
         style="fill:#000000;fill-opacity:1;fill-rule:evenodd;stroke:none;stroke-width:0.264583px;stroke-linecap:butt;stroke-linejoin:miter;stroke-opacity:1"
         d="m 223.3936,147.39019 c 0,0.28941 -0.005,0.56648 -0.0155,0.83251 l 1.28571,1.62936 v -2.46187 z"
         id="path4630" />
      <g
         id="g4674"
         style="fill:#d4001c;fill-opacity:1">
        <path
           inkscape:connector-curvature="0"
           style="font-style:normal;font-variant:normal;font-weight:normal;font-stretch:normal;font-size:medium;line-height:125%;font-family:Scheherazade;-inkscape-font-specification:Scheherazade;text-align:end;letter-spacing:0px;word-spacing:0px;text-anchor:end;fill:#d4001c;fill-opacity:1;fill-rule:evenodd;stroke:none;stroke-width:0.264583px;stroke-linecap:butt;stroke-linejoin:miter;stroke-opacity:1"
           d="m 105.65247,140.11053 -2.26498,6.54327 0.87178,2.31975 2.06344,-5.98671 z m 11.21171,18.7508 -4.11654,1.63504 h 0.0718 l 1.40766,4.06332 4.08141,-1.51981 z"
           id="path4624" />
        <path
           inkscape:connector-curvature="0"
           id="path4638"
           d="m 132.61413,157.9671 v 2.52956 c 0,0.9598 0.0944,1.87868 0.27698,2.75952 l 4.38578,-0.0579 c -0.0934,-0.77909 -0.14159,-1.61054 -0.14159,-2.49856 v -2.22054 z"
           style="font-style:normal;font-variant:normal;font-weight:normal;font-stretch:normal;font-size:medium;line-height:125%;font-family:Scheherazade;-inkscape-font-specification:Scheherazade;text-align:end;letter-spacing:0px;word-spacing:0px;text-anchor:end;fill:#d4001c;fill-opacity:1;fill-rule:evenodd;stroke:none;stroke-width:0.264583px;stroke-linecap:butt;stroke-linejoin:miter;stroke-opacity:1" />
        <path
           style="fill:#d4001c;fill-opacity:1;fill-rule:evenodd;stroke:none;stroke-width:1px;stroke-linecap:butt;stroke-linejoin:miter;stroke-opacity:1"
           d="m 667.43359,553.86328 -16.32031,3.87891 9.59961,25.40429 16.75195,-2.76367 z"
           transform="scale(0.26458333)"
           id="path4648"
           inkscape:connector-curvature="0" />
        <path
           style="fill:#d4001c;fill-opacity:1;fill-rule:evenodd;stroke:none;stroke-width:1px;stroke-linecap:butt;stroke-linejoin:miter;stroke-opacity:1"
           d="m 727.24805,550.64844 -11.46094,30.1914 4.70898,4.26563 11.44141,-30.16992 z"
           transform="scale(0.26458333)"
           id="path4653"
           inkscape:connector-curvature="0" />
        <path
           style="fill:#d4001c;fill-opacity:1;fill-rule:evenodd;stroke:none;stroke-width:1px;stroke-linecap:butt;stroke-linejoin:miter;stroke-opacity:1"
           d="m 592.80273,587.6543 -5.95117,2.78125 v 15.58984 c 0,4.69043 -0.49541,9.03821 -1.47265,13.05469 2.09951,-0.53473 4.49175,-1.1753 6.42968,-1.81446 0.15498,-0.79485 0.29645,-1.59491 0.41797,-2.4082 0.384,-2.56 0.57617,-6.97602 0.57617,-13.24804 z"
           transform="scale(0.26458333)"
           id="path4658"
           inkscape:connector-curvature="0" />
      </g>
    </g>
  </g>
</svg>
