<?xml version="1.0" encoding="UTF-8" standalone="no"?>
<!-- Created with Inkscape (http://www.inkscape.org/) -->

<svg
   xmlns:dc="http://purl.org/dc/elements/1.1/"
   xmlns:cc="http://creativecommons.org/ns#"
   xmlns:rdf="http://www.w3.org/1999/02/22-rdf-syntax-ns#"
   xmlns:svg="http://www.w3.org/2000/svg"
   xmlns="http://www.w3.org/2000/svg"
   xmlns:sodipodi="http://sodipodi.sourceforge.net/DTD/sodipodi-0.dtd"
   xmlns:inkscape="http://www.inkscape.org/namespaces/inkscape"
   width="67.379822mm"
   height="41.842346mm"
   viewBox="0 0 67.379822 41.842346"
   version="1.1"
   id="svg8"
   inkscape:version="0.92.4 (5da689c313, 2019-01-14)"
   sodipodi:docname="pluie.svg">
  <defs
     id="defs2" />
  <sodipodi:namedview
     id="base"
     pagecolor="#ffffff"
     bordercolor="#666666"
     borderopacity="1.0"
     inkscape:pageopacity="0.0"
     inkscape:pageshadow="2"
     inkscape:zoom="0.31610291"
     inkscape:cx="127.33195"
     inkscape:cy="79.072144"
     inkscape:document-units="mm"
     inkscape:current-layer="layer1"
     showgrid="false"
     fit-margin-top="0"
     fit-margin-left="0"
     fit-margin-right="0"
     fit-margin-bottom="0"
     inkscape:window-width="1362"
     inkscape:window-height="725"
     inkscape:window-x="0"
     inkscape:window-y="41"
     inkscape:window-maximized="0" />
  <metadata
     id="metadata5">
    <rdf:RDF>
      <cc:Work
         rdf:about="">
        <dc:format>image/svg+xml</dc:format>
        <dc:type
           rdf:resource="http://purl.org/dc/dcmitype/StillImage" />
        <dc:title></dc:title>
      </cc:Work>
    </rdf:RDF>
  </metadata>
  <g
     inkscape:label="Layer 1"
     inkscape:groupmode="layer"
     id="layer1"
     transform="translate(70.945832,-131.53965)">
    <g
       id="g4363"
       transform="matrix(0.60977641,0,0,0.60977641,-175.41144,-301.27221)"
       inkscape:export-filename="/tmp/pluie.png"
       inkscape:export-xdpi="196.15967"
       inkscape:export-ydpi="196.15967">
      <g
         id="g4365"
         style="font-style:normal;font-weight:normal;font-size:40px;line-height:125%;font-family:Sans;letter-spacing:0px;word-spacing:0px;fill:#000000;fill-opacity:1;stroke:none">
        <path
           style="stroke-width:1.06666672"
           id="path4367"
           d="m 175.17205,766.03197 v 12.375 h -3.85416 v -32.20834 h 3.85416 v 3.54167 c 0.80555,-1.38887 1.81944,-2.41664 3.04167,-3.08333 1.2361,-0.68053 2.70832,-1.02081 4.41667,-1.02084 2.83331,3e-5 5.13192,1.12502 6.89583,3.37501 1.77776,2.25001 2.66664,5.20834 2.66667,8.87499 -3e-5,3.66668 -0.88891,6.62501 -2.66667,8.875 -1.76391,2.25001 -4.06252,3.375 -6.89583,3.375 -1.70835,0 -3.18057,-0.33334 -4.41667,-1 -1.22223,-0.68056 -2.23612,-1.71528 -3.04167,-3.10416 m 13.04167,-8.14584 c -2e-5,-2.81943 -0.58335,-5.02776 -1.75,-6.625 -1.1528,-1.61109 -2.74307,-2.41664 -4.77083,-2.41666 -2.02779,2e-5 -3.62502,0.80557 -4.79167,2.41666 -1.15278,1.59724 -1.72918,3.80557 -1.72917,6.625 -1e-5,2.81946 0.57639,5.03473 1.72917,6.64584 1.16665,1.59722 2.76388,2.39583 4.79167,2.39583 2.02776,0 3.61803,-0.79861 4.77083,-2.39583 1.16665,-1.61111 1.74998,-3.82638 1.75,-6.64584"
           inkscape:connector-curvature="0" />
        <path
           style="stroke-width:1.06666672"
           id="path4369"
           d="m 222.54628,760.32364 v -14.12501 h 3.83334 v 13.97917 c -10e-6,2.20834 0.43055,3.86806 1.29167,4.97917 0.8611,1.09722 2.15277,1.64584 3.87499,1.64582 2.06943,2e-5 3.70138,-0.65971 4.89583,-1.97915 1.20832,-1.31945 1.81248,-3.11805 1.81251,-5.39584 v -13.22917 h 3.83333 v 23.33334 h -3.83333 v -3.58334 c -0.93058,1.41667 -2.01391,2.47222 -3.25,3.16667 -1.22224,0.68055 -2.64584,1.02083 -4.27084,1.02083 -2.68056,0 -4.71528,-0.83334 -6.10417,-2.5 -1.38888,-1.66666 -2.08333,-4.10416 -2.08333,-7.31249 m 9.64584,-14.68751 v 0"
           inkscape:connector-curvature="0" />
        <path
           style="stroke-width:1.06666672"
           id="path4371"
           d="m 250.02545,746.19863 h 3.83334 v 23.33334 h -3.83334 v -23.33334 m 0,-9.08333 h 3.83334 v 4.85416 h -3.83334 v -4.85416"
           inkscape:connector-curvature="0" />
        <path
           style="stroke-width:1.06666672"
           id="path4373"
           d="m 281.81712,756.90697 v 1.87499 h -17.625 c 0.16666,2.6389 0.95832,4.65279 2.375,6.04168 1.43055,1.37499 3.41665,2.06249 5.95833,2.06249 1.47221,0 2.89582,-0.18055 4.27083,-0.54166 1.38887,-0.36111 2.76387,-0.90277 4.125,-1.625 v 3.625 c -1.37502,0.58333 -2.78473,1.02778 -4.22916,1.33333 -1.44446,0.30555 -2.90974,0.45833 -4.39584,0.45833 -3.72223,0 -6.67361,-1.08333 -8.85417,-3.25 -2.16666,-2.16666 -3.24999,-5.09721 -3.24999,-8.79167 0,-3.81942 1.02778,-6.8472 3.08333,-9.08332 2.06944,-2.24999 4.85415,-3.37498 8.35416,-3.37501 3.13888,3e-5 5.61804,1.01392 7.43751,3.04167 1.83331,2.01391 2.74997,4.75696 2.75,8.22917 m -3.83333,-1.12501 c -0.0278,-2.0972 -0.61808,-3.77081 -1.77084,-5.02083 -1.13891,-1.24997 -2.65279,-1.87498 -4.54166,-1.875 -2.1389,2e-5 -3.85418,0.60418 -5.14584,1.8125 -1.27779,1.20836 -2.0139,2.90974 -2.20833,5.10416 l 13.66667,-0.0208"
           inkscape:connector-curvature="0" />
        <g
           id="g4375"
           transform="matrix(-1,0,0,1,400.92743,0)">
          <path
             sodipodi:nodetypes="ccccc"
             style="stroke-width:1.06666672"
             d="m 198.54705,732.5086 h 3.83333 v 31.83444 h -3.83333 V 732.5086"
             id="path4377"
             inkscape:connector-curvature="0" />
          <path
             sodipodi:nodetypes="cssc"
             inkscape:connector-curvature="0"
             id="path4379"
             d="m 200.46358,764.50021 c -0.0542,2.68459 -1.58572,5.12006 -3.98187,6.33187 -2.39615,1.21181 -5.26551,1.00203 -7.45993,-0.54539 -2.19442,-1.54742 -3.35549,-4.17974 -3.01862,-6.84367"
             style="fill:none;stroke:#000000;stroke-width:3.83360004;stroke-linecap:round;stroke-miterlimit:4;stroke-dasharray:none;stroke-opacity:1" />
          <g
             id="g4381"
             transform="matrix(0.70183505,0,0,0.70183505,147.45178,163.80039)">
            <path
               sodipodi:nodetypes="csccc"
               inkscape:connector-curvature="0"
               id="path4383"
               d="M 112.96667,817.73333 C 111.55018,802.95195 99.154782,790.26272 81.833333,787.67077 61.297849,784.5979 41.844866,796.80954 38.366667,814.95203 l -0.233334,1.39066 c -0.0669,0.46736 0.01111,0.92543 -0.03333,1.39064"
               style="fill:none;stroke:#000000;stroke-width:5.46225214;stroke-linecap:round;stroke-linejoin:round;stroke-miterlimit:4;stroke-dasharray:none;stroke-opacity:1" />
            <g
               transform="translate(0.81806933,-2.6386133)"
               style="stroke:#000000;stroke-width:5.12086153;stroke-miterlimit:4;stroke-dasharray:none;stroke-opacity:1"
               id="g4385">
              <path
                 style="fill:none;stroke:#000000;stroke-width:5.46225214;stroke-linecap:round;stroke-linejoin:round;stroke-miterlimit:4;stroke-dasharray:none;stroke-opacity:1"
                 d="m 111.56386,820.37195 c -0.56405,-3.88423 -4.55575,-7.18781 -10.16571,-7.87195 -6.776712,-0.82642 -13.185529,2.48743 -14.333335,7.36667 l -0.06667,0.36666"
                 id="path4387"
                 inkscape:connector-curvature="0"
                 sodipodi:nodetypes="cscc" />
              <path
                 sodipodi:nodetypes="cscc"
                 inkscape:connector-curvature="0"
                 id="path4389"
                 d="m 86.998125,820.37195 c -0.564057,-3.88423 -4.555757,-7.18781 -10.165719,-7.87195 -6.77671,-0.82642 -13.185527,2.48743 -14.333333,7.36667 l -0.06667,0.36666"
                 style="fill:none;stroke:#000000;stroke-width:5.46225214;stroke-linecap:round;stroke-linejoin:round;stroke-miterlimit:4;stroke-dasharray:none;stroke-opacity:1" />
              <path
                 style="fill:none;stroke:#000000;stroke-width:5.46225214;stroke-linecap:round;stroke-linejoin:round;stroke-miterlimit:4;stroke-dasharray:none;stroke-opacity:1"
                 d="m 62.432385,820.37195 c -0.564056,-3.88423 -4.555757,-7.18781 -10.165718,-7.87195 -6.776711,-0.82642 -13.185528,2.48743 -14.333334,7.36667 l -0.06667,0.36666"
                 id="path4391"
                 inkscape:connector-curvature="0"
                 sodipodi:nodetypes="cscc" />
            </g>
          </g>
          <path
             style="fill:none;stroke:#000000;stroke-width:3.83360004;stroke-linecap:round;stroke-linejoin:miter;stroke-miterlimit:4;stroke-dasharray:none;stroke-opacity:1"
             d="m 200.46371,711.73191 v 3.64691"
             id="path4393"
             inkscape:connector-curvature="0"
             sodipodi:nodetypes="cc" />
        </g>
      </g>
    </g>
  </g>
</svg>
