<?xml version="1.0" encoding="UTF-8" standalone="no"?>
<svg
   xmlns:dc="http://purl.org/dc/elements/1.1/"
   xmlns:cc="http://creativecommons.org/ns#"
   xmlns:rdf="http://www.w3.org/1999/02/22-rdf-syntax-ns#"
   xmlns:svg="http://www.w3.org/2000/svg"
   xmlns="http://www.w3.org/2000/svg"
   xmlns:sodipodi="http://sodipodi.sourceforge.net/DTD/sodipodi-0.dtd"
   xmlns:inkscape="http://www.inkscape.org/namespaces/inkscape"
   width="40.035999mm"
   height="18.092991mm"
   viewBox="0 0 40.035999 18.092991"
   version="1.1"
   id="svg8"
   inkscape:version="1.0.2 (e86c870879, 2021-01-15)"
   sodipodi:docname="qit-chat.svg">
  <defs
     id="defs2" />
  <sodipodi:namedview
     id="base"
     pagecolor="#ffffff"
     bordercolor="#666666"
     borderopacity="1.0"
     inkscape:pageopacity="0.0"
     inkscape:pageshadow="2"
     inkscape:zoom="7.9435792"
     inkscape:cx="75.658588"
     inkscape:cy="34.191483"
     inkscape:document-units="mm"
     inkscape:current-layer="text4487"
     showgrid="false"
     inkscape:window-width="1916"
     inkscape:window-height="1038"
     inkscape:window-x="0"
     inkscape:window-y="40"
     inkscape:window-maximized="0"
     inkscape:snap-global="false"
     showguides="true"
     inkscape:guide-bbox="true"
     fit-margin-top="0"
     fit-margin-left="0"
     fit-margin-right="0"
     fit-margin-bottom="0"
     inkscape:document-rotation="0" />
  <metadata
     id="metadata5">
    <rdf:RDF>
      <cc:Work
         rdf:about="">
        <dc:format>image/svg+xml</dc:format>
        <dc:type
           rdf:resource="http://purl.org/dc/dcmitype/StillImage" />
        <dc:title />
      </cc:Work>
    </rdf:RDF>
  </metadata>
  <g
     inkscape:label="Calque 1"
     inkscape:groupmode="layer"
     id="layer1"
     transform="translate(-240.19485,-81.25613)">
    <g
       aria-label="قط"
       style="font-style:normal;font-variant:normal;font-weight:normal;font-stretch:normal;font-size:25.4px;line-height:125%;font-family:'CMU Serif';-inkscape-font-specification:'CMU Serif';letter-spacing:0px;word-spacing:0px;fill:#000000;fill-opacity:1;stroke:none;stroke-width:0.264583px;stroke-linecap:butt;stroke-linejoin:miter;stroke-opacity:1"
       id="text4487">
      <path
         style="fill:#000000;fill-opacity:1;fill-rule:evenodd;stroke:none;stroke-width:0.626062px;stroke-linecap:butt;stroke-linejoin:miter;stroke-opacity:1"
         d="m 198.00781,202.78516 v 13.08203 c 0.72214,-0.5871 1.49122,-1.13648 2.32422,-1.62696 2.11559,-1.2456 4.393,-2.03568 6.69531,-2.43554 z m 24.94141,0 -9.02149,9.01953 c 3.27089,0.57676 6.38274,1.95699 9.02149,4.05859 z"
         transform="matrix(0.26458333,0,0,0.26458333,219.89198,28.465995)"
         id="path4584"
         inkscape:connector-curvature="0" />
      <path
         transform="scale(-1,1)"
         style="opacity:1;vector-effect:none;fill:none;fill-opacity:1;stroke:#000000;stroke-width:2.11667;stroke-linecap:butt;stroke-linejoin:miter;stroke-miterlimit:4;stroke-dasharray:none;stroke-dashoffset:0;stroke-opacity:1"
         d="m -277.48432,86.655063 c 1.68474,-1.051269 3.90265,-0.538618 4.95516,1.145344 1.05251,1.68396 0.5415,3.902245 -1.14168,4.956002 -1.68318,1.05376 -3.90185,0.544389 -4.95967,-1.142526 -1.05283,-1.690024 -0.53855,-3.907551 1.14619,-4.95882 z"
         id="path4580"
         inkscape:connector-curvature="0"
         sodipodi:nodetypes="ssscs" />
      <path
         style="fill:none;fill-rule:evenodd;stroke:#000000;stroke-width:2.11667;stroke-linecap:butt;stroke-linejoin:miter;stroke-miterlimit:4;stroke-dasharray:none;stroke-opacity:1"
         d="m 246.66085,98.246526 c 4.19358,-0.04944 12.19128,0 15.29076,0 9.63538,0 3.96838,-14.775664 -6.10063,0"
         id="path4606"
         inkscape:connector-curvature="0"
         sodipodi:nodetypes="csc" />
      <path
         style="fill:none;fill-rule:evenodd;stroke:#000000;stroke-width:2.11667;stroke-linecap:butt;stroke-linejoin:miter;stroke-miterlimit:4;stroke-dasharray:none;stroke-opacity:1"
         d="M 254.66693,81.25613 V 98.073705"
         id="path4608"
         inkscape:connector-curvature="0" />
      <path
         sodipodi:nodetypes="ccccc"
         inkscape:connector-curvature="0"
         id="path4610"
         d="m 266.3007,96.538206 c 0.64119,1.512544 2.73336,1.756039 4.16087,1.752539 h 4.336 c 1.71503,0.0036 4.38944,-0.3481 4.35444,-2.829286 v -5.371217"
         style="fill:none;fill-rule:evenodd;stroke:#000000;stroke-width:2.11667;stroke-linecap:butt;stroke-linejoin:miter;stroke-miterlimit:4;stroke-dasharray:none;stroke-opacity:1" />
      <path
         transform="scale(1,-1)"
         style="fill:none;fill-rule:evenodd;stroke:#000000;stroke-width:2.11667;stroke-linecap:round;stroke-linejoin:miter;stroke-miterlimit:4;stroke-dasharray:none;stroke-opacity:1"
         d="m 246.17522,-92.532308 c 0.13977,-0.318001 0.57509,-0.296049 0.81654,-0.122859 0.48042,0.344596 0.41376,1.052721 0.0562,1.458021 -0.58509,0.663167 -1.62677,0.538874 -2.21654,-0.04591 -0.86544,-0.858128 -0.67204,-2.282779 0.17599,-3.075865 1.16088,-1.085677 3.0114,-0.81319 4.0252,0.329758 1.32251,1.490978 0.96206,3.805914 -0.50438,5.056635 -1.84645,1.574824 -4.6612,1.118371 -6.16406,-0.697809 -1.84171,-2.225686 -1.28182,-5.573176 0.90848,-7.34254 0.94218,-0.761111 2.12043,-1.203028 3.3281,-1.271973"
         id="path4620"
         inkscape:connector-curvature="0" />
    </g>
  </g>
</svg>
