<?xml version="1.0" encoding="UTF-8" standalone="no"?>
<!-- Created with Inkscape (http://www.inkscape.org/) -->

<svg
   xmlns:dc="http://purl.org/dc/elements/1.1/"
   xmlns:cc="http://creativecommons.org/ns#"
   xmlns:rdf="http://www.w3.org/1999/02/22-rdf-syntax-ns#"
   xmlns:svg="http://www.w3.org/2000/svg"
   xmlns="http://www.w3.org/2000/svg"
   xmlns:xlink="http://www.w3.org/1999/xlink"
   xmlns:sodipodi="http://sodipodi.sourceforge.net/DTD/sodipodi-0.dtd"
   xmlns:inkscape="http://www.inkscape.org/namespaces/inkscape"
   width="54.304962mm"
   height="8.1957493mm"
   id="svg2"
   version="1.1"
   inkscape:version="0.92.1 r15371"
   sodipodi:docname="saturne.svg">
  <defs
     id="defs4">
    <linearGradient
       inkscape:collect="always"
       id="linearGradient4680">
      <stop
         style="stop-color:#7a2e1e;stop-opacity:1;"
         offset="0"
         id="stop4676" />
      <stop
         style="stop-color:#af2e1e;stop-opacity:1"
         offset="1"
         id="stop4678" />
    </linearGradient>
    <linearGradient
       id="linearGradient4189">
      <stop
         style="stop-color:#1c1c1c;stop-opacity:1;"
         offset="0"
         id="stop4191" />
      <stop
         style="stop-color:#212121;stop-opacity:1;"
         offset="1"
         id="stop4193" />
    </linearGradient>
    <linearGradient
       id="linearGradient4156">
      <stop
         style="stop-color:#171717;stop-opacity:1;"
         offset="0"
         id="stop4158" />
      <stop
         style="stop-color:#313131;stop-opacity:1;"
         offset="1"
         id="stop4160" />
    </linearGradient>
    <clipPath
       clipPathUnits="userSpaceOnUse"
       id="clipPath4207">
      <path
         id="path4209"
         d="m 279.42551,2274.6205 -12.66666,-33.1777 0.24468,-15.9289 h 29.84304 l 0.31228,15.9289 -12.64444,33.1777 h -5.0889"
         inkscape:connector-curvature="0"
         sodipodi:nodetypes="ccccccc"
         style="fill:none;stroke-width:1.13777781" />
    </clipPath>
    <clipPath
       clipPathUnits="userSpaceOnUse"
       id="clipPath4644">
      <path
         style="opacity:1;vector-effect:none;fill:none;fill-opacity:1;stroke:#f40000;stroke-width:0.5;stroke-linecap:butt;stroke-linejoin:round;stroke-miterlimit:4;stroke-dasharray:none;stroke-dashoffset:0;stroke-opacity:1;paint-order:normal"
         id="path4646"
         sodipodi:type="arc"
         sodipodi:cx="3315.1172"
         sodipodi:cy="523.60718"
         sodipodi:rx="19.8738"
         sodipodi:ry="19.8738"
         sodipodi:start="2.6579794"
         sodipodi:end="2.657585"
         sodipodi:open="true"
         d="m 3297.5225,532.84812 a 19.8738,19.8738 0 0 1 8.352,-26.83472 19.8738,19.8738 0 0 1 26.8355,8.34937 19.8738,19.8738 0 0 1 -8.3467,26.83636 19.8738,19.8738 0 0 1 -26.8372,-8.34407" />
    </clipPath>
    <clipPath
       clipPathUnits="userSpaceOnUse"
       id="clipPath4631">
      <rect
         style="opacity:1;vector-effect:none;fill:#030000;fill-opacity:1;stroke:#f10000;stroke-width:6;stroke-linecap:butt;stroke-linejoin:miter;stroke-miterlimit:4;stroke-dasharray:none;stroke-dashoffset:0;stroke-opacity:1;paint-order:normal"
         id="rect4633"
         width="452"
         height="448"
         x="4241.3101"
         y="380.62552"
         ry="0" />
    </clipPath>
    <clipPath
       clipPathUnits="userSpaceOnUse"
       id="clipPath4654">
      <path
         style="opacity:1;vector-effect:none;fill:#5b2e1e;fill-opacity:1;stroke:#00e100;stroke-width:0.38;stroke-linecap:round;stroke-linejoin:miter;stroke-miterlimit:4;stroke-dasharray:none;stroke-dashoffset:0;stroke-opacity:1;paint-order:markers fill stroke"
         d="m 3388.5603,788.87549 v 19 h 32.25 v -19 z m -48.5,40 v 21.5 h 25.25 v -21.5 z"
         id="path4656"
         inkscape:connector-curvature="0" />
    </clipPath>
    <linearGradient
       inkscape:collect="always"
       xlink:href="#linearGradient4680"
       id="linearGradient4690"
       x1="640.44531"
       y1="484.95996"
       x2="569.98828"
       y2="478.20996"
       gradientUnits="userSpaceOnUse" />
    <clipPath
       clipPathUnits="userSpaceOnUse"
       id="clipPath4736">
      <path
         inkscape:connector-curvature="0"
         id="path4738"
         d="m 3341.2967,495.91651 0.9707,2.79296 0.4629,1.30079 1.1367,3.28711 h 3.8086 l -2.5527,-7.38086 z m -10.8613,5.6582 -0.6269,1.81055 h 1.3691 l 0.6348,-1.81055 z"
         style="font-style:normal;font-variant:normal;font-weight:normal;font-stretch:normal;font-size:medium;line-height:125%;font-family:'CMU Serif';-inkscape-font-specification:'CMU Serif';text-align:start;letter-spacing:0px;word-spacing:0px;text-anchor:start;fill:#ea0000;fill-opacity:1;stroke:none;stroke-width:0.49186996px;stroke-linecap:butt;stroke-linejoin:miter;stroke-opacity:1" />
    </clipPath>
  </defs>
  <sodipodi:namedview
     id="base"
     pagecolor="#ffffff"
     bordercolor="#666666"
     borderopacity="1.0"
     inkscape:pageopacity="0.0"
     inkscape:pageshadow="2"
     inkscape:zoom="1"
     inkscape:cx="187.42102"
     inkscape:cy="16.845669"
     inkscape:document-units="px"
     inkscape:current-layer="layer1"
     showgrid="false"
     showguides="true"
     inkscape:guide-bbox="true"
     inkscape:snap-global="false"
     inkscape:window-width="1916"
     inkscape:window-height="1039"
     inkscape:window-x="0"
     inkscape:window-y="39"
     inkscape:window-maximized="0"
     fit-margin-top="0"
     fit-margin-left="0"
     fit-margin-right="0"
     fit-margin-bottom="0" />
  <metadata
     id="metadata7">
    <rdf:RDF>
      <cc:Work
         rdf:about="">
        <dc:format>image/svg+xml</dc:format>
        <dc:type
           rdf:resource="http://purl.org/dc/dcmitype/StillImage" />
        <dc:title></dc:title>
      </cc:Work>
    </rdf:RDF>
  </metadata>
  <g
     inkscape:label="Calque 1"
     inkscape:groupmode="layer"
     id="layer1"
     transform="translate(-2855.5688,-613.52723)">
    <g
       id="g4749"
       transform="translate(-445.3282,83.999998)">
      <g
         transform="translate(437.78935,-83.999998)"
         id="g4663"
         style="font-style:normal;font-variant:normal;font-weight:normal;font-stretch:normal;font-size:41.97290421px;line-height:125%;font-family:'CMU Serif';-inkscape-font-specification:'CMU Serif';text-align:start;letter-spacing:0px;word-spacing:0px;text-anchor:start;fill:#000000;fill-opacity:1;stroke:none;stroke-width:0.49186996px;stroke-linecap:butt;stroke-linejoin:miter;stroke-opacity:1"
         aria-label="SATURNE">
        <path
           inkscape:connector-curvature="0"
           id="path4647"
           style="stroke-width:0.49186996px"
           d="m 2863.1076,643.49589 v -8.39458 q 0,-0.4617 0,-0.6296 0.042,-0.16789 0.1679,-0.29381 0.1259,-0.12592 0.3777,-0.12592 0.4617,0 0.5037,0.41973 0.1259,4.15532 2.6023,6.46383 2.4345,2.26654 6.6318,2.26654 2.5183,0 4.0713,-1.80484 1.553,-1.80483 1.553,-4.19729 0,-2.26653 -1.3011,-3.8615 -0.5457,-0.71354 -1.2592,-1.17525 -0.6716,-0.4617 -1.0913,-0.58762 -0.4198,-0.16789 -1.2172,-0.37775 -5.2047,-1.25919 -5.5405,-1.38511 -2.4764,-0.83946 -3.9874,-2.9381 -1.511,-2.14062 -1.511,-4.74294 0,-3.35783 2.3505,-5.75029 2.3924,-2.39245 5.8342,-2.39245 1.7209,0 3.148,0.54564 1.469,0.54565 2.0566,1.04933 0.5877,0.4617 1.5111,1.34313 l 1.469,-2.39246 q 0.3358,-0.54564 0.6296,-0.54564 0.3358,0 0.3778,0.20986 0.084,0.16789 0.084,0.79749 v 8.43655 q 0,0.4617 -0.042,0.62959 0,0.1679 -0.1259,0.29381 -0.1259,0.084 -0.3777,0.084 -0.4198,0 -0.5037,-0.50368 -1.1752,-8.77233 -8.1847,-8.77233 -2.3925,0 -3.9874,1.63694 -1.553,1.59497 -1.553,3.86151 0,1.84681 1.1332,3.35783 1.1753,1.51103 3.106,1.97273 l 5.3726,1.30116 q 2.6862,0.62959 4.4911,3.02205 1.8048,2.35048 1.8048,5.45647 0,3.5677 -2.3505,6.17002 -2.3085,2.56035 -5.9182,2.56035 -2.6023,0 -4.617,-0.88143 -2.0147,-0.83946 -3.106,-2.05668 -0.8394,1.38511 -1.3851,2.1826 l -0.1259,0.20986 q -0.3358,0.54565 -0.6296,0.54565 -0.3358,0 -0.4197,-0.20987 -0.042,-0.20986 -0.042,-0.79748 z" />
        <path
           inkscape:connector-curvature="0"
           id="path4649"
           style="stroke-width:0.49186996px"
           d="m 2904.4782,632.70885 -4.743,-13.64119 -4.7009,13.64119 -0.4617,1.30118 -1.9308,5.49845 c -0.056,0.11193 -0.084,0.32179 -0.084,0.6296 0,0.58762 0.2658,1.09129 0.7975,1.51102 0.5596,0.41973 1.3431,0.62959 2.3504,0.62959 v 1.30116 c -2.6863,-0.0839 -4.2952,-0.12591 -4.8268,-0.12591 -0.9234,0 -2.3505,0.042 -4.2813,0.12591 l 10e-5,-2e-5 v -1.30116 c 2.4904,-0.0559 4.0574,-0.99333 4.701,-2.81218 l 8.6884,-25.0998 c 0.1119,-0.33578 0.2239,-0.55963 0.3358,-0.67156 0.1399,-0.11193 0.3637,-0.1679 0.6715,-0.1679 0.1679,0 0.2939,0.014 0.3778,0.042 0.1119,0.028 0.1959,0.098 0.2518,0.20986 0.084,0.0839 0.1399,0.1539 0.1679,0.20987 0.028,0.0559 0.084,0.18185 0.1679,0.37775 l 9.0662,26.23307 c 0.2238,0.69955 0.5596,1.16125 1.0073,1.3851 0.4477,0.19587 1.3012,0.29381 2.5603,0.29381 h 0.7556 v 1.30116 c -1.7629,-0.0839 -3.5957,-0.12591 -5.4985,-0.12591 -3.0221,0 -5.0368,0.042 -6.0441,0.12591 v -1.30116 c 2.3225,0 3.4838,-0.41973 3.4838,-1.25918 0,-0.056 -0.042,-0.25187 -0.126,-0.58762 l -2.2245,-6.42186 z"
           sodipodi:nodetypes="cccccscccsccccccsccccccsccsccsccc" />
        <path
           inkscape:connector-curvature="0"
           id="path4651"
           style="stroke-width:0.49186996px"
           d="m 2918.3022,624.60808 0.7975,-9.4439 h 25.6454 l 0.7975,9.4439 h -1.0493 q -0.1679,-1.88878 -0.3358,-2.98007 -0.1259,-1.0913 -0.5037,-2.09865 -0.3357,-1.04932 -0.7975,-1.553 -0.4197,-0.50367 -1.2591,-0.88143 -0.8395,-0.41973 -1.9308,-0.50367 -1.0913,-0.12592 -2.7282,-0.12592 -1.9308,0 -2.3925,0.0839 -0.5037,0.12592 -0.6296,0.50368 -0.1259,0.33578 -0.1259,1.09129 v 22.11972 q 0,0.83946 0.1679,1.17525 0.1679,0.33578 1.1333,0.58762 0.9653,0.25183 3.106,0.25183 h 1.6789 v 1.30116 q -1.7209,-0.12591 -7.9749,-0.12591 -6.212,0 -7.9329,0.12591 v -1.30116 h 1.679 q 2.1406,0 3.106,-0.25183 0.9653,-0.25184 1.1332,-0.58762 0.1679,-0.33579 0.1679,-1.17525 v -22.11972 q 0,-0.58762 -0.042,-0.83945 -0.042,-0.25184 -0.2518,-0.46171 -0.1679,-0.20986 -0.5876,-0.29381 -0.4197,-0.0839 -2.2666,-0.0839 -1.6369,0 -2.7282,0.12592 -1.0913,0.0839 -1.9307,0.50367 -0.8395,0.37776 -1.3012,0.88143 -0.4197,0.50368 -0.7975,1.553 -0.3358,1.00735 -0.5037,2.09865 -0.1259,1.09129 -0.2938,2.98007 z" />
        <path
           inkscape:connector-curvature="0"
           id="path4653"
           style="stroke-width:0.49186996px"
           d="m 2948.5083,616.2135 v -1.30116 q 1.469,0.12592 6.2119,0.12592 4.701,0 6.1701,-0.12592 v 1.30116 h -1.0074 q -2.2665,0 -2.8122,0.37776 -0.5036,0.37775 -0.5036,1.59497 v 15.99167 q 0,2.81219 0.7555,4.74294 0.7975,1.93076 2.0147,2.81219 1.2172,0.83945 2.1826,1.17524 1.0073,0.29381 1.9727,0.29381 3.1899,0 5.6244,-2.51838 2.4344,-2.56034 2.4344,-6.79961 V 619.3195 q 0,-0.6296 -0.084,-1.00735 -0.084,-0.37776 -0.4617,-0.92341 -0.3357,-0.58762 -1.3011,-0.88143 -0.9654,-0.29381 -2.4764,-0.29381 v -1.30116 q 4.533,0.12592 4.9948,0.12592 0.4197,0 4.9528,-0.12592 v 1.30116 q -1.5111,0 -2.4764,0.29381 -0.9654,0.25184 -1.3432,0.83946 -0.3358,0.58762 -0.4197,1.00735 -0.084,0.41973 -0.084,1.13327 v 13.43133 q 0,2.05667 -0.1259,2.89613 -0.5456,3.65164 -3.1479,6.17001 -2.6024,2.51838 -6.1701,2.51838 -4.3232,0 -7.4711,-3.02205 -3.106,-3.06402 -3.106,-7.47118 v -15.82378 q 0,-1.21722 -0.5457,-1.59497 -0.5037,-0.37776 -2.7702,-0.37776 z" />
        <path
           inkscape:connector-curvature="0"
           id="path4655"
           style="stroke-width:0.49186996px"
           d="m 2980.0719,643.57983 v -1.30116 h 1.0073 q 2.2666,0 2.7702,-0.37775 0.5457,-0.37776 0.5457,-1.59497 v -22.11972 q 0,-1.21722 -0.5457,-1.59497 -0.5036,-0.37776 -2.7702,-0.37776 h -1.0073 v -1.30116 h 13.1795 q 4.575,0 7.765,2.26654 3.1899,2.22456 3.1899,5.28858 0,2.35049 -2.0986,4.19729 -2.0567,1.84681 -5.2467,2.6443 4.1554,1.42708 5.1207,4.86885 l 0.5457,3.35784 q 0.1679,1.21721 0.2518,1.8468 0.1259,0.58762 0.2938,1.42708 0.2099,0.83946 0.3778,1.25919 0.2099,0.37776 0.5037,0.79748 0.2938,0.41973 0.6715,0.58763 0.3778,0.12591 0.8815,0.12591 0.9653,0 1.7628,-0.83945 0.8395,-0.88144 1.0074,-2.89613 0.084,-0.67157 0.5037,-0.67157 0.5456,0 0.5456,0.71354 0,0.54565 -0.1679,1.25919 -0.1679,0.67156 -0.5876,1.46905 -0.3778,0.79748 -1.2592,1.34313 -0.8395,0.54565 -1.9727,0.54565 -3.2739,0 -5.2886,-1.76286 -0.8395,-0.75552 -1.2172,-1.72089 -0.3778,-1.00735 -0.4617,-1.76287 -0.042,-0.79748 -0.042,-2.51837 0,-2.43443 -0.2518,-3.48375 -0.2519,-1.0913 -1.3432,-2.14062 -1.469,-1.42708 -3.9034,-1.42708 h -4.8269 v 10.61915 q 0,1.21721 0.5036,1.59497 0.5457,0.37775 2.8122,0.37775 h 1.0074 v 1.30116 q -1.511,-0.12591 -6.1281,-0.12591 -4.617,0 -6.128,0.12591 z m 7.9329,-14.81643 h 4.659 q 2.2245,0 3.7355,-0.54565 1.5111,-0.54565 2.2246,-1.51102 0.7136,-1.00735 0.9654,-1.97273 0.2938,-1.00735 0.2938,-2.26654 0,-1.46905 -0.3358,-2.56034 -0.3358,-1.13327 -1.0493,-1.76287 -0.7135,-0.67156 -1.4271,-1.09129 -0.7135,-0.41973 -1.8468,-0.58762 -1.0913,-0.16789 -1.8468,-0.20987 -0.7555,-0.042 -1.9727,-0.042 -2.0567,0 -2.4764,0.084 -0.4617,0.042 -0.6716,0.29381 -0.1679,0.20986 -0.2099,0.4617 -0.042,0.25184 -0.042,0.83946 z" />
        <path
           inkscape:connector-curvature="0"
           id="path4657"
           style="stroke-width:0.49186996px"
           d="m 3010.8938,643.57983 v -1.30116 q 1.511,0 2.4764,-0.29381 0.9654,-0.29381 1.3011,-0.83945 0.3778,-0.58763 0.4617,-0.96538 0.084,-0.37776 0.084,-1.00735 v -21.90986 q 0,-0.58762 -0.1679,-0.71354 -0.1259,-0.16789 -0.8395,-0.25183 -1.2592,-0.084 -2.0986,-0.084 h -1.2172 v -1.30116 h 7.1354 q 0.5876,0 0.7555,0.084 0.1679,0.0839 0.4617,0.4617 l 14.8164,21.78394 V 619.3195 q 0,-0.6296 -0.084,-1.00735 -0.084,-0.37776 -0.4617,-0.92341 -0.3358,-0.58762 -1.3012,-0.88143 -0.9654,-0.29381 -2.4764,-0.29381 v -1.30116 q 4.4072,0.12592 4.9108,0.12592 0.5037,0 4.9109,-0.12592 v 1.30116 q -1.5111,0 -2.4764,0.29381 -0.9654,0.29381 -1.3432,0.88143 -0.3358,0.54565 -0.4197,0.92341 -0.084,0.37775 -0.084,1.00735 v 23.16904 q 0,0.67156 -0.084,0.88143 -0.084,0.20986 -0.5037,0.20986 -0.2938,0 -0.7135,-0.54564 l -17.1249,-25.18375 q -0.1679,-0.25183 -0.4198,-0.50367 v 21.82591 q 0,0.62959 0.084,1.00735 0.084,0.37775 0.4197,0.96538 0.3778,0.54564 1.3431,0.83945 0.9654,0.29381 2.4764,0.29381 v 1.30116 q -4.4071,-0.12591 -4.9108,-0.12591 -0.5037,0 -4.9108,0.12591 z" />
        <path
           inkscape:connector-curvature="0"
           id="path4659"
           style="stroke-width:0.49186996px"
           d="m 3042.3734,643.57983 v -1.30116 h 1.0074 q 2.2665,0 2.7702,-0.37775 0.5457,-0.37776 0.5457,-1.59497 v -21.9938 q 0,-1.21722 -0.5457,-1.59497 -0.5037,-0.37776 -2.7702,-0.37776 h -1.0074 v -1.30116 h 23.6308 l 1.1752,9.4439 h -1.0493 q -0.2938,-2.39245 -0.6716,-3.77756 -0.3777,-1.3851 -1.3011,-2.43443 -0.8814,-1.09129 -2.3925,-1.51102 -1.469,-0.41973 -3.8615,-0.41973 h -5.4145 q -1.4271,0 -1.7628,0.29381 -0.2939,0.29381 -0.2939,1.38511 v 10.07349 h 3.7776 q 2.8961,0 3.6936,-1.00735 0.8395,-1.00735 0.8395,-3.90348 h 1.0493 v 11.12282 h -1.0493 q 0,-2.85416 -0.8395,-3.86151 -0.7975,-1.04932 -3.6936,-1.04932 h -3.7776 v 11.20677 q 0,1.09129 0.2939,1.3851 0.3357,0.29381 1.7628,0.29381 h 5.5824 q 1.8048,0 3.106,-0.20986 1.3431,-0.25184 2.2665,-0.83946 0.9234,-0.58762 1.553,-1.25919 0.6296,-0.67156 1.0494,-1.88878 0.4617,-1.21721 0.7135,-2.35048 0.2518,-1.13327 0.5457,-2.98008 h 1.0493 l -1.7629,10.82901 z" />
      </g>
      <path
         inkscape:connector-curvature="0"
         style="opacity:1;vector-effect:none;fill:#000000;fill-opacity:1;stroke:none;stroke-width:0.126;stroke-linecap:round;stroke-linejoin:round;stroke-miterlimit:4;stroke-dasharray:none;stroke-dashoffset:0;stroke-opacity:1;paint-order:normal"
         d="m 3348.8103,537.67424 a 6.7198901,18.004934 69.605288 0 0 -12.8008,2.5625 6.7198901,18.004934 69.605288 0 0 -14.623,12.55859 6.7198901,18.004934 69.605288 0 0 19.0859,0.11914 l 0.1465,-0.0527 a 6.7198901,18.004934 69.605288 0 0 14.5391,-12.56055 6.7198901,18.004934 69.605288 0 0 -6.3477,-2.62695 z m 0.066,0.62305 a 4.8892183,15.549261 69.605288 0 1 4.1758,1.68359 4.8892183,15.549261 69.605288 0 1 -12.875,9.99219 l -0.125,0.0449 a 4.8892183,15.549261 69.605288 0 1 -16.1641,0.75977 4.8892183,15.549261 69.605288 0 1 12.9453,-9.99415 4.8892183,15.549261 69.605288 0 1 12.043,-2.48632 z"
         id="path4665" />
    </g>
  </g>
</svg>
